<svg xmlns="http://www.w3.org/2000/svg" viewBox="0 0 72 72" style="enable-background:new 0 0 72 72" xml:space="preserve"><path style="fill-rule:evenodd;clip-rule:evenodd;fill:#a4a5b3" d="M0 72h72V0H0z"/><path d="M2.4 72s.2-6.8 9.4-11c0 0 10-5.2 11-5.6 1-.4 3.7-2.2 4-4.5 0 0 .7-5.5.7-6.7 0 0-3.3-2-4.1-8.3 0 0-2.3 0-2.7-5.5-.3-3.5.7-3.6 1.3-3.4 0 0-.6-6.6-.1-8.1 0 0 .2-8.5 7.6-11.3 2.8-1 8.6-2.7 11.3-.4 0 0 1.7 1.3 1.8 2.6 0 0 4.5-.3 6.3 4.6 1.8 4.8.5 12.6.5 12.6s2-.5 1.5 4.1c-.6 4.6-2.7 4.8-2.7 4.8s-.7 5.9-3.7 8.1c0 0 .2 4.5.4 5.6.1 1.1.4 3.6 3.6 5.4 3.2 1.8 12.1 6.4 12.7 6.8.8.3 7.5 3.2 8.4 10.2H2.4z" style="fill-rule:evenodd;clip-rule:evenodd;fill:#fff"/></svg>