<svg xmlns="http://www.w3.org/2000/svg" viewBox="0 0 72 72" style="enable-background:new 0 0 72 72" xml:space="preserve"><path d="M36 0C16.2 0 0 16.2 0 36s16.2 36 36 36 36-16.2 36-36S55.8 0 36 0zm2.3 11.7 9.3-5c5.1 2 9.6 5.3 13 9.6l-2.2 10.2-7.1 3.5-13-9.5v-8.8zm-13.8-5 9.3 5v8.8l-13 9.5-7.1-3.5-2.2-10.2c3.4-4.3 7.9-7.6 13-9.6zM10 53.8c-3-4.4-4.9-9.4-5.4-14.7l7.6-8.3 6.9 3.4L24.5 49 20 54.3l-10-.5zm34 12.6c-2.6.7-5.3 1.1-8 1.1-3.4 0-6.6-.5-9.6-1.5l-2.8-8.8 4.5-5.4H44l4.4 5.2-4.4 9.4zm7.9-12.2L47.6 49l5.3-14.9 6.9-3.4 7.6 8.3c-.5 4.6-1.9 9-4.3 12.9l-11.2 2.3z" style="fill-rule:evenodd;clip-rule:evenodd;fill:#fff"/></svg>