<?xml version="1.0" encoding="utf-8"?>
<!-- Generator: Adobe Illustrator 26.0.0, SVG Export Plug-In . SVG Version: 6.00 Build 0)  -->
<svg version="1.1" id="圖層_1" xmlns="http://www.w3.org/2000/svg" xmlns:xlink="http://www.w3.org/1999/xlink" x="0px" y="0px"
	 viewBox="0 0 248 72" style="enable-background:new 0 0 248 72;" xml:space="preserve">
<style type="text/css">
	.st0{fill:#0D2B5B;}
	.st1{fill:#FFFFFF;}
	.st2{fill:#FDD213;}
</style>
<rect x="143.9" y="27.7" class="st0" width="0" height="0"/>
<g>
	<path class="st1" d="M35.8,39.5c-2.6,0-4.5,0.6-6.3,1.9c-1.5,0.9-2.7,2.2-3.8,3.9h-0.1c-1.3-3.4-4.5-5.7-8.6-5.7
		c-5.2,0-8.1,2.9-9.6,5.3H7.1l-0.3-4.6H0c0.2,2.7,0.3,5.7,0.3,9.2v21.8h7.7V52.9c0-0.9,0.1-1.8,0.4-2.6c0.7-2.2,2.7-4.5,5.6-4.5
		c3.7,0,5.4,3.1,5.4,7.4v18h7.7V52.7c0-0.9,0.2-1.8,0.4-2.6c0.8-2.2,2.8-4.2,5.5-4.2c3.8,0,5.6,3.1,5.6,8.2v17.2h7.7V53
		C46.2,43,41,39.5,35.8,39.5z"/>
	<path class="st1" d="M76.1,52.6c0-6.8-2.9-13.1-12.9-13.1c-4.9,0-9,1.3-11.3,2.7l1.5,5.1c2.1-1.3,5.3-2.3,8.4-2.3
		c5.5,0,6.3,3.4,6.3,5.4V51c-11.5-0.1-18.5,3.9-18.5,11.7c0,4.7,3.5,9.2,9.8,9.2c4,0,7.3-1.7,9.2-4.1H69l0.5,3.4h7.1
		c-0.3-1.9-0.4-4.7-0.4-7.5L76.1,52.6z M68.5,60.4c0,0.6-0.1,1.2-0.3,1.7c-0.7,2.2-3,4.3-6.1,4.3c-2.5,0-4.5-1.4-4.5-4.5
		c0-4.7,5.3-5.9,10.9-5.8h0V60.4z"/>
	<path class="st1" d="M98.7,39.5c-5.2,0-8.6,2.9-9.9,5.4h-0.2l-0.4-4.7h-6.9c0.2,2.7,0.3,5.7,0.3,9.2l0,0l0,21.8h7.9V53
		c0-0.9,0.1-1.8,0.3-2.5c0.8-2.4,3-4.6,6.1-4.6c4.3,0,6,3.4,6,7.9v17.5h7.9V52.9C109.8,43,104.2,39.5,98.7,39.5z"/>
	<path class="st1" d="M143.9,27.7h-7.9v15.9h-0.1c-1.4-2.3-4.5-4.1-8.8-4.1c-7.5,0-14,6.2-14,16.6c0,9.6,5.9,15.9,13.3,15.9
		c4.5,0,8.3-2.2,10.2-5.6h0.1l0.3,4.9h7c-0.1-2.1-0.3-5.6-0.3-8.7V27.7z M136.1,57.8c0,0.8-0.1,1.6-0.3,2.3
		c-0.8,3.4-3.6,5.6-6.8,5.6c-5,0-7.8-4.2-7.8-9.8c0-5.8,2.8-10.3,7.9-10.3c3.6,0,6.1,2.5,6.8,5.5c0.1,0.6,0.2,1.4,0.2,2h0V57.8z"/>
	<rect x="149.5" y="40.2" class="st1" width="7.9" height="31.1"/>
	<path class="st1" d="M178.6,40.2c-3.3,0-7,1.5-8.5,5.9h-0.3l-0.3-5.9h-6.8c0.2,2.8,0.3,5.8,0.3,10v21.1h7.9V55.2
		c0-0.8,0.1-1.6,0.3-2.4c0.7-3.5,3.3-5.9,7-5.9c0.8,0,1.5,0.1,2.3,0.3v-6.9C179.9,40.1,179.4,40.2,178.6,40.2z"/>
	<rect x="184.1" y="40.2" class="st1" width="7.9" height="31.1"/>
</g>
<path class="st2" d="M241.5,7.4c-3.9-4.5-8.1-2.4-11.4-0.8c-1.4,0.7-11.5,6.4-11.5,6.4c-5.5,2.3-9.8-0.2-11.5-2.3
	c-0.2-0.2-0.3-0.4-0.4-0.6l-0.4-0.7c-0.7-1.1-1.4-2.2-2.2-3.3c-0.5-0.6-1-1.2-1.6-1.8c-3.8-3.8-9.8-6.5-19.9-1.6
	c-4.8,2.8-20.3,11.6-20.3,11.6c-5.9,2.4-10.3-0.5-11.8-2.7c-0.1-0.1-0.1-0.2-0.2-0.3L150,11l-1-1.6c-0.4-0.7-0.9-1.4-1.4-2
	c-0.5-0.6-1-1.2-1.6-1.8c-3.8-3.8-9.8-6.4-19.8-1.7c-6.1,3.4-20.1,11.5-20.1,11.5l0,0l-10.3,5.9l5.3,6.5c2.2,2.1,6.5,5.6,13,2.7
	c0,0,18-10.4,18.1-10.4c15.4-8.4,23-0.4,26.3,5c0.1,0.2,0.2,0.3,0.3,0.5l0,0c0,0.1,0.1,0.1,0.1,0.2l0.4,0.6c1.6,2.5,4.2,4.1,7.3,4
	c1.7,0,2.8-0.6,4.5-1.5l17.4-10.1l0,0c15.6-8.5,23.3,0,26.6,5.4c0.3,0.5,0.5,0.9,0.8,1.3c1.6,2.2,3.9,3.7,6.7,3.6
	c1.9,0,4-1.2,4.3-1.4l20.9-12C248,15.6,245.9,12.4,241.5,7.4L241.5,7.4z"/>
</svg>
