<?xml version="1.0" encoding="utf-8"?>
<!-- Generator: Adobe Illustrator 26.0.0, SVG Export Plug-In . SVG Version: 6.00 Build 0)  -->
<svg version="1.1" id="Layer_1" xmlns="http://www.w3.org/2000/svg" xmlns:xlink="http://www.w3.org/1999/xlink" x="0px" y="0px"
	 viewBox="0 0 262 72" style="enable-background:new 0 0 262 72;" xml:space="preserve">
<style type="text/css">
	.st0{fill:#FFFFFF;}
	.st1{fill:#EE3124;}
	.st2{fill:#820024;}
</style>
<rect class="st0" width="262" height="72"/>
<rect x="1" y="1" class="st1" width="260" height="70"/>
<rect x="16.9" y="17.9" class="st0" width="36.2" height="36.2"/>
<polygon class="st1" points="41.1,24.8 21.8,24.8 30.3,36 49.5,36 "/>
<polygon class="st2" points="49.5,36 30.3,36 21.8,47.2 41.1,47.2 "/>
<g>
	<path class="st0" d="M75.6,28.2c1.8,0,3.5,0.6,4.9,1.7l0.1,0.1l3.3-3.3l-0.1-0.1c-2.3-2-5.2-3.1-8.2-3.1c-7,0-12.7,5.6-12.7,12.5
		c0,6.9,5.7,12.5,12.7,12.5c3,0,5.9-1.1,8.2-3.1l0.1-0.1l-3.4-3.2c-1.4,1.1-3.1,1.7-4.9,1.7c-4.3,0-7.7-3.4-7.7-7.8
		C67.9,31.6,71.2,28.2,75.6,28.2z"/>
	<rect x="88.4" y="24.2" class="st0" width="4.8" height="23.7"/>
	<path class="st0" d="M112.1,39.3c-0.2-0.3-8.4-15.2-8.4-15.2H99v23.7h4.8c0,0,0-13.5,0-14.1c0.3,0.6,8.3,14.3,8.3,14.3
		s7.8-13.7,8.2-14.3c0,0.7,0,14.1,0,14.1h4.8V24.2h-4.7C120.4,24.1,112.2,39,112.1,39.3z"/>
	<path class="st0" d="M144.9,35.7c1-0.6,2.8-2.2,2.8-4.9c0-4.2-2.8-6.7-7.3-6.7h-9.5v23.7h10c4.5,0,7.3-2.6,7.3-6.9
		C148,37.8,146.1,36.3,144.9,35.7z M135.5,28.4c0.2,0,4.4,0,4.4,0c1.9,0,2.9,0.9,2.9,2.6c0,1.6-1.1,2.6-2.9,2.6c0,0-4.2,0-4.4,0
		V28.4z M140.2,43.6c0,0-4.5,0-4.7,0V38c0.2,0,4.7,0,4.7,0c2.2,0,3,1.4,3,2.8C143.2,42.1,142.4,43.6,140.2,43.6z"/>
</g>
<g>
	<path class="st0" d="M166.5,47.8h-9.2V24.1h9c4.1,0,7,2.4,7,6.3c0,2.5-1.5,4.4-3.5,5.2c2.3,0.9,3.8,2.8,3.8,5.6
		C173.6,45.5,170.8,47.8,166.5,47.8z M166.1,26.4h-6.2v8.2h6.2c2.6,0,4.7-1.3,4.7-4.1C170.7,27.7,168.7,26.4,166.1,26.4z
		 M166.4,36.9h-6.5v8.7h6.5c2.9,0,4.8-1.7,4.8-4.3C171.2,38.5,169.3,36.9,166.4,36.9z"/>
	<path class="st0" d="M178.5,47.8h-2.8l10.2-23.5h2.3l10.2,23.5h-2.8l-2.6-6.2h-12L178.5,47.8z M182,39.4h10.2l-5.1-12.3L182,39.4z"
		/>
	<polygon class="st0" points="218.8,44.2 218.8,44.2 218.9,24.2 221.3,24.2 221.3,47.8 218.3,47.8 204.2,27.7 204.1,27.7 
		204.1,47.8 201.8,47.8 201.8,24.2 204.7,24.2 	"/>
	<polygon class="st0" points="229.5,34.5 229.5,34.5 229.9,34.5 241,24.2 244.4,24.2 232.5,34.9 245.1,47.8 241.6,47.8 230,35.7 
		229.6,35.7 229.6,47.8 227.2,47.8 227.2,24.2 229.6,24.2 229.6,34.5 	"/>
</g>
</svg>
