<?xml version="1.0" encoding="utf-8"?>
<!-- Generator: Adobe Illustrator 26.0.0, SVG Export Plug-In . SVG Version: 6.00 Build 0)  -->
<svg version="1.1" id="katman_1" xmlns="http://www.w3.org/2000/svg" xmlns:xlink="http://www.w3.org/1999/xlink" x="0px" y="0px"
	 viewBox="0 0 230 72" style="enable-background:new 0 0 230 72;" xml:space="preserve">
<style type="text/css">
	.st0{fill:#FFFFFF;}
</style>
<g>
	<path class="st0" d="M125.3,34.3c3.7-1.8,6.7-4.6,8.7-8.1c2-3.5,2.6-7.3,1.9-10.6c-0.6-2.8-2.2-5.2-4.6-6.8
		c-2.7-1.9-6.2-2.8-10.6-2.8H96.6l-9.1,17.9h4.3L81.2,65.2h28.1c0.1,0,0.1,0,0.2,0c5.4,0,10.4-1.7,14.4-4.9
		c3.6-2.9,6.2-6.9,7.3-11.1c0.7-3.1,0.6-6.1-0.4-8.6C129.8,37.8,127.9,35.7,125.3,34.3z M105.1,40.8h6.4c2.7,0.5,4.1,2,3.8,4
		c-0.3,2.3-2.9,4.9-5.7,4.9c-0.1,0-0.2,0-0.3,0l-6.6,0L105.1,40.8z M107.9,29.7l1.6-7.6h6.3c2,0.5,2.9,1.6,2.6,3.1
		c-0.4,2.2-3.1,4.7-5,4.5L107.9,29.7z"/>
	<path class="st0" d="M227.1,6h-28.4l-9.2,17.3h4.6l-21.1,41.9h21l4.2-10.1h12.1l0.3,10.1H230L227.1,6z M210.4,26.2l0.3,14.7h-6.5
		L210.4,26.2z"/>
	<path class="st0" d="M178.5,46.6c-5.6,3.7-14.7,5.9-20.6,2.9c-3.8-2-5.9-5.8-6.2-11.4c0.7-6.1,4.2-10.8,9.8-13.1
		c6.4-2.6,14-1.3,19.8,3.5l0.3,0.2l9.4-16.5l-12.7-6.6l-1.6,2c-3.9-1.8-14.9-1.1-24.7,4.4c-8.1,4.5-17.9,13.6-19.1,31.5l0,0l0,0
		c0.4,9.5,4.2,16.2,11.2,20.1c5.2,2.8,11.1,3.5,15.3,3.5c0.2,0,0.4,0,0.6,0c5-0.1,8.9-1,9.9-1.6l0.1,0l9.3-19.2L178.5,46.6z"/>
	<path class="st0" d="M23.7,60.6L23.7,60.6l-0.3,1.3c0.5,0,1.2,0.5,1.5-0.3C24.9,61.1,24.9,60.6,23.7,60.6z"/>
	<path class="st0" d="M34.6,61.8L34.6,61.8l-0.2,1.5c0.5-0.1,1.2,0.4,1.5-0.6C35.8,61.9,35.2,61.8,34.6,61.8z"/>
	<polygon class="st0" points="52.4,62.1 53.5,61.8 52.3,60.2 	"/>
	<path class="st0" d="M43.2,61.8c-0.1-0.4-0.4-0.7-1.3-0.4l0.3,1.5C43,62.7,43.3,62.3,43.2,61.8z"/>
	<path class="st0" d="M42.5,64l0.2,1.5c0.6,0,1.1-0.3,0.9-1C43.6,63.8,43,63.9,42.5,64z"/>
	<path class="st0" d="M65.3,7C46.7-2.4,24.6-2.1,6.9,6.6c-9.1,16-9.4,38.4,0,58.2c19.5,9.8,41,9.2,58.5,0.4
		C73.6,48.4,75,28.1,65.3,7L65.3,7z M20.3,60.7l-0.8-0.2c0,0,0.1-0.2,0.1-0.6c0.1-0.4-1-0.8-1.3-0.4h0c-0.3,0.4-0.9,1.8-1,2.9
		c-0.1,1.2,1,0.9,1.3,0.8c0.2-0.1,0.4-1,0.4-1l-0.8-0.3l0.3-0.8l1.8,0.6l-0.8,2.9l-0.7-0.2l0.1-0.5c-0.9,0.4-2.5,0.1-2.7-0.9
		c-0.2-0.8,0.4-3.3,1.3-4.4c0.9-1.1,3.1,0,3.1,0.7C20.5,59.9,20.3,60.7,20.3,60.7z M25.1,62.8c0.7,0.7,0,2,0,3h0L24,65.6
		c0.1-0.9,1.2-2.7-0.9-2.7l-0.6,2.4L21.4,65l1.3-5.7c3.1,0.3,3.4,1.2,3.4,2.1C25.9,62.2,25.7,62.7,25.1,62.8z M31.2,65.2
		c-0.4,2-3.4,1.7-3.8-0.2l0.5-4.8l1.1,0.2l-0.5,4c0.1,1.3,1.4,1.2,1.6,0.3l0.5-4.2l0.9,0.1L31.2,65.2z M31.7,54.8h-1.3
		c-2.5-7.6-9.5-1.6-15.1-3.6c-3.5-1.3-6.1-6.7-2.9-11.4c1.6,3.2,11.3,3.7,14.7,6.1C32.5,49.8,31.7,54.8,31.7,54.8z M30.3,47.3
		c-7.1-8.9-21.7-2.2-18-17.4c1.9-7.8,24.2-12.3,21.6,24.9l-1.1,0C32.6,51.8,31.9,49.2,30.3,47.3z M36.9,62.6
		c-0.1,2.1-1.8,1.6-2.6,1.6v0l-0.2,2.5l-0.9,0l0.3-6C35.7,60.8,36.9,61.1,36.9,62.6z M36.5,54.8L36.5,54.8H35
		c-0.1-5.2,0.9-14.6-1.9-21.6c-2.1-5.3-7.3-7.7-8.4-11.9C22.9,14.5,26,7.2,36.5,6.7c9.1,0.9,11.9,7.9,10.3,14.4
		c-2.7,6.5-5.3,5.6-8.6,12.1C35.4,40.1,36.5,49.3,36.5,54.8z M37.4,54.9c-0.1-8.7-0.2-14.9,1.4-19.4c5.3-14.9,17.4-12.3,20.1-5.6
		c3.7,13.4-8.2,9.8-15.8,15.3c-2.9,2.5-4.4,5.4-4.4,9.7H37.4z M44.1,66l-2.4,0.5l-0.9-5.8c0.5-0.1,2.9-1,3.5,0.6
		c0.3,1,0,1.3-0.4,1.7c0.6,0.2,0.9,0.7,1,1.3h0C45,65.3,44.7,65.8,44.1,66z M48.6,65.6c-1.5,0.1-1.8-0.2-2.2-2.2
		c-0.2-1.7-0.7-3.5,0.8-3.8c2.3-0.4,2.2,0.7,2.4,1.4l-1,0.2c-0.2-0.6-0.4-0.9-0.9-0.8c-0.5,0.2-0.7,0.6-0.6,1.2v0l0.5,2.8
		c0.3,0.6,0.5,0.5,1,0.5c0.6-0.4,0.5-0.8,0.4-1.4l1-0.1C50.3,65.2,49.3,65.4,48.6,65.6z M54.7,63.9l-1-1.4l-1.1,0.4l0.1,1.5h0
		l-1,0.3l-0.3-6l1.2-0.3l2.9,5L54.7,63.9z M57.8,50.2c-6.9,4.9-13.4-3.6-17,4.6h-1.2c1-13.3,17.7-10.4,19.2-15
		C61.5,44.4,60.6,48.2,57.8,50.2z"/>
</g>
</svg>
