<?xml version="1.0" encoding="utf-8"?>
<!-- Generator: Adobe Illustrator 26.0.0, SVG Export Plug-In . SVG Version: 6.00 Build 0)  -->
<svg version="1.1"
	 id="svg2" inkscape:output_extension="org.inkscape.output.svg.inkscape" sodipodi:version="0.32" xmlns:cc="http://creativecommons.org/ns#" xmlns:dc="http://purl.org/dc/elements/1.1/" xmlns:inkscape="http://www.inkscape.org/namespaces/inkscape" xmlns:rdf="http://www.w3.org/1999/02/22-rdf-syntax-ns#" xmlns:sodipodi="http://sodipodi.sourceforge.net/DTD/sodipodi-0.dtd" xmlns:svg="http://www.w3.org/2000/svg"
	 xmlns="http://www.w3.org/2000/svg" xmlns:xlink="http://www.w3.org/1999/xlink" x="0px" y="0px" viewBox="0 0 246 72"
	 style="enable-background:new 0 0 246 72;" xml:space="preserve">
<style type="text/css">
	.st0{fill-rule:evenodd;clip-rule:evenodd;fill:#F15A23;}
	.st1{fill-rule:evenodd;clip-rule:evenodd;fill:#FFFFFF;}
</style>
<defs>
	
		<inkscape:perspective  id="perspective10" inkscape:persp3d-origin="372.04724 : 350.78739 : 1" inkscape:vp_x="0 : 526.18109 : 1" inkscape:vp_y="0 : 1000 : 0" inkscape:vp_z="744.09448 : 526.18109 : 1" sodipodi:type="inkscape:persp3d">
		</inkscape:perspective>
	
		<inkscape:perspective  id="perspective2390" inkscape:persp3d-origin="372.04724 : 350.78739 : 1" inkscape:vp_x="0 : 526.18109 : 1" inkscape:vp_y="0 : 1000 : 0" inkscape:vp_z="744.09448 : 526.18109 : 1" sodipodi:type="inkscape:persp3d">
		</inkscape:perspective>
</defs>
<sodipodi:namedview  bordercolor="#666666" borderopacity="1.0" gridtolerance="10000" guidetolerance="10" id="base" inkscape:current-layer="layer3" inkscape:cx="17.826014" inkscape:cy="84.534186" inkscape:document-units="px" inkscape:guide-bbox="true" inkscape:pageopacity="0.0" inkscape:pageshadow="2" inkscape:window-height="712" inkscape:window-width="1024" inkscape:window-x="0" inkscape:window-y="22" inkscape:zoom="1.01" objecttolerance="10" pagecolor="#ffffff" showgrid="false" showguides="false">
	<sodipodi:guide  id="guide3189" orientation="0,1" position="671.42857,48.571429"></sodipodi:guide>
	<sodipodi:guide  id="guide3191" orientation="1,0" position="17.142857,557.14286"></sodipodi:guide>
	<sodipodi:guide  id="guide3193" orientation="1,0" position="500,457.14286"></sodipodi:guide>
	<sodipodi:guide  id="guide3210" orientation="0,1" position="153.22581,353.22581"></sodipodi:guide>
	<sodipodi:guide  id="guide3212" orientation="0,1" position="167.74194,169.35484"></sodipodi:guide>
	<sodipodi:guide  id="guide3214" orientation="1,0" position="162.90323,138.70968"></sodipodi:guide>
	<sodipodi:guide  id="guide3216" orientation="1,0" position="185.48387,116.12903"></sodipodi:guide>
	<sodipodi:guide  id="guide3218" orientation="0,1" position="275.80645,140.32258"></sodipodi:guide>
	<sodipodi:guide  id="guide3220" orientation="1,0" position="211.57895,205.26316"></sodipodi:guide>
	<sodipodi:guide  id="guide3222" orientation="0,1" position="279.03226,208.06452"></sodipodi:guide>
	<sodipodi:guide  id="guide3224" orientation="1,0" position="238.61598,543.54318"></sodipodi:guide>
	<sodipodi:guide  id="guide3226" orientation="0,1" position="238.94737,177.89474"></sodipodi:guide>
	<sodipodi:guide  id="guide3228" orientation="1,0" position="262.25792,241.24367"></sodipodi:guide>
	<sodipodi:guide  id="guide3232" orientation="1,0" position="285.48387,324.19355"></sodipodi:guide>
	<sodipodi:guide  id="guide3234" orientation="0,1" position="290.52632,220.52632"></sodipodi:guide>
	<sodipodi:guide  id="guide3236" orientation="1,0" position="372.58065,112.90323"></sodipodi:guide>
	<sodipodi:guide  id="guide3238" orientation="0,1" position="420.96774,80.645161"></sodipodi:guide>
	<sodipodi:guide  id="guide3246" orientation="1,0" position="169.35484,417.74194"></sodipodi:guide>
	<sodipodi:guide  id="guide3252" orientation="1,0" position="191.93548,362.90323"></sodipodi:guide>
	<sodipodi:guide  id="guide3254" orientation="0,1" position="361.29032,67.741935"></sodipodi:guide>
	<sodipodi:guide  id="guide3256" orientation="0,1" position="425.80645,158.06452"></sodipodi:guide>
	<sodipodi:guide  id="guide3258" orientation="0,1" position="975.53831,328.65729"></sodipodi:guide>
	<sodipodi:guide  id="guide3260" orientation="0,1" position="506.45161,461.29032"></sodipodi:guide>
	<sodipodi:guide  id="guide3268" orientation="1,0" position="248.78049,391.46341"></sodipodi:guide>
	<sodipodi:guide  id="guide3276" orientation="1,0" position="296.1039,429.87013"></sodipodi:guide>
	<sodipodi:guide  id="guide3280" orientation="1,0" position="222.15071,538.71548"></sodipodi:guide>
	<sodipodi:guide  id="guide3282" orientation="0,1" position="553.0341,379.99889"></sodipodi:guide>
	<sodipodi:guide  id="guide3284" orientation="0,1" position="569.99834,191.69587"></sodipodi:guide>
	<sodipodi:guide  id="guide3286" orientation="0,1" position="481.63265,186.39456"></sodipodi:guide>
	<sodipodi:guide  id="guide3288" orientation="1,0" position="464.82007,320.62406"></sodipodi:guide>
	<sodipodi:guide  id="guide3290" orientation="0,1" position="474.14966,421.76871"></sodipodi:guide>
	<sodipodi:guide  id="guide3292" orientation="1,0" position="408.83809,449.55226"></sodipodi:guide>
	<sodipodi:guide  id="guide3294" orientation="1,0" position="325,368.60465"></sodipodi:guide>
	<sodipodi:guide  id="guide3296" orientation="0,1" position="439.37372,340.98115"></sodipodi:guide>
	<sodipodi:guide  id="guide3302" orientation="0,1" position="447.85584,402.0524"></sodipodi:guide>
	<sodipodi:guide  id="guide3365" orientation="0,1" position="493.36493,183.88626"></sodipodi:guide>
	<sodipodi:guide  id="guide3367" orientation="0,1" position="525.5295,198.72482"></sodipodi:guide>
	<sodipodi:guide  id="guide3221" orientation="0,1" position="795.87834,289.6832"></sodipodi:guide>
	<sodipodi:guide  id="guide3223" orientation="0,1" position="801.13166,102.06455"></sodipodi:guide>
	<sodipodi:guide  id="guide3233" orientation="0,1" position="999.01383,320.83212"></sodipodi:guide>
	<sodipodi:guide  id="guide3239" orientation="0,1" position="816.42645,63.905584"></sodipodi:guide>
	<inkscape:grid  enabled="true" id="grid2447" type="xygrid" visible="true"></inkscape:grid>
	<sodipodi:guide  id="guide2449" orientation="0,1" position="355.05222,528.92338"></sodipodi:guide>
	<sodipodi:guide  id="guide2451" orientation="1,0" position="1055.364,541.15914"></sodipodi:guide>
	<sodipodi:guide  id="guide2459" orientation="1,0" position="1426.5038,261.24924"></sodipodi:guide>
	<sodipodi:guide  id="guide2463" orientation="0,1" position="1444.1277,489.32397"></sodipodi:guide>
	<sodipodi:guide  id="guide2465" orientation="1,0" position="1390.2192,450.96595"></sodipodi:guide>
	<sodipodi:guide  id="guide2467" orientation="1,0" position="1479.3756,393.94726"></sodipodi:guide>
	<sodipodi:guide  id="guide2469" orientation="1,0" position="1522.9172,469.62661"></sodipodi:guide>
	<sodipodi:guide  id="guide2471" orientation="0,1" position="1194.2822,413.64463"></sodipodi:guide>
	<sodipodi:guide  id="guide3245" orientation="0,1" position="1498.0363,23.844176"></sodipodi:guide>
	<sodipodi:guide  id="guide3247" orientation="1,0" position="1170.4381,453.03935"></sodipodi:guide>
	<sodipodi:guide  id="guide3251" orientation="1,0" position="1147.6306,279.9099"></sodipodi:guide>
	<sodipodi:guide  id="guide3255" orientation="1,0" position="1183.9152,164.83583"></sodipodi:guide>
	<sodipodi:guide  id="guide3257" orientation="1,0" position="1090.6119,273.68968"></sodipodi:guide>
	<sodipodi:guide  id="guide3259" orientation="1,0" position="1597.2377,490.9318"></sodipodi:guide>
	<sodipodi:guide  id="guide3261" orientation="1,0" position="1744.9275,481.35931"></sodipodi:guide>
	<sodipodi:guide  id="guide3263" orientation="1,0" position="1634.1602,366.48948"></sodipodi:guide>
	<sodipodi:guide  id="guide3265" orientation="1,0" position="1705.2701,359.65198"></sodipodi:guide>
	<sodipodi:guide  id="guide3269" orientation="1,0" position="620.84411,448.53936"></sodipodi:guide>
	<sodipodi:guide  id="guide3271" orientation="1,0" position="659.13406,343.24201"></sodipodi:guide>
	<sodipodi:guide  id="guide3273" orientation="1,0" position="737.08144,340.50701"></sodipodi:guide>
	<sodipodi:guide  id="guide3275" orientation="1,0" position="887.50623,326.83203"></sodipodi:guide>
	<sodipodi:guide  id="guide3277" orientation="1,0" position="934.00116,299.48207"></sodipodi:guide>
	<sodipodi:guide  id="guide3279" orientation="1,0" position="959.98363,350.0795"></sodipodi:guide>
	<sodipodi:guide  id="guide3281" orientation="1,0" position="1006.4786,255.72213"></sodipodi:guide>
	<sodipodi:guide  id="guide3285" orientation="1,0" position="839.6438,207.8597"></sodipodi:guide>
	<sodipodi:guide  id="guide3287" orientation="1,0" position="825.96882,343.24201"></sodipodi:guide>
	<sodipodi:guide  id="guide3289" orientation="0,1" position="845.11379,477.25682"></sodipodi:guide>
</sodipodi:namedview>
<path id="path3242" class="st0" d="M0,25l20.8,26.2L0,68.5V25L0,25z"/>
<path id="path3244" class="st0" d="M8.4,68.5L24,55.4l10.8,13.1H8.4z"/>
<path id="path3248" sodipodi:nodetypes="ccccsccc" class="st0" d="M0,11l5.4,6.9l22.3,27.9l7.2-5.8c0,0-6-7.1-10-14.9
	c-7.9-15.4-2.3-25-2.3-25H0V11z"/>
<path id="path3250" sodipodi:nodetypes="ccsccccsc" class="st0" d="M30.9,50l7.3-6.1c0,0,7,9.2,15.2,11.4
	c10.7,2.9,15.4-4.1,15.4-4.1v17.2H45.3l5.3-4.6c0,0-2.8,1.8-9.5-2.8C37.1,58.3,30.9,50,30.9,50z"/>
<path id="path3262" sodipodi:nodetypes="cscsccc" class="st0" d="M31.5,0c0,0-2.3,3.2-0.7,11c1.8,8.4,8.9,17.2,8.9,17
	c0,0,0.5-8.8,5.6-13.9c11-11,23.4-4.4,23.4-4.4V0.1L31.5,0z"/>
<path id="path3298" sodipodi:nodetypes="ccsscc" class="st0" d="M68.7,21.2c0,0-6.9-6-13-6c-7.7,0-11.9,6.7-11.9,11.5
	c0,7.1,3.4,11,6.8,14.4c4.9,4.9,10.8,10.1,18.1,5.9C68.7,39,68.7,21.2,68.7,21.2z"/>
<path id="path3249" sodipodi:nodetypes="cczccccscscsccssc" class="st1" d="M147.8,0.7h16.4c0,0,14.5,22,21.6,31.1
	c7.1,9.1,14.8,19.4,14.8,19.4s0-30,0-45.6c0-2-5.2-4.9-5.2-4.9h18.9c0,0-6.2,2.6-6.2,4.9c0,19.4,0,66.4,0,66.4s-5.9-3.3-12.7-11.2
	C187.9,52,161,16.4,161,16.4s0,33.6,0,46.1c0,2.4,5.2,5.9,5.2,5.9h-18.3c0,0,5-3.6,5-5.9c0-16.8,0-41.3,0-56.9
	C152.8,3.6,147.8,0.7,147.8,0.7z"/>
<path id="path3267" sodipodi:nodetypes="ccssccssc" class="st1" d="M225,0.7h21c0,0-5.6,2.7-5.6,4.9c0,15.6,0,41.4,0,56.9
	c0,2.5,5.6,5.9,5.6,5.9h-21c0,0,5.3-3.6,5.3-5.9c0-18.6,0-41.3,0-56.9C230.2,3.5,225,0.7,225,0.7z"/>
<path id="path3283" class="st1" d="M86,0.7c0,0,5.5,2.7,5.5,4.9c0,15.6,0,38.3,0,56.9c0,2.4-5.5,5.9-5.5,5.9l0,0c0,0,27.2,0,31.2,0
	c1.9,0,23.8-3.6,23.8-20.4s-16.9-18.4-16.9-18.4s10.3-2.9,10.3-14.4c0-12.4-15.2-14.6-17.1-14.6C113.1,0.7,86,0.7,86,0.7z
	 M102.5,28.5V7.4c0,0,9,0,12.7,0c1.9,0,8.8,2.3,8.8,10.7c0,7-6.8,10.5-8.8,10.5C110.7,28.5,102.5,28.5,102.5,28.5z M102.5,34.1
	c0,0,12.7,0,14.6,0s13.4,3,13.4,13c0,10.2-11.5,13.8-13.4,13.8s-14.6,0-14.6,0V34.1z"/>
</svg>
