<?xml version="1.0" encoding="utf-8"?>
<!-- Generator: Adobe Illustrator 26.0.0, SVG Export Plug-In . SVG Version: 6.00 Build 0)  -->
<svg version="1.1" id="圖層_1" xmlns="http://www.w3.org/2000/svg" xmlns:xlink="http://www.w3.org/1999/xlink" x="0px" y="0px"
	 viewBox="0 0 72 72" style="enable-background:new 0 0 72 72;" xml:space="preserve">
<style type="text/css">
	.st0{fill-rule:evenodd;clip-rule:evenodd;fill:#E1306C;}
	.st1{fill:#FFFFFF;}
</style>
<circle class="st0" cx="36" cy="36" r="36"/>
<g>
	<path class="st1" d="M56.9,27.3c-0.3-7.4-4.3-11.8-12.2-12.2c-3.9-0.2-13.4-0.2-17.3,0c-3.4,0.2-6.4,1-8.8,3.4
		c-3.1,3.1-3.5,7-3.5,12.1v1.7c0,1.2,0,2.4,0,3.6c0,8.2-0.5,13.5,3.5,17.5C22.6,57.5,28.1,57,36,57h1.8c6.7,0,9.3-0.1,11.9-1.1
		c3.9-1.5,6.8-5,7.1-11.2C57,40.8,57,31.2,56.9,27.3z M50.8,50.8c-2.5,2.5-6,2.4-13.9,2.4h-4.4c-6.3,0-9.2-0.2-11.4-2.4
		c-2.9-2.9-2.4-7.6-2.4-14.8c0-9.7-1-16.6,8.7-17.1l1.3,0l0.5,0c1,0,2.2,0,4.6,0h2l0,0l0.1,0.1c9.3,0,16.6-1,17.1,8.7l0,1.1l0,0.5
		c0,1.6,0.1,3.2,0.1,4.9v3.8C53.2,45.1,53.2,48.4,50.8,50.8z"/>
	<path class="st1" d="M36,25.2c-6,0-10.8,4.8-10.8,10.8S30.1,46.8,36,46.8S46.8,41.9,46.8,36S42,25.2,36,25.2z M36,43
		c-3.9,0-7-3.1-7-7c0-3.9,3.1-7,7-7l0,0c3.9,0,7,3.1,7,7S39.9,43,36,43z"/>
	<path class="st1" d="M47.2,22.3c1.4,0,2.6,1,2.6,2.4c0,1.4-1,2.6-2.4,2.6c-0.1,0-0.1,0-0.2,0c-1.4,0-2.5-1.1-2.5-2.5
		C44.7,23.4,45.8,22.3,47.2,22.3L47.2,22.3z"/>
</g>
</svg>
