<?xml version="1.0" encoding="utf-8"?>
<!-- Generator: Adobe Illustrator 26.0.0, SVG Export Plug-In . SVG Version: 6.00 Build 0)  -->
<svg version="1.1" id="圖層_1" xmlns="http://www.w3.org/2000/svg" xmlns:xlink="http://www.w3.org/1999/xlink" x="0px" y="0px"
	 viewBox="0 0 72 72" style="enable-background:new 0 0 72 72;" xml:space="preserve">
<style type="text/css">
	.st0{fill:#4F57BF;}
	.st1{fill:#F5F5F5;}
	.st2{fill:#FF4B55;}
</style>
<polygon class="st0" points="45.3,49 45.3,72 72,72 72,66.8 "/>
<polygon class="st0" points="0,66.8 0,72 26.7,72 26.7,49 "/>
<polygon class="st0" points="72,5.2 72,0 45.3,0 45.3,23 "/>
<polygon class="st0" points="11.6,45.5 0,45.5 0,53.2 "/>
<polygon class="st0" points="26.7,23 26.7,0 0,0 0,5.2 "/>
<polygon class="st0" points="0,18.8 0,26.5 11.6,26.5 "/>
<polygon class="st0" points="72,53.2 72,45.5 60.4,45.5 "/>
<polygon class="st0" points="72,26.5 72,18.8 60.4,26.5 "/>
<polygon class="st1" points="0,5.2 0,11.4 23,26.5 16.1,26.5 0,15.9 0,18.8 11.6,26.5 0,26.5 0,30.3 30.4,30.3 30.4,0 26.7,0 
	26.7,23 "/>
<path class="st1" d="M-18,1.9c0-0.2,0-0.3,0.1-0.5C-18,1.6-18,1.7-18,1.9z"/>
<path class="st1" d="M-16.5,72c-0.1,0-0.1,0-0.2-0.1C-16.6,71.9-16.6,72-16.5,72z"/>
<polygon class="st1" points="72,30.3 72,26.5 60.4,26.5 72,18.8 72,13.4 52.2,26.5 45.3,26.5 72,8.9 72,5.2 45.3,23 45.3,0 41.6,0 
	41.6,30.3 "/>
<polygon class="st1" points="72,66.8 72,61.2 48.2,45.5 55.1,45.5 72,56.7 72,53.2 60.4,45.5 72,45.5 72,41.7 41.6,41.7 41.6,72 
	45.3,72 45.3,49 "/>
<polygon class="st1" points="0,41.7 0,45.5 11.6,45.5 0,53.2 0,58.5 19.7,45.5 26.6,45.5 0,63 0,66.8 26.7,49 26.7,72 30.4,72 
	30.4,41.7 "/>
<polygon class="st2" points="72,41.7 72,30.3 41.6,30.3 41.6,0 30.4,0 30.4,30.3 0,30.3 0,41.7 30.4,41.7 30.4,72 41.6,72 
	41.6,41.7 "/>
<path class="st2" d="M-16.7,71.9c0,0-0.1,0-0.1,0C-16.8,71.9-16.7,71.9-16.7,71.9z"/>
<path class="st2" d="M-16.1,72L-16.1,72c-0.1,0-0.2,0-0.4,0C-16.4,72-16.3,72-16.1,72z"/>
<polygon class="st2" points="26.6,45.5 19.7,45.5 0,58.5 0,63 "/>
<polygon class="st2" points="48.2,45.5 72,61.2 72,56.7 55.1,45.5 "/>
<path class="st2" d="M-17.9,1.4c0,0,0-0.1,0-0.1C-17.9,1.3-17.9,1.4-17.9,1.4z"/>
<polygon class="st2" points="23,26.5 0,11.4 0,15.9 16.1,26.5 "/>
<polygon class="st2" points="45.3,26.5 52.2,26.5 72,13.4 72,8.9 "/>
</svg>
