<?xml version="1.0" encoding="utf-8"?>
<!-- Generator: Adobe Illustrator 26.0.0, SVG Export Plug-In . SVG Version: 6.00 Build 0)  -->
<svg version="1.1" id="圖層_1" xmlns="http://www.w3.org/2000/svg" xmlns:xlink="http://www.w3.org/1999/xlink" x="0px" y="0px"
	 viewBox="0 0 72 72" style="enable-background:new 0 0 72 72;" xml:space="preserve">
<style type="text/css">
	.st0{fill:#464655;}
	.st1{fill:#FF4B55;}
	.st2{fill:#41479B;}
</style>
<path class="st0" d="M50.9,19l2.6,3.8c0.2,0.3,0.1,0.8-0.2,1l-0.6,0.4c-0.3,0.2-0.8,0.1-1-0.2l-2.6-3.8c-0.2-0.3-0.1-0.8,0.2-1
	l0.6-0.4C50.3,18.6,50.7,18.6,50.9,19z"/>
<path class="st0" d="M54.9,24.9l2.6,3.8c0.2,0.3,0.1,0.8-0.2,1l-0.6,0.4c-0.3,0.2-0.8,0.1-1-0.2l-2.6-3.8c-0.2-0.3-0.1-0.8,0.2-1
	l0.6-0.4C54.2,24.5,54.7,24.6,54.9,24.9z"/>
<path class="st0" d="M53.7,17.1l6.5,9.8c0.2,0.3,0.1,0.8-0.2,1l-0.7,0.4c-0.3,0.2-0.8,0.1-1-0.2l-6.5-9.8c-0.2-0.3-0.1-0.8,0.2-1
	l0.7-0.4C53,16.7,53.5,16.8,53.7,17.1z"/>
<path class="st0" d="M56.4,15.3l2.6,3.9c0.2,0.3,0.1,0.8-0.2,1l-0.6,0.4c-0.3,0.2-0.8,0.1-1-0.2l-2.6-3.8c-0.2-0.3-0.1-0.8,0.2-1
	l0.7-0.4C55.7,14.9,56.2,15,56.4,15.3z"/>
<path class="st0" d="M60.3,21.3l2.6,3.8c0.2,0.3,0.1,0.8-0.2,1L62,26.5c-0.3,0.2-0.8,0.1-1-0.2l-2.6-3.8c-0.2-0.3-0.1-0.8,0.2-1
	l0.6-0.4C59.7,20.8,60.1,20.9,60.3,21.3z"/>
<path class="st0" d="M16.4,42.1l6.5,9.8c0.2,0.3,0.1,0.8-0.2,1L22,53.2c-0.3,0.2-0.8,0.1-1-0.2l-6.5-9.8c-0.2-0.3-0.1-0.8,0.2-1
	l0.7-0.4C15.7,41.6,16.2,41.7,16.4,42.1z"/>
<path class="st0" d="M13.7,43.9l2.5,3.8c0.2,0.3,0.1,0.8-0.2,1l-0.6,0.4c-0.3,0.2-0.8,0.1-1-0.2l-2.6-3.8c-0.2-0.3-0.1-0.8,0.2-1
	l0.6-0.4C13,43.5,13.5,43.6,13.7,43.9z"/>
<path class="st0" d="M17.6,49.8l2.6,3.8c0.2,0.3,0.1,0.8-0.2,1L19.4,55c-0.3,0.2-0.8,0.1-1-0.2L15.8,51c-0.2-0.3-0.1-0.8,0.2-1
	l0.7-0.4C17,49.4,17.4,49.5,17.6,49.8z"/>
<path class="st0" d="M10.9,45.7l6.5,9.8c0.2,0.3,0.1,0.8-0.2,1l-0.6,0.4c-0.3,0.2-0.8,0.1-1-0.2l-6.5-9.8c-0.2-0.3-0.1-0.8,0.2-1
	l0.7-0.4C10.3,45.3,10.7,45.4,10.9,45.7z"/>
<path class="st0" d="M14.6,28.7l6.5-9.8c0.2-0.3,0.7-0.4,1-0.2l0.7,0.4c0.3,0.2,0.4,0.7,0.2,1l-6.5,9.8c-0.2,0.3-0.6,0.4-1,0.2
	l-0.6-0.4C14.4,29.5,14.4,29.1,14.6,28.7z"/>
<path class="st0" d="M11.8,26.9l6.5-9.8c0.2-0.3,0.7-0.4,1-0.2l0.6,0.4c0.3,0.2,0.4,0.7,0.2,1l-6.5,9.8c-0.2,0.3-0.7,0.4-1,0.2
	L12,27.9C11.7,27.7,11.6,27.2,11.8,26.9z"/>
<path class="st0" d="M9.1,25.1l6.5-9.8c0.2-0.3,0.7-0.4,1-0.2l0.6,0.4c0.3,0.2,0.4,0.7,0.2,1l-6.5,9.8c-0.2,0.3-0.7,0.4-1,0.2
	l-0.7-0.4C9,25.9,8.9,25.4,9.1,25.1z"/>
<path class="st0" d="M49.1,51.8l2.6-3.8c0.2-0.3,0.7-0.4,1-0.2l0.6,0.4c0.3,0.2,0.4,0.7,0.2,1L50.9,53c-0.2,0.3-0.7,0.4-1,0.2
	l-0.6-0.4C49,52.6,48.9,52.1,49.1,51.8z"/>
<path class="st0" d="M53.1,45.9l2.6-3.9c0.2-0.3,0.7-0.4,1-0.2l0.7,0.4c0.3,0.2,0.4,0.7,0.2,1L55,47c-0.2,0.3-0.6,0.4-1,0.2
	l-0.6-0.4C52.9,46.7,52.8,46.2,53.1,45.9z"/>
<path class="st0" d="M51.8,53.7l2.6-3.8c0.2-0.3,0.7-0.4,1-0.2l0.7,0.4c0.3,0.2,0.4,0.7,0.2,1l-2.6,3.8c-0.2,0.3-0.7,0.4-1,0.2
	L52,54.6C51.7,54.4,51.6,54,51.8,53.7z"/>
<path class="st0" d="M55.8,47.7l2.6-3.8c0.2-0.3,0.7-0.4,1-0.2l0.7,0.4c0.3,0.2,0.4,0.7,0.2,1l-2.6,3.8c-0.2,0.3-0.7,0.4-1,0.2
	L56,48.7C55.7,48.5,55.6,48,55.8,47.7z"/>
<path class="st0" d="M54.6,55.5l2.6-3.8c0.2-0.3,0.6-0.4,1-0.2l0.6,0.4c0.3,0.2,0.4,0.7,0.2,1l-2.6,3.8c-0.2,0.3-0.7,0.4-1,0.2
	l-0.7-0.4C54.4,56.2,54.4,55.8,54.6,55.5z"/>
<path class="st0" d="M58.5,49.6l2.6-3.8c0.2-0.3,0.7-0.4,1-0.2l0.6,0.4c0.3,0.2,0.4,0.7,0.2,1l-2.6,3.8c-0.2,0.3-0.6,0.4-1,0.2
	l-0.6-0.4C58.4,50.3,58.3,49.9,58.5,49.6z"/>
<path class="st1" d="M43.8,24.3c-6.5-4.3-15.2-2.5-19.5,3.9c-2.2,3.2-1.3,7.6,1.9,9.8s7.6,1.3,9.7-2c2.2-3.2,6.5-4.1,9.7-2
	c3.2,2.2,4.1,6.5,1.9,9.8C52,37.3,50.2,28.6,43.8,24.3"/>
<path class="st2" d="M24.3,28.2c-2.2,3.2-1.3,7.6,1.9,9.8s7.6,1.3,9.7-2c2.2-3.2,6.5-4.1,9.7-2c3.2,2.2,4.1,6.5,1.9,9.8
	c-4.3,6.5-13,8.2-19.5,3.9C21.8,43.4,20,34.7,24.3,28.2"/>
</svg>
