<?xml version="1.0" encoding="utf-8"?>
<!-- Generator: Adobe Illustrator 26.0.0, SVG Export Plug-In . SVG Version: 6.00 Build 0)  -->
<svg version="1.1" id="圖層_1" xmlns="http://www.w3.org/2000/svg" xmlns:xlink="http://www.w3.org/1999/xlink" x="0px" y="0px"
	 viewBox="0 0 72 72" style="enable-background:new 0 0 72 72;" xml:space="preserve">
<style type="text/css">
	.st0{fill-rule:evenodd;clip-rule:evenodd;fill:#FF4B55;}
	.st1{fill:#FFE15A;}
</style>
<rect class="st0" width="72" height="72"/>
<path class="st1" d="M21.4,20.9l1.7,5.4l5.5,0c0.7,0,1,1,0.4,1.4l-4.4,3.4l1.7,5.5c0.2,0.7-0.6,1.3-1.1,0.9l-4.5-3.3l-4.5,3.3
	c-0.6,0.4-1.4-0.2-1.1-0.9l1.7-5.5l-4.4-3.4c-0.6-0.4-0.3-1.4,0.4-1.4l5.5,0l1.7-5.4C20.2,20.2,21.2,20.2,21.4,20.9z"/>
<path class="st1" d="M41.4,22.2l1.2,1.8l2-0.7c0.3-0.1,0.5,0.2,0.3,0.5l-1.2,1.8l1.2,1.8c0.2,0.2-0.1,0.5-0.3,0.5l-2-0.7l-1.3,1.8
	c-0.2,0.2-0.5,0.1-0.5-0.2l0-2.2l-2-0.7c-0.3-0.1-0.3-0.5,0-0.6l2-0.7l0-2.2C40.9,22.1,41.2,22,41.4,22.2z"/>
<path class="st1" d="M33.8,16.9l2.1,0.2l0.9-2c0.1-0.3,0.5-0.2,0.5,0.1l0.4,2.1l2.1,0.3c0.3,0,0.3,0.4,0.1,0.6l-1.8,1.1l0.4,2.2
	c0.1,0.3-0.3,0.5-0.5,0.3l-1.6-1.5l-1.8,1.1c-0.2,0.1-0.5-0.1-0.4-0.4l0.9-2l-1.5-1.5C33.3,17.2,33.5,16.9,33.8,16.9z"/>
<path class="st1" d="M37.1,38.2L35.8,40l-2-0.7c-0.3-0.1-0.5,0.2-0.3,0.5l1.2,1.8l-1.2,1.8c-0.2,0.2,0.1,0.5,0.3,0.5l2-0.7l1.3,1.8
	c0.2,0.2,0.5,0.1,0.5-0.2l0-2.2l2-0.7c0.3-0.1,0.3-0.5,0-0.6l-2-0.7l0-2.2C37.6,38.1,37.2,38,37.1,38.2z"/>
<path class="st1" d="M44.7,33.2l-2.1,0.2l-0.9-2c-0.1-0.3-0.5-0.2-0.5,0.1l-0.4,2.1L38.6,34c-0.3,0-0.3,0.4-0.1,0.6l1.8,1.1L40,37.8
	c-0.1,0.3,0.3,0.5,0.5,0.3l1.6-1.5l1.8,1.1c0.2,0.1,0.5-0.1,0.4-0.4l-0.9-2l1.5-1.5C45.1,33.6,45,33.2,44.7,33.2z"/>
</svg>
