<?xml version="1.0" encoding="utf-8"?>
<!-- Generator: Adobe Illustrator 26.0.0, SVG Export Plug-In . SVG Version: 6.00 Build 0)  -->
<svg version="1.1" id="圖層_1" xmlns="http://www.w3.org/2000/svg" xmlns:xlink="http://www.w3.org/1999/xlink" x="0px" y="0px"
	 viewBox="0 0 160 32" style="enable-background:new 0 0 160 32;" xml:space="preserve">
<style type="text/css">
	.st0{fill:#FFFFFF;}
</style>
<g id="PC">
	<g id="PC_1.0---Index" transform="translate(-80.000000, -14.000000)">
		<g id="Logo" transform="translate(80.000000, 14.000000)">
			<g id="Dark-Theme" transform="translate(1.536000, 3.216000)">
				<path id="D" class="st0" d="M-1.5,28.5V-3.2h6.7c2.6,0,4.6,0.7,5.9,2.1s2,3.4,2,6.1v14.8c0,3-0.7,5.2-2.1,6.6
					c-1.4,1.4-3.5,2.1-6.2,2.1H-1.5z M3,1.1v23.2H5c1.3,0,2.2-0.3,2.7-1c0.5-0.6,0.8-1.6,0.8-3V5c0-1.2-0.3-2.2-0.8-2.9
					s-1.4-1-2.7-1H3z"/>
				<path id="a" class="st0" d="M25.6,28.5v-2.3h-0.1c-0.6,0.8-1.2,1.5-1.8,1.9c-0.6,0.4-1.5,0.7-2.5,0.7c-0.5,0-1.1-0.1-1.6-0.2
					c-0.5-0.2-1.1-0.5-1.6-0.9c-0.5-0.4-0.9-1-1.2-1.8c-0.3-0.8-0.5-1.8-0.5-3.1c0-1.3,0.1-2.4,0.3-3.4c0.2-1,0.6-1.8,1.1-2.4
					c0.5-0.6,1.3-1.1,2.2-1.4c0.9-0.3,2.1-0.5,3.5-0.5c0.1,0,0.3,0,0.5,0c0.2,0,0.3,0,0.5,0c0.1,0,0.3,0,0.5,0c0.2,0,0.4,0,0.7,0
					v-2.4c0-0.8-0.2-1.4-0.5-1.9c-0.3-0.5-0.9-0.8-1.8-0.8c-0.6,0-1.1,0.2-1.6,0.6c-0.5,0.4-0.8,1-1,1.7h-4.4c0.1-2,0.8-3.7,2-4.9
					C19,7,19.7,6.5,20.5,6.2c0.8-0.3,1.8-0.5,2.8-0.5c0.9,0,1.8,0.1,2.7,0.4c0.8,0.3,1.5,0.7,2.2,1.3c0.6,0.6,1.1,1.3,1.4,2.2
					c0.4,0.9,0.5,1.9,0.5,3.1v15.7H25.6z M25.6,18.8c-0.5-0.1-0.9-0.1-1.2-0.1c-1,0-1.8,0.2-2.5,0.7c-0.7,0.5-1,1.3-1,2.5
					c0,0.9,0.2,1.6,0.6,2.1c0.4,0.5,1,0.8,1.7,0.8c0.8,0,1.4-0.3,1.8-0.8c0.4-0.5,0.6-1.2,0.6-2.1V18.8z"/>
				<path id="r" class="st0" d="M33.4,28.5V5.9h4.5v2.4c0.9-0.8,1.8-1.5,2.7-2s2-0.7,3.3-0.7v4.8c-0.4-0.2-0.9-0.3-1.4-0.3
					s-1,0.1-1.5,0.2c-0.5,0.2-1,0.4-1.5,0.8c-0.5,0.4-0.9,0.9-1.1,1.5c-0.3,0.6-0.4,1.4-0.4,2.3v13.4H33.4z"/>
				<polygon id="k" class="st0" points="45.7,28.5 45.7,-3.2 50.2,-3.2 50.2,15.8 50.3,15.8 55.7,5.9 60.2,5.9 54.8,15.1 61.3,28.5 
					56.4,28.5 52.3,18.8 50.2,22.2 50.2,28.5 				"/>
				<polygon id="T" class="st0" points="74.3,28.5 74.3,1.1 69.1,1.1 69.1,-3.2 84,-3.2 84,1.1 78.8,1.1 78.8,28.5 				"/>
				<path id="h" class="st0" d="M85.7,28.5V-3.2h4.5V8.1h0.1c0.5-0.7,1-1.3,1.7-1.8c0.7-0.5,1.5-0.7,2.5-0.7c0.6,0,1.1,0.1,1.7,0.3
					c0.6,0.2,1.1,0.5,1.5,1c0.4,0.4,0.8,1,1.1,1.7c0.3,0.7,0.4,1.6,0.4,2.6v17.3h-4.5V12.9c0-0.8-0.2-1.5-0.6-2
					c-0.4-0.5-0.9-0.7-1.6-0.7c-0.9,0-1.4,0.3-1.8,0.8s-0.5,1.3-0.5,2.3v15.2H85.7z"/>
				<path id="e" class="st0" d="M116,18.9H107V22c0,0.7,0.2,1.3,0.6,1.6c0.4,0.4,0.9,0.6,1.6,0.6c0.9,0,1.4-0.3,1.7-0.8
					c0.3-0.5,0.4-1,0.5-1.5h4.5c0,2-0.6,3.6-1.8,4.8c-0.6,0.6-1.3,1.1-2.1,1.5c-0.8,0.4-1.8,0.5-2.8,0.5c-1.4,0-2.6-0.3-3.6-0.9
					c-1-0.6-1.7-1.4-2.3-2.4c-0.3-0.6-0.5-1.3-0.7-2.1c-0.1-0.8-0.2-1.6-0.2-2.5v-7.4c0-0.9,0.1-1.8,0.2-2.5
					c0.1-0.8,0.3-1.5,0.7-2.1c0.5-1,1.3-1.8,2.3-2.4c1-0.6,2.2-0.9,3.6-0.9c1,0,2,0.2,2.8,0.5c0.8,0.4,1.6,0.8,2.1,1.5
					c1.2,1.3,1.8,3,1.8,5V18.9z M107,15.4h4.4v-2.6c0-0.9-0.2-1.5-0.6-1.9c-0.4-0.4-0.9-0.6-1.6-0.6c-0.7,0-1.2,0.2-1.6,0.6
					c-0.4,0.4-0.6,1.1-0.6,1.9V15.4z"/>
				<path id="m" class="st0" d="M119.3,28.5V5.9h4.5v2.2h0.1c0.5-0.7,1-1.3,1.7-1.8c0.7-0.5,1.5-0.7,2.5-0.7c1,0,1.8,0.2,2.4,0.7
					s1.2,1,1.6,1.6c0.6-0.6,1.2-1.2,1.9-1.6c0.7-0.4,1.6-0.7,2.8-0.7c0.6,0,1.1,0.1,1.7,0.3c0.6,0.2,1.1,0.5,1.6,1
					c0.5,0.4,0.9,1,1.1,1.7c0.3,0.7,0.4,1.6,0.4,2.6v17.3h-4.5V12.9c0-0.8-0.2-1.5-0.6-2c-0.4-0.5-0.9-0.7-1.6-0.7
					c-0.9,0-1.4,0.3-1.8,0.8s-0.5,1.3-0.5,2.3v15.2h-4.5V12.9c0-0.8-0.2-1.5-0.6-2c-0.4-0.5-0.9-0.7-1.6-0.7c-0.9,0-1.4,0.3-1.8,0.8
					c-0.3,0.5-0.5,1.3-0.5,2.3v15.2H119.3z"/>
				<path id="e_00000061451085364255993810000004245466305473749948_" class="st0" d="M158.5,18.9h-8.9V22c0,0.7,0.2,1.3,0.6,1.6
					c0.4,0.4,0.9,0.6,1.6,0.6c0.9,0,1.4-0.3,1.7-0.8c0.3-0.5,0.4-1,0.5-1.5h4.5c0,2-0.6,3.6-1.8,4.8c-0.6,0.6-1.3,1.1-2.1,1.5
					c-0.8,0.4-1.8,0.5-2.8,0.5c-1.4,0-2.6-0.3-3.6-0.9c-1-0.6-1.7-1.4-2.3-2.4c-0.3-0.6-0.5-1.3-0.7-2.1c-0.1-0.8-0.2-1.6-0.2-2.5
					v-7.4c0-0.9,0.1-1.8,0.2-2.5c0.1-0.8,0.3-1.5,0.7-2.1c0.5-1,1.3-1.8,2.3-2.4s2.2-0.9,3.6-0.9c1,0,2,0.2,2.8,0.5
					c0.8,0.4,1.6,0.8,2.1,1.5c1.2,1.3,1.8,3,1.8,5V18.9z M149.5,15.4h4.4v-2.6c0-0.9-0.2-1.5-0.6-1.9c-0.4-0.4-0.9-0.6-1.6-0.6
					s-1.2,0.2-1.6,0.6c-0.4,0.4-0.6,1.1-0.6,1.9V15.4z"/>
			</g>
		</g>
	</g>
</g>
</svg>
