<?xml version="1.0" encoding="utf-8"?>
<!-- Generator: Adobe Illustrator 26.0.0, SVG Export Plug-In . SVG Version: 6.00 Build 0)  -->
<svg version="1.1" id="圖層_1" xmlns="http://www.w3.org/2000/svg" xmlns:xlink="http://www.w3.org/1999/xlink" x="0px" y="0px"
	 viewBox="0 0 72 72" style="enable-background:new 0 0 72 72;" xml:space="preserve">
<style type="text/css">
	.st0{fill-rule:evenodd;clip-rule:evenodd;fill:#31C46E;}
</style>
<path class="st0" d="M5.4,46.7c0.7,0.2,1.5,0.4,2.3,0.5l10.4,1.2c-1.3,3.6,0.4,7.7,2.3,11.2l0.4,0.8c0.5,1,0.1,2.3-0.9,2.8
	c-0.3,0.2-0.6,0.2-1,0.2H6.3c-1.2,0-2.1-0.9-2.1-2.1c0,0,0,0,0,0c0-0.7,0-1.5-0.1-2.4C4,55.6,3.9,51.2,5.4,46.7L5.4,46.7z"/>
<path class="st0" d="M53,8.6c1.2,0,2.1,0.9,2.1,2.1v46.4c0,1.2-0.9,2.1-2.1,2.1s-2.1-0.9-2.1-2.1l0,0v-3c-7.7-4.9-16.5-8-25.6-9.1
	V22.8c9.1-1.1,17.8-4.2,25.6-9.1v-3C50.9,9.5,51.9,8.6,53,8.6z"/>
<path class="st0" d="M21.1,23.3v21.1L8.2,43C3.5,42.5,0,38.6,0,33.9c0-4.7,3.5-8.6,8.2-9.1C8.2,24.8,21.1,23.3,21.1,23.3z"/>
<path class="st0" d="M65.2,43.4l6,4.2c0.7,0.5,1,1.8,0.7,2.8c-0.4,1-1.3,1.5-2,0.9l-6-4.2c-0.7-0.5-1-1.8-0.7-2.8
	C63.5,43.3,64.4,42.9,65.2,43.4z"/>
<path class="st0" d="M70.5,31.8c0.8,0,1.5,0.9,1.5,2.1c0,1.2-0.7,2.1-1.5,2.1h-6c-0.8,0-1.5-0.9-1.5-2.1c0-1.2,0.7-2.1,1.5-2.1H70.5
	z"/>
<path class="st0" d="M71.8,17.3c0.4,1,0.1,2.3-0.7,2.8l-6,4.2c-0.7,0.5-1.6,0.1-2-0.9c-0.4-1-0.1-2.3,0.7-2.8l6-4.2
	C70.6,15.8,71.5,16.2,71.8,17.3z"/>
</svg>
