<?xml version="1.0" encoding="utf-8"?>
<!-- Generator: Adobe Illustrator 26.0.0, SVG Export Plug-In . SVG Version: 6.00 Build 0)  -->
<svg version="1.1" id="圖層_1" xmlns="http://www.w3.org/2000/svg" xmlns:xlink="http://www.w3.org/1999/xlink" x="0px" y="0px"
	 viewBox="0 0 72 72" style="enable-background:new 0 0 72 72;" xml:space="preserve">
<style type="text/css">
	.st0{fill-rule:evenodd;clip-rule:evenodd;fill:#40BFF5;}
	.st1{fill:#FFFFFF;}
</style>
<g>
	<circle class="st0" cx="36" cy="36" r="36"/>
	<path class="st1" d="M52.7,29.2c1.7-1.2,3.2-2.6,4.3-4.3v0c-1.6,0.7-3.2,1.1-5,1.3c1.8-1,3.1-2.7,3.8-4.6c-1.7,1-3.5,1.7-5.5,2
		c-1.7-1.7-3.9-2.6-6.3-2.6c-4.8,0-8.6,3.7-8.6,8.3c0,0.7,0.1,1.3,0.2,1.9c-6.9-0.3-13.3-3.5-17.7-8.7c-0.8,1.3-1.2,2.7-1.2,4.2
		c0,2.9,1.5,5.4,3.8,6.9c-1.4,0-2.7-0.4-3.9-1v0.1c0,4.1,3,7.4,6.9,8.2c-0.7,0.2-1.5,0.3-2.3,0.3c-0.6,0-1.1,0-1.6-0.1
		c1.1,3.3,4.3,5.7,8,5.8c-3.1,2.3-6.8,3.6-10.7,3.5c-0.7,0-1.4,0-2.1-0.1c4,2.5,8.5,3.8,13.2,3.7C43.4,54,53.3,41.7,52.7,29.2z"/>
</g>
</svg>
