<?xml version="1.0" encoding="utf-8"?>
<!-- Generator: Adobe Illustrator 26.0.0, SVG Export Plug-In . SVG Version: 6.00 Build 0)  -->
<svg version="1.1" id="layer" xmlns="http://www.w3.org/2000/svg" xmlns:xlink="http://www.w3.org/1999/xlink" x="0px" y="0px"
	 viewBox="0 0 292 72" style="enable-background:new 0 0 292 72;" xml:space="preserve">
<style type="text/css">
	.st0{fill:#FFFFFF;}
</style>
<path class="st0" d="M22.3,2.1c2.6-1,5.4-1.8,8.1-2.1C31,5.5,32.6,10.7,35,15.5c2.5-4.8,4.1-10.1,4.7-15.5c2.8,0.4,5.5,1.1,8.1,2.1
	c-0.6,4.4-1.7,8.8-3.3,12.9c4.5-1.7,8.5-4.4,11.7-8c2.2,1.8,4.2,3.7,6,6c-5.5,6.2-12.8,10.4-20.8,11.8c2.4,2.6,5.1,4.9,8,6.9
	c5-5,10.9-8.7,17.5-10.9c1.2,2.6,2,5.4,2.6,8.1c-4.4,1.5-8.5,3.8-12.1,6.8c4.1,1.5,8.3,2.3,12.7,2.4c-0.2,2.9-0.7,5.7-1.5,8.5
	C55.8,45.8,43.8,39.9,35,30.2C26.3,40,14.3,45.9,1.5,46.6C0.7,43.9,0.2,41,0,38.2c4.3-0.1,8.6-1,12.7-2.6c-3.6-3-7.7-5.4-12.1-6.9
	c0.6-2.8,1.5-5.5,2.6-8c6.6,2.2,12.6,5.9,17.5,10.9c3-1.9,5.6-4.3,8.1-6.9C20.8,23.2,13.4,19,8,12.8c1.8-2.2,3.8-4.2,6-6
	c3.2,3.7,7.2,6.4,11.7,8C24,10.8,22.9,6.5,22.3,2.1z M19,43.7c2.6-1.2,5.1-2.5,7.4-4.1c2.9,3.8,5.8,7.8,8.7,11.6
	c2.9-3.8,5.8-7.7,8.7-11.6c2.3,1.6,4.8,3,7.4,4.1c-3.9,5.4-8,10.7-11.9,16c0,4,0,8,0,12c-2.8,0.3-5.5,0.3-8.3,0v-12L19,43.7z"/>
<path class="st0" d="M258,33.6c-2.6-2-6-2.3-9-3.5c-0.9-0.3-1.8-0.8-1.9-2.2c-0.2-1.4,1.1-2.3,2.3-2.4c2.7-0.1,5.4,0.7,7.4,2.5
	l2.9-4.3c-2-1.7-4.5-2.8-7.1-3.1c-2.7-0.5-5.6,0-8,1.6c-1.8,1.4-3,3.7-3,6c-0.1,2,0.7,4.1,2.2,5.4c2.9,2.3,6.8,2.3,10,4
	c0.6,0.3,1,0.9,1.2,1.6c0.1,0.7-0.1,1.4-0.5,1.9c-1.1,0.9-2.5,1.2-3.9,1c-2.5-0.3-4.9-1.4-6.8-3.1l-3.2,4c3.5,3.2,8.2,4.7,12.8,4
	c2.3-0.3,4.4-1.5,5.7-3.4C261.2,40.4,260.8,36.1,258,33.6z"/>
<path class="st0" d="M124.9,38h2.6c0,0.9,0,1.8,0,2.8c-3.1,2.2-7.2,2-10.1-0.3c-3.3-3.2-3.6-8.4-0.8-12c1.5-1.8,3.7-2.8,6-2.6
	c2.2,0.1,4.2,1,5.8,2.6l3.5-4.3c-1.7-1.5-3.7-2.5-5.8-3.1c-3.5-0.9-7.2-0.5-10.4,1.1c-3.4,1.8-5.7,5.1-6.6,9c-0.8,4,0,8.2,2.5,11.5
	c2.1,2.7,5.2,4.4,8.6,4.7c4.5,0.5,9.1-0.9,12.6-4v-9.8h-7.9C124.9,35,124.9,36.5,124.9,38z"/>
<path class="st0" d="M152.5,37.9h2.6v2.7c-3,2.1-7,2.1-9.9,0c-3.3-3-3.9-8-1.4-11.7c1.4-2.1,3.8-3.2,6.2-3.1c2.3,0,4.4,1,6,2.6
	c1.1-1.4,2.3-2.9,3.5-4.3c-1.6-1.5-3.6-2.5-5.7-3c-3.8-1-7.9-0.4-11.3,1.6c-3.6,2.4-5.9,6.4-6,10.8c-0.2,3.7,1.1,7.4,3.7,10.1
	c2.7,2.6,6.2,3.9,9.9,3.7c3.8,0,7.4-1.5,10.3-4c0-3.3,0-6.6,0-9.8h-7.9V37.9z"/>
<path class="st0" d="M103.2,21l-6,11.5c-2-3.8-4-7.7-6-11.5c-2.1,0-4.3,0-6.4,0c3.2,5.9,6.5,11.7,9.6,17.7c0,2.7,0,5.5,0,8.2h5.4
	c0-2.7,0-5.5,0-8.3c3.2-5.9,6.5-11.7,9.6-17.6H103.2z"/>
<path class="st0" d="M173.3,21h-8.5c0,8.6,0,17.2,0,25.9c3.3,0,6.5,0,9.7,0c4.8-0.1,9.1-3.1,11.1-7.5c1.7-3.9,1.4-8.5-0.7-12.2
	C182.4,23.2,177.9,20.8,173.3,21z M177.6,40.5c-2.2,1.5-4.9,1.2-7.3,1.2c0-5.2,0-10.5,0-15.7c2.5,0.1,5.1-0.2,7.3,1.1
	c2.1,1.5,3.5,4,3.5,6.7C181,36.5,179.8,39,177.6,40.5z"/>
<path class="st0" d="M208,35.8c2.6-2.8,3.2-7,1.5-10.4c-1.7-2.8-4.6-4.4-7.8-4.3c-3.7,0-7.5,0-11.3,0c0,8.6,0,17.2,0,25.9h5.5V26.1
	c2.3-0.2,4.7,0,7,0.4c1.2,0.5,1.9,1.7,2.1,3c0.1,1.3-0.4,2.6-1.4,3.4c-1.7,1.1-3.7,0.6-5.5,0.7v5h1.5c1.8,2.8,3.6,5.5,5.4,8.3h6.4
	l-6.1-9.2C206.1,37.2,207.1,36.6,208,35.8z"/>
<path class="st0" d="M223.6,20.9l-10.7,26v0h5.5c2.5-6.4,5.1-12.8,7.6-19.3l3.3,8.4h-4.5l-1.9,5h8.4c0.7,1.9,1.5,3.8,2.3,5.8h5.8
	l-10.7-26H223.6z"/>
<rect x="264.7" y="21" class="st0" width="5.5" height="25.9"/>
<path class="st0" d="M280.3,41.8c0-6.9,0-13.8,0-20.7h-5.5c0,8.6,0,17.2,0,25.9H292v-5.2H280.3z"/>
</svg>
