<?xml version="1.0" encoding="utf-8"?>
<!-- Generator: Adobe Illustrator 26.0.0, SVG Export Plug-In . SVG Version: 6.00 Build 0)  -->
<svg version="1.1"
	 id="svg4610" xmlns:cc="http://creativecommons.org/ns#" xmlns:dc="http://purl.org/dc/elements/1.1/" xmlns:inkscape="http://www.inkscape.org/namespaces/inkscape" xmlns:rdf="http://www.w3.org/1999/02/22-rdf-syntax-ns#" xmlns:sodipodi="http://sodipodi.sourceforge.net/DTD/sodipodi-0.dtd" xmlns:svg="http://www.w3.org/2000/svg"
	 xmlns="http://www.w3.org/2000/svg" xmlns:xlink="http://www.w3.org/1999/xlink" x="0px" y="0px" viewBox="0 0 306 72"
	 style="enable-background:new 0 0 306 72;" xml:space="preserve">
<style type="text/css">
	.st0{fill:#FFFFFF;}
</style>
<sodipodi:namedview  bordercolor="#666666" borderopacity="1.0" fit-margin-bottom="0" fit-margin-left="0" fit-margin-right="0" fit-margin-top="0" id="base" inkscape:current-layer="layer1" inkscape:cx="65.819623" inkscape:cy="-9.2165302" inkscape:document-units="px" inkscape:pageopacity="0.0" inkscape:pageshadow="2" inkscape:window-height="705" inkscape:window-maximized="1" inkscape:window-width="1366" inkscape:window-x="-8" inkscape:window-y="-8" inkscape:zoom="5.6" pagecolor="#ffffff" showgrid="false">
	</sodipodi:namedview>
<path id="path206" inkscape:connector-curvature="0" class="st0" d="M82.8,18.1h16.5c6.7,0,11.7,2.9,11.7,9.1c0,4.5-2.3,7-6.3,8.4
	v0.1c4.8,1,7.2,3.5,7.2,7.9c0,8.6-7.6,10.4-14,10.4H82.8V18.1z M92.3,32.2H95c3.1,0,6.4-0.8,6.4-3.8c0-3.3-3.1-3.6-6.3-3.6h-2.8
	C92.3,24.8,92.3,32.2,92.3,32.2z M92.3,47.1h2.8c3.5,0,7.1-0.5,7.1-4.2c0-3.9-3.7-4.3-7-4.3h-2.9C92.3,38.7,92.3,47.1,92.3,47.1z"/>
<path id="path210" inkscape:connector-curvature="0" class="st0" d="M124.4,18.1h11.7l13.8,35.8h-10.5l-2.7-7.6h-13.5l-2.8,7.6h-9.7
	L124.4,18.1z M130.3,25.5h-0.1l-4.6,14h9C134.5,39.5,130.3,25.5,130.3,25.5z"/>
<path id="path214" inkscape:connector-curvature="0" class="st0" d="M151.3,18.1h12.2l12.1,24.3h0.1l-0.2-24.3h8.7v35.8h-11.9
	l-12.5-24.5h-0.1l0.3,24.5h-8.8V18.1z"/>
<path id="path218" inkscape:connector-curvature="0" class="st0" d="M187.5,18.1h9.6v14.6h0.1l10.8-14.6h11.5l-13.3,16.7l14.3,19.2
	h-12.2l-11.1-16.3H197v16.3h-9.6V18.1z"/>
<path id="path230" inkscape:connector-curvature="0" class="st0" d="M232.3,18.1h16.5c6.7,0,11.7,2.9,11.7,9.1c0,4.5-2.3,7-6.3,8.4
	v0.1c4.8,1,7.2,3.5,7.2,7.9c0,8.6-7.5,10.4-14,10.4h-15.1V18.1z M241.9,32.2h2.7c3.1,0,6.4-0.8,6.4-3.8c0-3.3-3.1-3.6-6.3-3.6h-2.8
	C241.9,24.8,241.9,32.2,241.9,32.2z M241.9,47.1h2.8c3.5,0,7.1-0.5,7.1-4.2c0-3.9-3.7-4.3-7-4.3h-2.9
	C241.9,38.7,241.9,47.1,241.9,47.1z"/>
<path id="path234" inkscape:connector-curvature="0" class="st0" d="M263.5,18.1h17.1c6.4,0,11.6,2.9,11.6,9c0,4.8-2.3,8-6.9,9v0.1
	c3.1,0.8,3.3,3.5,5.1,7.9l3.5,9.8h-10l-2.1-6.5c-2-6.2-3.2-7.7-6.7-7.7h-2v14.2h-9.6V18.1z M273.1,33h2.5c3.1,0,7-0.1,7-4.2
	c0-3.3-3.3-4-7-4h-2.5C273.1,24.8,273.1,33,273.1,33z"/>
<path id="path236" inkscape:connector-curvature="0" class="st0" d="M296.4,18.1h9.6v35.8h-9.6V18.1z"/>
<path id="path248" inkscape:connector-curvature="0" class="st0" d="M61,0H11C4.9,0,0,5,0,11.3v0.1v49.4C0,66.9,4.8,71.9,10.8,72H61
	c6.1,0,11-5,11-11.3l0-49.5C72,5,67.1,0,61,0 M16.9,66.2l-2.7,0c-3.3,0-6-2.7-6-6.1l0-0.5V14l0-2.5c0.1-3.2,2.6-5.8,5.8-5.8h5.5
	c5,0,9.1,4.4,9.1,9.5c0,2.5-1,4.9-2.6,6.5L11.9,36.1l13.3,13.5c1.7,1.8,2.7,4.1,2.7,6.6C27.9,61.8,23,66.2,16.9,66.2 M57.7,66.2
	l-24.7,0c0,0,2.9-6.2,2.9-10c0-4.7-1.6-8.8-4-11.6L23.4,36l8.6-8.9c2.6-2.4,4.3-6.7,4.3-11.6c0-3.9-1.1-7.3-2.8-9.8h6
	c5,0,9.1,4.4,9.1,9.5c0,2.5-1,4.9-2.6,6.5L32.1,36l28.8,29.4C60,65.9,58.9,66.2,57.7,66.2 M63.7,57L43.1,36l9.8-10
	c2-2.5,3.3-6.3,3.3-10.5c0-3.9-1.1-7.4-2.8-9.9l4.4,0.1c3.3,0,6,2.7,6,6.1C63.8,11.8,63.7,57,63.7,57z"/>
</svg>
