<?xml version="1.0" encoding="utf-8"?>
<!-- Generator: Adobe Illustrator 25.0.1, SVG Export Plug-In . SVG Version: 6.00 Build 0)  -->
<svg version="1.1" id="圖層_1" xmlns="http://www.w3.org/2000/svg" xmlns:xlink="http://www.w3.org/1999/xlink" x="0px" y="0px"
	 viewBox="0 0 72 72" style="enable-background:new 0 0 72 72;" xml:space="preserve">
<g>
	<rect x="24" y="66.14" width="6" height="5.86"/>
	<rect x="42" y="66.14" width="6" height="5.86"/>
	<rect x="33" y="62.36" width="6" height="5.85"/>
	<path d="M60,41.68v-5.86h-6v-5.86h-6V12.4h-3V6.54h-3V3.28h-3V0h-6v3.28h-3v3.27h-3v5.86h-3v17.57h-6v5.85h-6v5.86H6v5.86h9.18
		v-5.86h9v17.74h6V56.5H42v2.93h6V41.69h9v5.85h9v-5.86H60z M42,29.97h-3v-2.93h-6v2.93h-3V18.26h3V12.4h6v5.86h3V29.97z"/>
</g>
</svg>
