<?xml version="1.0" encoding="utf-8"?>
<!-- Generator: Adobe Illustrator 25.0.1, SVG Export Plug-In . SVG Version: 6.00 Build 0)  -->
<svg version="1.1" id="圖層_1" xmlns="http://www.w3.org/2000/svg" xmlns:xlink="http://www.w3.org/1999/xlink" x="0px" y="0px"
	 viewBox="0 0 72 144" style="enable-background:new 0 0 72 144;" xml:space="preserve">
<style type="text/css">
	.st0{fill:#8486A1;}
	.st1{fill:#FFBD2E;}
</style>
<g>
	<rect x="24" y="66.14" class="st0" width="6" height="5.86"/>
	<rect x="42" y="66.14" class="st0" width="6" height="5.86"/>
	<rect x="33" y="62.36" class="st0" width="6" height="5.85"/>
	<path class="st0" d="M60,41.68v-5.86h-6v-5.86h-6V12.4h-3V6.54h-3V3.28h-3V0h-6v3.28h-3v3.27h-3v5.86h-3v17.57h-6v5.85h-6v5.86H6
		v5.86h9.18v-5.86h9v17.74h6V56.5H42v2.93h6V41.69h9v5.85h9v-5.86C66,41.68,60,41.68,60,41.68z M42,29.97h-3v-2.93h-6v2.93h-3V18.26
		h3V12.4h6v5.86h3V29.97z"/>
</g>
<g>
	<rect x="24" y="138.14" class="st1" width="6" height="5.86"/>
	<rect x="42" y="138.14" class="st1" width="6" height="5.86"/>
	<rect x="33" y="134.36" class="st1" width="6" height="5.85"/>
	<path class="st1" d="M60,113.68v-5.86h-6v-5.86h-6V84.4h-3v-5.86h-3v-3.26h-3V72h-6v3.28h-3v3.27h-3v5.86h-3v17.57h-6v5.85h-6v5.86
		H6v5.86h9.18v-5.86h9v17.74h6v-2.93H42v2.93h6v-17.74h9v5.85h9v-5.86C66,113.68,60,113.68,60,113.68z M42,101.97h-3v-2.93h-6v2.93
		h-3V90.26h3V84.4h6v5.86h3V101.97z"/>
</g>
</svg>
