<?xml version="1.0" encoding="utf-8"?>
<!-- Generator: Adobe Illustrator 25.0.1, SVG Export Plug-In . SVG Version: 6.00 Build 0)  -->
<svg version="1.1" id="圖層_1" xmlns="http://www.w3.org/2000/svg" xmlns:xlink="http://www.w3.org/1999/xlink" x="0px" y="0px"
	 viewBox="0 0 72 72" style="enable-background:new 0 0 72 72;" xml:space="preserve">
<style type="text/css">
	.st0{fill-rule:evenodd;clip-rule:evenodd;}
</style>
<path class="st0" d="M24.71,71.91c0.75,0.37,1.54-0.44,1.08-1.11c-2.49-3.64-4.85-9.76-1.09-17.64
	C30.97,40.01,34.79,33.2,34.79,33.2s2.03,7.95,7.53,15.01c5.3,6.8,8.2,15.35,3.52,22.47c-0.44,0.67,0.33,1.45,1.08,1.1
	c5.78-2.77,12.27-8.34,13-19.41c0.27-3.38-0.14-8.12-2.16-14.1c-2.6-7.58-5.8-11.11-7.65-12.63c-0.55-0.45-1.41-0.05-1.37,0.64
	c0.54,8.18-2.74,10.25-4.61,5.57c-0.75-1.86-1.18-5.1-1.18-9.03c0-6.55-2.03-13.29-6.49-18.77c-1.19-1.47-2.56-2.77-4.08-3.89
	c-0.56-0.41-1.38,0-1.33,0.67C31.39,5.27,31.08,18,19.17,33.2c-10.79,14.1-6.61,24.93-5.13,27.86
	C16.88,66.68,20.84,69.98,24.71,71.91z"/>
</svg>
