<?xml version="1.0" encoding="utf-8"?>
<!-- Generator: Adobe Illustrator 25.0.1, SVG Export Plug-In . SVG Version: 6.00 Build 0)  -->
<svg version="1.1" id="圖層_1" xmlns="http://www.w3.org/2000/svg" xmlns:xlink="http://www.w3.org/1999/xlink" x="0px" y="0px"
	 viewBox="0 0 72 72" style="enable-background:new 0 0 72 72;" xml:space="preserve">
<path d="M61.42,31.75c-2.08-2.04-4.49-3.78-7.06-5.35c-0.64-0.32-1.28-0.79-1.92-1.1c-4.4-2.19-9.2-3.49-14.1-3.81l3.52-8H29.99
	l3.52,8c-5.29,0.36-10.43,1.87-15.07,4.43c-0.64,0.32-1.28,0.63-1.92,1.1C6.42,33.33,0.16,44.18,0,55.98v2.36h3.05v-2.2
	c0.16-10.86,5.77-20.77,15.08-26.59c0.48-0.32,1.12-0.79,1.76-1.1c4.58-2.51,9.68-3.92,14.9-4.13l0.01,0.04l0.59,1.73h0.05
	c-5.17,0.04-10.25,1.39-14.75,3.93c-0.64,0.31-1.28,0.78-1.92,1.1C10.1,36.63,4.81,45.91,4.65,55.98v1.42h17.64v-1.42
	c0.16-3.77,2.25-7.39,5.45-9.59c0.64-0.48,1.28-0.79,1.93-1.11c3.37-1.57,7.37-1.57,10.9,0c0.64,0.32,1.29,0.63,1.93,1.11
	c3.21,2.2,5.29,5.82,5.45,9.59v1.42h19.25v-1.26C66.87,45.6,61.26,36,51.96,30.49c-0.64-0.31-1.28-0.78-1.93-1.1l-1.15-0.54
	c-3.54-1.59-7.33-2.51-11.2-2.74l-1.21-0.03l0.73-1.73l0.02-0.05c4.84,0.15,9.6,1.35,13.93,3.51c0.64,0.31,1.29,0.78,1.93,1.1
	c9.78,5.82,15.88,16.05,16.03,27.22v2.36H72v-2.52C71.84,46.85,67.99,38.2,61.42,31.75z M19.24,51.42l-1.92-1.26l0.8-1.1l-3.69-2.36
	l-0.48,0.94c0,0.16-0.16,0.16-0.16,0.32l-1.76-1.26l0.16-0.16c0.32-0.47,0.64-0.94,0.64-1.57c0.16-0.46,0.16-0.96,0-1.41l0.81-1.26
	l0,0h0l0,0l6.41,4.25l0.8-1.1l1.92,1.26L19.24,51.42z M49.87,46.23c0.16-0.94,0.8-1.74,1.61-2.2l1.44,2.04l-0.16,0.16l0.32,0.47
	c-0.8,0.47-0.96,1.1-0.48,1.73c0.16,0.16,0.32,0.32,0.48,0.32c0.32,0,0.64,0,0.8-0.16c0.32-0.16,0.64-0.48,0.64-0.94
	c-0.04-0.24-0.15-0.46-0.32-0.63h0.16c0-0.16-0.16-0.31-0.16-0.47l1.28-0.79c0.16,0.32,0.48,0.48,0.8,0.63
	c0.3,0.16,0.66,0.16,0.96,0c0.16,0,0.16-0.16,0.32-0.16c0-0.16,0-0.48-0.16-0.63l-0.07-0.07c0.02-0.03,0.05-0.06,0.07-0.09
	c0.16,0,0-0.31-0.17-0.63c-0.33-0.45-0.91-0.64-1.44-0.47h-0.16l-0.96-1.89c0.73-0.44,1.63-0.5,2.4-0.16
	c0.91,0.42,1.65,1.14,2.09,2.04c0.48,0.79,0.8,1.73,0.8,2.67c-0.16,0.79-0.48,1.42-1.12,1.89l-0.32,0.32
	c-0.35,0.18-0.73,0.29-1.12,0.32c-0.27,0-0.53-0.1-0.75-0.27c0.13,0.07,0.28,0.11,0.42,0.11c0.48,0,0.8,0,1.12-0.32l0.1-0.03
	c0.03-0.02,0.05-0.04,0.06-0.07l0.04-0.06L58.27,49c-0.22,0.13-0.54,0.17-0.86,0.06c-0.48,0-0.96-0.31-1.29-0.47
	c0,0.15,0.16,0.31,0.16,0.47c0.13,0.06,0.23,0.12,0.32,0.16c0,0.32,0,0.78-0.16,1.1c-0.13,0.41-0.42,0.75-0.8,0.94h-0.16l-0.16,0.16
	c-0.32,0.32-0.8,0.32-1.28,0.32c-0.32,0-0.8-0.16-1.12-0.32c-0.96-0.47-1.76-1.26-2.24-2.2C50.03,48.27,49.71,47.33,49.87,46.23z
	 M48.91,31.44l-7.86,13.21c-3.69-1.73-8.02-1.73-11.87,0l-7.38-12.74C30.15,27.35,40.25,27.19,48.91,31.44z"/>
<polygon points="13.63,42.29 13.63,42.29 13.63,42.29 "/>
<polygon points="36.24,30.65 36.24,30.65 36.24,30.65 "/>
<path d="M32.39,33.8h2.56c0-0.95,0.32-1.41,1.12-1.41c0.32,0,0.48,0.15,0.8,0.31c0.2,0.21,0.32,0.49,0.32,0.79
	c-0.01,0.29-0.12,0.57-0.32,0.78c-0.5,0.51-1.04,0.99-1.61,1.42c-0.48,0.31-0.96,0.63-1.28,1.1c-0.96,0.94-1.44,2.2-1.44,3.46v0.31
	h7.86v-2.99h-2.09v0.78h-3.2c0.16-0.31,0.48-0.63,0.64-0.78c0.48-0.31,1.12-0.63,1.76-0.94c0.8-0.31,1.61-0.94,2.08-1.57
	c0.32-0.47,0.64-0.95,0.64-1.57c0-0.79-0.32-1.57-1.12-2.05c-0.8-0.47-1.76-0.78-2.89-0.78c-0.96,0-1.92,0.16-2.73,0.63
	C32.71,31.91,32.23,32.85,32.39,33.8z"/>
</svg>
