<?xml version="1.0" encoding="utf-8"?>
<!-- Generator: Adobe Illustrator 25.0.1, SVG Export Plug-In . SVG Version: 6.00 Build 0)  -->
<svg version="1.1" id="圖層_1" xmlns="http://www.w3.org/2000/svg" xmlns:xlink="http://www.w3.org/1999/xlink" x="0px" y="0px"
	 viewBox="0 0 72 72" style="enable-background:new 0 0 72 72;" xml:space="preserve">
<path d="M69.42,22.72c-0.38,0.54-0.81,1.05-1.31,1.52v0c-1.92,1.78-4.38,2.64-6.96,2.64c-3.56,0-7.33-1.65-10.15-4.79
	C46.32,16.9,45.9,9.52,49.87,5.18C45.85,3.8,41.23,3,35.99,3c-5.08,0-9.56,0.77-13.48,2.1c4.05,4.33,3.65,11.77-1.04,16.99
	c-2.83,3.15-6.6,4.79-10.16,4.79c-2.57,0-5.04-0.86-6.96-2.64c-0.55-0.51-1.03-1.07-1.45-1.69c-3.92,8.38-3.71,18.7-0.32,22.13
	c1.96,1.98,6.98,3.49,13.43,4.49v14.84c0,2.76,2.2,4.99,4.92,4.99h30.51c2.71,0,4.92-2.23,4.92-4.99V49.21
	c6-0.98,10.68-2.48,12.72-4.53C72.73,40.98,73.09,30.9,69.42,22.72z M36.23,18.57L36.23,18.57c5.93,0,10.75,4.89,10.75,10.9
	c0,6.02-4.82,10.91-10.75,10.91s-10.75-4.89-10.75-10.9C25.48,23.47,30.3,18.57,36.23,18.57z M53.08,64.01
	c0.01,0.91-0.73,1.66-1.64,1.67H20.93c-0.91-0.01-1.65-0.75-1.64-1.67V49.63c2.82,0.34,5.54,0.59,8.64,0.75v7.56
	c0,0.73,0.89,1.34,1.62,1.34c0.73,0,1.72-0.6,1.72-1.34v-7.44c3.38,0.12,6.01,0.14,9.38,0.04v7.4c0,0.74,1.01,1.34,1.73,1.34
	c0.73,0,1.61-0.6,1.61-1.34v-7.5c3.28-0.15,6.15-0.41,9.09-0.77V64.01z"/>
<path d="M36.23,37.06c4.12,0,7.47-3.4,7.47-7.59c0-4.18-3.35-7.58-7.47-7.58s-7.47,3.4-7.47,7.58
	C28.75,33.66,32.1,37.06,36.23,37.06z"/>
<path d="M11.31,23.55c2.8,0,5.62-1.35,7.74-3.71c1.83-2.04,2.88-4.55,2.97-7.06c0.07-2.32-0.71-4.36-2.2-5.74
	c-0.23-0.21-0.48-0.4-0.73-0.58C13.19,9.16,8.23,13.52,4.81,19.02c0.37,1.07,0.94,2.02,1.75,2.76
	C8.14,23.25,10.02,23.55,11.31,23.55z"/>
<path d="M61.14,23.55c1.3,0,3.17-0.31,4.75-1.77c0.75-0.69,1.32-1.56,1.69-2.54c-3.39-5.57-8.39-10-14.33-12.7
	c-0.22,0.16-0.42,0.32-0.62,0.5c-1.49,1.38-2.27,3.42-2.2,5.74c0.08,2.51,1.13,5.02,2.97,7.06C55.53,22.2,58.35,23.55,61.14,23.55z"
	/>
</svg>
