<?xml version="1.0" encoding="utf-8"?>
<!-- Generator: Adobe Illustrator 25.0.1, SVG Export Plug-In . SVG Version: 6.00 Build 0)  -->
<svg version="1.1" id="圖層_1" xmlns="http://www.w3.org/2000/svg" xmlns:xlink="http://www.w3.org/1999/xlink" x="0px" y="0px"
	 viewBox="0 0 72 72" style="enable-background:new 0 0 72 72;" xml:space="preserve">
<style type="text/css">
	.st0{fill:none;}
</style>
<path class="st0" d="M63.07,27.91c0.08,0.12,0.16,0.24,0.24,0.36c0,0,0-0.01,0-0.01L63.07,27.91z"/>
<path d="M41.63,55.93l-0.16-1.51v-0.5c-0.17-1.34-0.33-2.52-0.66-3.86v-0.67c-0.17-0.84-0.49-1.68-0.66-2.52
	c-0.49-1.34-0.98-2.68-1.63-4.02c-2.29-4.03-4.58-5.2-7.2-5.2h0c-0.82,0-1.63,0.17-2.46,0.33c-0.82,0.17-1.8,0.33-2.62,0.67
	c-0.82,0.34-1.64,0.5-2.62,0.67h-0.65c-0.49,0-0.98,0.17-1.48,0.17h-0.49c-0.72-0.03-1.43-0.14-2.13-0.33h-0.66l-1.97-0.5
	c-1.8-0.5-3.6-0.84-5.4-1.01c-2.62,0-4.91,1.17-7.2,5.37c-0.98,2.02-1.8,4.36-2.46,6.54c-0.66,2.52-0.98,5.2-1.14,7.72
	c-0.17,2.02,0,4.19,0.82,6.21C1.37,64.99,2.84,66,4.48,66c0.79-0.01,1.57-0.18,2.29-0.5c2.5-1.22,4.77-2.86,6.71-4.86
	c2.19-1.69,4.93-2.53,7.69-2.35c2.76-0.18,5.5,0.66,7.69,2.35c1.94,2,4.21,3.65,6.71,4.86c0.72,0.33,1.5,0.5,2.29,0.5
	c0.33,0,0.66,0,0.98-0.17c1.15-0.34,2.13-1.34,2.46-2.52c0.33-0.67,0.49-1.18,0.49-1.85l0.16-0.67c-0.26-1.08-0.31-2.04-0.32-2.99
	L41.63,55.93z M14.46,50.06h-2.62v2.52H9.23v-2.52H6.61v-2.69h2.62v-2.68h2.62v2.68h2.62V50.06z M30.5,43.35L30.5,43.35
	c0.98-0.01,1.82,0.71,1.96,1.68c0.17,1.01-0.65,1.85-1.63,2.02h-0.17c-0.49,0-0.98-0.17-1.31-0.5c-0.16-0.17-0.32-0.33-0.32-0.67
	c0-0.17-0.17-0.33-0.17-0.67C28.7,44.19,29.52,43.35,30.5,43.35z M27.56,50.06c-0.33,0-0.49,0-0.82-0.17
	c-0.17,0-0.33-0.17-0.49-0.34c-0.33-0.33-0.66-0.84-0.66-1.34c0-1,0.82-1.84,1.8-1.84c1,0.02,1.8,0.84,1.8,1.84
	c0.3,0.92-0.35,1.69-1.33,1.83L27.56,50.06z M32.3,51.4c0.01,0.44-0.17,0.87-0.49,1.17c0,0.17-0.17,0.17-0.33,0.17
	c-0.16,0.17-0.16,0.17-0.32,0.17l-0.33,0.17H30.5c-0.82,0-1.47-0.5-1.64-1.17c0-0.17-0.16-0.33-0.16-0.5v-0.33
	c0.16-1.01,0.98-1.85,1.96-1.68v0C31.64,49.56,32.46,50.39,32.3,51.4z M35.09,48.89c0,0.17,0,0.17-0.17,0.33
	c0,0.17-0.16,0.17-0.16,0.33c-0.33,0.5-0.82,0.67-1.47,0.67c-0.98,0-1.8-0.84-1.8-1.85v-0.67c0-0.17,0-0.17,0.16-0.34
	c0.33-0.5,0.98-1,1.64-0.84c1,0.02,1.8,0.84,1.8,1.85C35.25,48.55,35.25,48.72,35.09,48.89z"/>
<path d="M69.94,29.59c-1.96-4.36-5.24-8.05-9.16-10.57c-0.09-0.09-0.18-0.13-0.26-0.18l0.09,0.18C54.56,7.1,40.15,2.57,28.53,8.78h0
	c-9.66,5.2-14.57,16.44-12.11,27.35h0.66c0.98,0.34,2.13,0.5,3.11,0.67l1.48,0c0.01,0.09,0.05,0.16,0.15,0.16
	c-0.08-0.08-0.12-0.13-0.14-0.17h0.14c-3.44-10.07,1.64-20.97,11.29-24.5c6.5-2.34,13.76-0.85,18.82,3.86l0.49,0.34l0.33,0.33
	l0.49,0.67c1.17,1.32,2.16,2.79,2.95,4.36c0.16,0.33,0.32,0.5,0.49,0.84c4.09,9.73-0.17,20.98-9.66,25.34
	c-1.31,0.67-2.78,1-4.25,1.34v1.01c0.16,1.18,0.49,2.35,0.65,3.52v0.67c11.29-2.02,19.64-12.25,19.64-24
	c0.26-0.93,0.31-1.65,0.24-2.32c-0.08-0.12-0.16-0.25-0.24-0.36l0.24,0.35c0,0,0,0.01,0,0.01c0.73,1.09,1.44,2.29,1.89,3.5
	c4.09,9.23,0.16,20.31-8.84,24.5c-3.89,1.83-8.31,2.19-12.44,1.01v0.67c0.49,0.17,1.14,0.33,1.64,0.33l-1.31,3.52l-0.49-0.17
	c0,0.17,0,0.5-0.16,0.67c4.94,1.19,10.14,0.65,14.73-1.51C70.04,55.29,75.2,41.42,69.94,29.59z M20.68,25.23l-3.44-2.02
	c0.66-2.35,1.8-4.53,3.11-6.54l3.27,2.01C22.32,20.7,21.32,22.91,20.68,25.23z M39.5,10.29c-1.14,0-2.29,0.17-3.6,0.33V6.77
	c2.33-0.34,4.7-0.34,7.04,0l0,3.82l0.17,0.03C41.96,10.46,40.81,10.29,39.5,10.29z M56.52,46.37l-3.44-2.02
	c1.69-1.71,3.08-3.69,4.09-5.87l3.27,2.01C59.5,42.67,58.17,44.66,56.52,46.37z M60.45,24.05l-0.66,0.33l0.07,0.05l-1.38,0.79
	c-0.33-0.67-0.49-1.51-0.82-2.35c-0.16-0.33-0.33-0.67-0.33-0.84c-0.49-1.17-1.14-2.18-1.8-3.36l1.48-0.84l0.65-0.5l1.15-0.67v0
	c0.22,0.34,0.44,0.67,0.66,1.06l0.32,0.62c0.17,0.17,0.33,0.5,0.49,0.67l0.16,0.33c0.66,1.22,1.16,2.51,1.48,3.86L60.45,24.05z
	 M58.81,59.79l-2.46-3.02l0.33-0.17c1.97-1.01,3.77-2.18,5.4-3.86l2.29,2.85C62.74,57.44,60.78,58.79,58.81,59.79z M67.65,41.5
	c0.32-2.35,0.16-4.7-0.49-7.05l3.6-0.5c0.49,2.35,0.66,4.7,0.49,7.05L67.65,41.5z"/>
<path d="M52.76,39.82c0,0-1.15-7.89-7.37-11.41c-3.27,3.36-8.51,3.36-11.78,0c-2.46,1.51-4.09,3.86-4.91,6.71
	c0.65-0.17,1.31-0.17,1.96-0.17c3.93,0,7.04,2.01,9.49,6.54c0.82,1.49,1.48,3.07,1.97,4.7C46.21,45.36,49.98,43.01,52.76,39.82z"/>
<path d="M33.45,22.54c0,3.52,2.78,6.38,6.22,6.38c3.43,0,6.22-2.85,6.22-6.38c0-3.52-2.78-6.37-6.22-6.37v0
	C36.23,16.16,33.45,19.02,33.45,22.54z"/>
</svg>
