<?xml version="1.0" encoding="utf-8"?>
<!-- Generator: Adobe Illustrator 25.0.1, SVG Export Plug-In . SVG Version: 6.00 Build 0)  -->
<svg version="1.1" id="圖層_1" xmlns="http://www.w3.org/2000/svg" xmlns:xlink="http://www.w3.org/1999/xlink" x="0px" y="0px"
	 viewBox="0 0 72 72" style="enable-background:new 0 0 72 72;" xml:space="preserve">
<style type="text/css">
	.st0{fill-rule:evenodd;clip-rule:evenodd;}
</style>
<path class="st0" d="M57.6,14c2.98,0,5.4,2.46,5.4,5.5v44c0,3.04-2.42,5.5-5.4,5.5H25.2c-2.98,0-5.4-2.46-5.4-5.5v-2.75h27
	c4.47,0,8.1-3.69,8.1-8.25V14H57.6z"/>
<path d="M46.8,3H14.4C11.42,3,9,5.46,9,8.5v44c0,3.04,2.42,5.5,5.4,5.5h32.4c2.98,0,5.4-2.46,5.4-5.5v-44C52.2,5.46,49.78,3,46.8,3z
	 M40.06,38.59c-1.47,0.9-3.16,1.36-4.88,1.34c-0.63,0-1.26-0.06-1.88-0.17L36,47H25.2l2.7-7.23c-2.47,0.42-4.85,0.03-6.76-1.18
	c-2.61-1.64-4.04-4.51-4.04-8.09c0-4.4,3.36-7.28,6.33-9.82c1.89-1.62,3.84-3.29,4.76-5.16c0.45-0.93,1.39-1.52,2.42-1.52l0,0
	c1.03,0.01,1.96,0.59,2.41,1.52c0.92,1.87,2.87,3.54,4.76,5.16c2.97,2.54,6.33,5.42,6.33,9.82C44.1,34.08,42.66,36.95,40.06,38.59z"
	/>
</svg>
