<?xml version="1.0" encoding="utf-8"?>
<!-- Generator: Adobe Illustrator 25.0.1, SVG Export Plug-In . SVG Version: 6.00 Build 0)  -->
<svg version="1.1" id="圖層_1" xmlns="http://www.w3.org/2000/svg" xmlns:xlink="http://www.w3.org/1999/xlink" x="0px" y="0px"
	 viewBox="0 0 72 72" style="enable-background:new 0 0 72 72;" xml:space="preserve">
<style type="text/css">
	.st0{fill-rule:evenodd;clip-rule:evenodd;}
</style>
<path class="st0" d="M64.8,15c3.98,0,7.2,3.22,7.2,7.2v27.6c0,3.98-3.22,7.2-7.2,7.2H7.2C3.22,57,0,53.78,0,49.8V22.2
	C0,18.22,3.22,15,7.2,15H64.8z M65.78,27H49.67c-0.17,0-0.17,0.16-0.17,0.16c0.17,0.82,0.34,1.64,0.34,2.62
	c0.17,0.98,0.17,1.96,0.17,3.11v1.14h0.17c0.51-0.17,1.2-0.17,1.71-0.33c0.51-0.16,1.03-0.33,1.03-0.49
	c0.17-0.33,0.17-0.49,0.17-0.82c0-0.32,0-0.82-0.17-1.14c0-0.33-0.17-0.66-0.17-0.98c-0.17-0.16,0-0.49,0.17-0.66
	c0.86-0.66,2.05-0.82,3.09-0.82l5.65-0.16c-2.48,1.59-4.44,3.86-5.65,6.55c-1.2,2.69-1.9,5.57-2.06,8.51v0.16h0.17
	c1.71-0.49,3.6-0.82,5.48-0.82c1.03,0,1.89,0,2.92,0.16c0.08-0.32,0.15-0.61,0.2-0.86l0.12-0.63c0.06-0.35,0.11-0.55,0.19-0.63
	c0.17-0.16,0-0.32-0.35-0.32h-0.68c-0.34,0-0.51,0.16-0.85,0.16l-0.35,0.16c-0.17-0.49-0.17-0.98-0.17-1.63
	c0-2.29,0.51-4.42,1.37-6.55c1.03-2.46,2.23-4.09,3.77-4.58c0.17,0,0.17,0,0.17-0.16v-0.98C65.95,27,65.95,27,65.78,27z M44.78,27
	H28.67c-0.17,0-0.17,0.16-0.17,0.16c0.17,0.82,0.17,1.64,0.34,2.62c0.17,0.98,0.17,1.96,0.17,3.11v1.14h0.17
	c0.51-0.17,1.2-0.17,1.71-0.33c0.68-0.16,1.03-0.33,1.03-0.49c0.17-0.33,0.17-0.49,0.17-0.82c0-0.32,0-0.82-0.17-1.14
	c0-0.33-0.17-0.66-0.17-0.98c-0.17-0.16,0-0.49,0.17-0.66c0.86-0.66,2.05-0.82,3.08-0.82l5.66-0.16c-2.4,1.63-4.45,3.92-5.65,6.55
	c-1.2,2.69-1.9,5.57-2.06,8.51v0.16h0.34c1.71-0.49,3.6-0.82,5.48-0.82c1.03,0,1.89,0,2.92,0.16l0.22-0.86l0.16-0.63
	c0.08-0.35,0.13-0.55,0.13-0.63c0-0.16,0-0.32-0.34-0.32h-0.68c-0.34,0-0.51,0.16-0.86,0.16l-0.34,0.16
	c-0.17-0.49-0.17-0.98-0.17-1.63c0-2.29,0.51-4.42,1.37-6.55c1.03-2.46,2.23-4.09,3.77-4.58c0.17,0,0.17,0,0.17-0.16l-0.17-0.98
	C44.95,27,44.95,27,44.78,27z M23.78,27H7.67C7.5,27,7.5,27.16,7.5,27.16c0.17,0.82,0.17,1.64,0.35,2.62
	c0.17,0.98,0.17,1.96,0.17,3.11v1.14c0.51-0.17,1.2-0.17,1.71-0.33c0.68-0.16,1.2-0.33,1.2-0.49c0.17-0.33,0.17-0.49,0.17-0.82
	v-0.27c0.01-0.3-0.05-0.6-0.17-0.87c0-0.33-0.17-0.66-0.17-0.98c-0.17-0.16,0-0.49,0.17-0.66c0.86-0.66,2.06-0.82,3.09-0.82
	l5.65-0.16c-2.4,1.63-4.45,3.92-5.65,6.55c-1.2,2.69-1.9,5.57-2.06,8.51v0.16h0.17c1.71-0.49,3.6-0.82,5.49-0.82
	c0.86,0,1.88,0,2.91,0.16c0.34-1.31,0.34-1.96,0.51-2.12c0.17-0.17,0-0.33-0.34-0.33h-0.68c-0.34,0-0.51,0.17-0.86,0.17l-0.34,0.16
	c-0.17-0.49-0.17-0.98-0.17-1.63c0-2.29,0.51-4.42,1.37-6.55c1.03-2.46,2.23-4.09,3.77-4.58c0.17,0,0.17,0,0.17-0.16v-0.98
	C23.95,27,23.95,27,23.78,27z"/>
</svg>
