<?xml version="1.0" encoding="utf-8"?>
<!-- Generator: Adobe Illustrator 26.0.0, SVG Export Plug-In . SVG Version: 6.00 Build 0)  -->
<svg version="1.1" id="圖層_1" xmlns="http://www.w3.org/2000/svg" xmlns:xlink="http://www.w3.org/1999/xlink" x="0px" y="0px"
	 viewBox="0 0 72 72" style="enable-background:new 0 0 72 72;" xml:space="preserve">
<style type="text/css">
	.st0{fill-rule:evenodd;clip-rule:evenodd;}
</style>
<path class="st0" d="M37.8,12.6l0.3,0.2l21,21c0.1,0.1,0.2,0.2,0.2,0.3l-0.2-0.3c0.5,0.5,0.8,1.3,0.9,2l0,0.1v0.1l0,0.2l0-0.3
	c0,0.7-0.2,1.3-0.7,1.9l-0.2,0.2l-21,21c-1.2,1.2-3.1,1.2-4.2,0c-1.1-1.1-1.2-2.8-0.2-4l0.2-0.3L49.8,39H15c-1.7,0-3-1.3-3-3
	c0-1.5,1.1-2.8,2.6-3l0.4,0h34.8L33.9,17.1c-1.1-1.1-1.2-2.8-0.2-4l0.2-0.3C34.9,11.8,36.6,11.7,37.8,12.6z"/>
</svg>
