<?xml version="1.0" encoding="utf-8"?>
<!-- Generator: Adobe Illustrator 25.0.1, SVG Export Plug-In . SVG Version: 6.00 Build 0)  -->
<svg version="1.1" id="圖層_1" xmlns="http://www.w3.org/2000/svg" xmlns:xlink="http://www.w3.org/1999/xlink" x="0px" y="0px"
	 width="72px" height="72px" viewBox="0 0 72 72" style="enable-background:new 0 0 72 72;" xml:space="preserve">
<style type="text/css">
	.st0{fill-rule:evenodd;clip-rule:evenodd;}
</style>
<path class="st0" d="M19.84,15.63l0.28,0.25L36,31.76l15.88-15.88c1.17-1.17,3.07-1.17,4.24,0.01c1.06,1.07,1.17,2.76,0.25,3.95
	l-0.25,0.28L40.24,36l15.88,15.88c1.17,1.17,1.17,3.07-0.01,4.24c-1.07,1.06-2.76,1.17-3.95,0.25l-0.28-0.25L36,40.25L20.12,56.12
	c-1.17,1.17-3.07,1.17-4.24-0.01c-1.06-1.07-1.17-2.76-0.25-3.95l0.25-0.28L31.75,36L15.88,20.12c-1.17-1.17-1.17-3.07,0.01-4.24
	C16.95,14.81,18.65,14.71,19.84,15.63z"/>
</svg>
