<?xml version="1.0" encoding="utf-8"?>
<!-- Generator: Adobe Illustrator 26.0.0, SVG Export Plug-In . SVG Version: 6.00 Build 0)  -->
<svg version="1.1" id="圖層_1" xmlns="http://www.w3.org/2000/svg" xmlns:xlink="http://www.w3.org/1999/xlink" x="0px" y="0px"
	 viewBox="0 0 72 72" style="enable-background:new 0 0 72 72;" xml:space="preserve">
<path d="M55.7,32.1c-8.1,0-14.6,6.5-14.6,14.6s6.5,14.6,14.6,14.6s14.6-6.5,14.6-14.6S63.8,32.1,55.7,32.1z M60.4,49.4
	C60.4,49.4,60.4,49.4,60.4,49.4l-3.6,3.6c-0.7,0.7-1.7,0.7-2.4,0L51,49.4c-0.7-0.6-0.7-1.7,0-2.4s1.7-0.7,2.4,0c0,0,0,0,0,0l0.6,0.6
	v-6.1c0-0.9,0.8-1.7,1.7-1.7c0.9,0,1.7,0.8,1.7,1.7v6.1L58,47c0.6-0.7,1.7-0.7,2.4,0C61.1,47.7,61.1,48.7,60.4,49.4z"/>
<path d="M48.9,19.7H17.4c0,3.7-3,6.8-6.8,6.8v13.5c3.7,0,6.8,3,6.8,6.8h20.2c0-9.9,8.1-18,18-18v-2.2C52,26.4,48.9,23.4,48.9,19.7z
	 M33.2,39.9c-3.7,0-6.8-3-6.8-6.8s3-6.8,6.8-6.8s6.8,3,6.8,6.8S36.9,39.9,33.2,39.9z"/>
<path d="M12.9,51.2v-4.5c0-1.2-1-2.2-2.2-2.2H6.2V21.9h4.5c1.2,0,2.2-1,2.2-2.2v-4.5h40.5v4.5c0,1.2,1,2.2,2.2,2.2h4.5v7.3
	c1.6,0.4,3.1,1,4.5,1.8V17.4c0-3.7-3-6.8-6.8-6.8H8.4c-3.7,0-6.8,3-6.8,6.8v31.5c0,3.7,3,6.8,6.8,6.8h31.7c-0.8-1.4-1.4-2.9-1.8-4.5
	H12.9z"/>
</svg>
