<?xml version="1.0" encoding="utf-8"?>
<!-- Generator: Adobe Illustrator 26.0.0, SVG Export Plug-In . SVG Version: 6.00 Build 0)  -->
<svg version="1.1" id="圖層_1" xmlns="http://www.w3.org/2000/svg" xmlns:xlink="http://www.w3.org/1999/xlink" x="0px" y="0px"
	 viewBox="0 0 72 72" style="enable-background:new 0 0 72 72;" xml:space="preserve">
<path d="M39.7,66h18.8c2.1,0,3.7-1.7,3.7-3.8V37.7H39.7V66z"/>
<path d="M62.2,21L62.2,21l-11.9,0c0.9-0.6,1.6-1.2,2.1-1.7c3-3.1,3-8,0-11.1c-2.9-3-8.1-3-11,0c-1.6,1.6-5.9,8.3-5.3,12.8h-0.3
	c0.6-4.5-3.7-11.1-5.3-12.8c-2.9-3-8.1-3-11,0c-3,3.1-3,8,0,11.1c0.5,0.5,1.2,1.1,2.1,1.7H9.7C7.7,21,6,22.7,6,24.8v7.4
	c0,1,0.8,1.9,1.9,1.9h24.4v-7.5h7.5V34h24.4c1,0,1.9-0.8,1.9-1.9v-7.4C66,22.7,64.3,21,62.2,21z M32,20.9c0,0-0.2,0.1-0.7,0.1
	c-2.6,0-7.5-2.7-9.2-4.3c-1.6-1.6-1.6-4.2,0-5.8c1.5-1.6,4.1-1.6,5.6-0.1c0,0,0,0,0.1,0.1C30.4,13.4,32.9,20,32,20.9z M40.7,21
	L40.7,21c-0.5,0-0.7-0.1-0.7-0.1c-0.9-0.9,1.6-7.4,4.2-10c1.6-1.5,4.1-1.5,5.7,0c1.6,1.6,1.6,4.2,0,5.8C48.2,18.3,43.3,21,40.7,21z"
	/>
<path d="M9.7,62.2c0,2.1,1.7,3.8,3.7,3.8h18.8V37.7H9.7V62.2z"/>
</svg>
