<?xml version="1.0" encoding="utf-8"?>
<!-- Generator: Adobe Illustrator 25.0.1, SVG Export Plug-In . SVG Version: 6.00 Build 0)  -->
<svg version="1.1" id="圖層_1" xmlns="http://www.w3.org/2000/svg" xmlns:xlink="http://www.w3.org/1999/xlink" x="0px" y="0px"
	 viewBox="0 0 72 72" style="enable-background:new 0 0 72 72;" xml:space="preserve">
<g>
	<path d="M40.5,72H63c2.5,0,4.5-2,4.5-4.5V38h-27V72z"/>
	<path d="M67.5,18L67.5,18l-14.2,0c1-0.7,1.9-1.4,2.5-2c3.6-3.7,3.6-9.6,0-13.3c-3.5-3.6-9.7-3.6-13.2,0c-2,2-7.1,10-6.4,15.3h-0.3
		c0.7-5.3-4.5-13.4-6.4-15.3c-3.5-3.6-9.7-3.6-13.2,0c-3.6,3.7-3.6,9.6,0,13.3c0.6,0.6,1.5,1.3,2.5,2H4.5C2,18,0,20,0,22.5v8.8
		c0,1.2,1,2.3,2.2,2.3h29.2v-9h9v9h29.3c1.2,0,2.3-1,2.2-2.3v-8.8C72,20,70,18,67.5,18z M31.2,17.9L31.2,17.9c0,0-0.2,0.1-0.8,0.1
		c-3.1,0-9-3.2-11-5.2c-1.9-1.9-1.9-5,0-6.9C21.3,4,24.3,4,26.2,5.8c0,0,0,0,0.1,0.1C29.3,8.9,32.3,16.8,31.2,17.9z M41.6,18
		L41.6,18c-0.6,0-0.8-0.1-0.8-0.2c-1-1.1,2-8.9,5-12c1.8-1.8,5-1.8,6.8,0c1.9,1.9,1.9,5,0,6.9C50.6,14.7,44.7,18,41.6,18z"/>
	<path d="M4.5,67.5C4.5,70,6.5,72,9,72h22.5V38h-27V67.5z"/>
</g>
</svg>
