<?xml version="1.0" encoding="utf-8"?>
<!-- Generator: Adobe Illustrator 26.0.0, SVG Export Plug-In . SVG Version: 6.00 Build 0)  -->
<svg version="1.1" id="圖層_1" xmlns="http://www.w3.org/2000/svg" xmlns:xlink="http://www.w3.org/1999/xlink" x="0px" y="0px"
	 viewBox="0 0 72 72" style="enable-background:new 0 0 72 72;" xml:space="preserve">
<style type="text/css">
	.st0{fill-rule:evenodd;clip-rule:evenodd;}
</style>
<g>
	<path class="st0" d="M24.6,38.1c0.3,0,0.6,0.1,0.9,0.3c0.8,0.5,1.7,1.1,2.5,1.6c2.6,1.7,5.4,2.6,8.5,2.5c2.6-0.1,5-0.9,7.2-2.3
		c0.6-0.4,1.3-0.8,1.9-1.3c1.1-0.9,2.2-0.9,3.5-0.7c2.9,0.6,4.9,2.4,6.3,5c1.4,2.7,2.1,5.7,2.4,8.7c0.2,1.9,0.2,3.7,0.1,5.6
		c-0.2,3.7-3,6.5-6.7,6.8c-0.7,0.1-1.5,0.1-2.2,0.1c-4.4,0-8.7,0-13.1,0H22.5c-1.8,0-3.6-0.3-5.2-1.4c-2.4-1.6-3.3-4-3.3-6.8
		c0-3.4,0.3-6.7,1.3-9.9c0.8-2.5,1.8-4.7,3.8-6.4C20.7,38.6,22.6,38.1,24.6,38.1z"/>
	<path class="st0" d="M63.7,24.4c0.6,0.6,1.1,1.4,1.4,2.2c0.9,3.1,1.2,6.2,0.9,9.4c-0.2,1.7-1.3,2.8-2.8,3.3c-1,0.4-2.1,0.5-3.1,0.6
		c-1.3,0.1-2.5,0-3.8,0c-0.2,0-0.4-0.1-0.6-0.2c-2.1-2.4-4.8-3.7-8.1-3.8c2.1-3.1,2.9-6.5,2.4-10.2c0.9,0.2,1.7,0.4,2.6,0.5
		c1.9,0.3,3.9,0.1,5.6-0.7c1.1-0.5,2.2-1,3.3-1.6C62.3,23.7,63,23.7,63.7,24.4z"/>
	<path class="st0" d="M10.6,24.1c1.3,0.6,2.6,1.3,4,1.8c2.2,0.8,4.4,0.7,6.7,0.1l0.8-0.2c-0.5,3.7,0.3,7.1,2.3,10.1
		c-1.3,0.3-2.6,0.6-3.9,1c-1.6,0.5-2.8,1.6-3.9,2.8c-0.2,0.3-0.6,0.4-0.9,0.4c-1.4,0-2.9,0-4.3,0c-1.2,0-2.3-0.4-3.3-1
		c-1.2-0.7-1.9-1.7-2-3.1c0-0.1-0.1-0.2-0.1-0.3v-3.1c0.2-1.3,0.2-2.6,0.5-3.9c0.2-1,0.6-2.1,0.9-3.1c0.2-0.4,0.5-0.8,0.9-1.2
		C9,23.7,9.7,23.7,10.6,24.1z"/>
	<path class="st0" d="M36,15.6c6.7-0.1,12,5.7,12,12.2c0,6.8-5.3,12.2-12,12.2c-6.7,0-12-5.3-12-12.2C24,21.1,29.3,15.7,36,15.6
		L36,15.6z"/>
	<path class="st0" d="M54,7.5c4.4,0,8,3.6,8,8.1c0,4.5-3.6,8.1-8,8.1c-4.4,0-8-3.6-8-8.1C46,11.1,49.6,7.5,54,7.5z"/>
	<path class="st0" d="M18.2,7.5c4.4,0.1,7.9,3.8,7.8,8.2c-0.1,4.5-3.7,8.2-8.1,8.1c-4.5-0.1-8-3.8-7.9-8.2c0,0,0-0.1,0-0.1
		C10.1,10.9,13.8,7.4,18.2,7.5z"/>
</g>
</svg>
