<?xml version="1.0" encoding="utf-8"?>
<!-- Generator: Adobe Illustrator 25.0.1, SVG Export Plug-In . SVG Version: 6.00 Build 0)  -->
<svg version="1.1" id="圖層_1" xmlns="http://www.w3.org/2000/svg" xmlns:xlink="http://www.w3.org/1999/xlink" x="0px" y="0px"
	 viewBox="0 0 72 72" style="enable-background:new 0 0 72 72;" xml:space="preserve">
<style type="text/css">
	.st0{fill-rule:evenodd;clip-rule:evenodd;}
</style>
<g>
	<path class="st0" d="M52.6,29.5c3.4,0,6.2,2.8,6.2,6.3v21.4c0,5.8-4.7,10.5-10.4,10.5h-6.6C41,70.2,38.7,72,36,72
		c-3.4,0-6.2-2.8-6.2-6.3c0-3.5,2.8-6.3,6.2-6.3c2.7,0,5,1.8,5.8,4.2h6.6c2.8,0,5.2-1.9,5.9-4.5c-0.6,0.2-1.2,0.3-1.8,0.3
		c-3.4,0-6.2-2.8-6.2-6.3V35.9C46.4,32.4,49.2,29.5,52.6,29.5z"/>
	<path class="st0" d="M19.4,29.5c3.4,0,6.2,2.8,6.2,6.3V53c0,3.5-2.8,6.3-6.2,6.3c-3.4,0-6.2-2.8-6.2-6.3V35.9
		C13.2,32.4,16,29.5,19.4,29.5z"/>
	<path class="st0" d="M9.2,34.1c-0.1,0.6-0.2,1.2-0.2,1.8V53c0,0.6,0.1,1.2,0.2,1.8c-2.6-0.9-4.3-3.3-4.3-6v-8.7
		C4.9,37.3,6.7,34.9,9.2,34.1L9.2,34.1z"/>
	<path class="st0" d="M62.8,34.1c2.5,0.8,4.3,3.2,4.3,6v8.7c0,2.8-1.8,5.2-4.3,6c0.1-0.6,0.2-1.2,0.2-1.8V35.9
		C62.9,35.3,62.9,34.7,62.8,34.1z"/>
	<path class="st0" d="M36,0c17.1,0,31.1,14.2,31.1,31.6v0.1c-1.2-1-2.7-1.6-4.2-2C61.9,15.5,50.2,4.2,36,4.2S10.1,15.5,9.2,29.7
		c-1.5,0.3-3,1-4.2,2v-0.1C4.9,14.2,18.9,0,36,0z"/>
</g>
</svg>
