<?xml version="1.0" encoding="utf-8"?>
<!-- Generator: Adobe Illustrator 25.0.1, SVG Export Plug-In . SVG Version: 6.00 Build 0)  -->
<svg version="1.1" id="圖層_1" xmlns="http://www.w3.org/2000/svg" xmlns:xlink="http://www.w3.org/1999/xlink" x="0px" y="0px"
	 viewBox="0 0 72 72" style="enable-background:new 0 0 72 72;" xml:space="preserve">
<style type="text/css">
	.st0{fill-rule:evenodd;clip-rule:evenodd;}
</style>
<path class="st0" d="M38.3,7.2c-1.3-1.3-3.3-1.3-4.5,0L7.3,33.6c-2,2-0.6,5.5,2.3,5.5h4v22.4c0,2.4,1.9,4.3,4.3,4.3h10.8V49.4
	c0-2.4,0.7-3.5,3.1-3.5h8.5c2.4,0,3.1,1.1,3.1,3.5v16.4h10.8c2.4,0,4.3-1.9,4.3-4.3V39.1h4c2.9,0,4.3-3.4,2.3-5.5L38.3,7.2L38.3,7.2
	z"/>
</svg>
