<?xml version="1.0" encoding="utf-8"?>
<!-- Generator: Adobe Illustrator 26.0.0, SVG Export Plug-In . SVG Version: 6.00 Build 0)  -->
<svg version="1.1" id="圖層_1" xmlns="http://www.w3.org/2000/svg" xmlns:xlink="http://www.w3.org/1999/xlink" x="0px" y="0px"
	 viewBox="0 0 72 72" style="enable-background:new 0 0 72 72;" xml:space="preserve">
<style type="text/css">
	.st0{fill:#00C200;}
	.st1{fill:#FFFFFF;}
	.st2{fill:#00C500;}
</style>
<path class="st0" d="M60,6H12c-3.3,0-6,2.7-6,6v48c0,3.3,2.7,6,6,6h48c3.3,0,6-2.7,6-6V12C66,8.7,63.3,6,60,6z"/>
<path class="st1" d="M57.9,31.9C57.4,22.6,47.8,15.2,36,15.2c-12.1,0-22,7.8-22,17.5c0,8.9,8.3,16.2,19.1,17.3
	c0.7,0.1,1.1,0.7,1.1,1.3l-0.5,4.1c-0.1,0.7,0.4,1.2,1.1,1.3c0.2,0,0.4,0,0.6-0.1c9.1-4.4,14.5-8.9,17.8-12.8
	c0.6-0.7,2.5-3.4,2.9-4.1c0.8-1.5,1.4-3.1,1.7-4.8c0.1-0.5,0.2-1,0.2-1.3C58,33,58,32.4,57.9,31.9z"/>
<path class="st2" d="M27.3,36.2h-3.4v0v0v-7.4c0-0.6-0.5-1.1-1.1-1.1s-1.1,0.5-1.1,1.1v8.5c0,0.6,0.5,1.1,1.1,1.1h4.5
	c0.6,0,1.1-0.5,1.1-1.1S27.9,36.2,27.3,36.2z"/>
<path class="st2" d="M30.8,27.7h-0.5c-0.5,0-0.9,0.4-0.9,0.9v9c0,0.5,0.4,0.9,0.9,0.9h0.5c0.5,0,0.9-0.4,0.9-0.9v-9
	C31.7,28.1,31.3,27.7,30.8,27.7z"/>
<path class="st2" d="M41,27.7c-0.6,0-1.1,0.5-1.1,1.1V34c0,0-4.5-5.8-4.6-5.9c-0.2-0.3-0.5-0.4-0.9-0.4c-0.6,0-1.1,0.6-1.1,1.2v8.4
	c0,0.6,0.5,1.1,1.1,1.1s1.1-0.5,1.1-1.1v-5.1c0,0,4.6,5.9,4.6,6c0.2,0.2,0.5,0.3,0.8,0.3c0.6,0,1.1-0.5,1.1-1.2v-8.4
	C42.2,28.3,41.7,27.7,41,27.7z"/>
<path class="st2" d="M49.5,36.2h-3.4v-2h3.4c0.6,0,1.1-0.5,1.1-1.1S50.1,32,49.5,32h-3.4v-2h3.4c0.6,0,1.1-0.5,1.1-1.1c0,0,0,0,0,0
	c0-0.6-0.5-1.1-1.1-1.1H45c-0.6,0-1.1,0.5-1.1,1.1v8.5c0,0.6,0.5,1.1,1.1,1.1h4.5c0.6,0,1.1-0.5,1.1-1.1S50.1,36.2,49.5,36.2z"/>
</svg>
