<?xml version="1.0" encoding="utf-8"?>
<!-- Generator: Adobe Illustrator 26.0.0, SVG Export Plug-In . SVG Version: 6.00 Build 0)  -->
<svg version="1.1" id="圖層_1" xmlns="http://www.w3.org/2000/svg" xmlns:xlink="http://www.w3.org/1999/xlink" x="0px" y="0px"
	 viewBox="0 0 72 72" style="enable-background:new 0 0 72 72;" xml:space="preserve">
<g>
	<path d="M38.7,43.9L38.7,43.9l-19.4,0c-1.2,0-2.1-0.9-2.1-2.1c0,0,0,0,0,0c0-1.2,1-2.1,2.1-2.1h24.2c4.1-2.3,9-2.7,13.4-1.2V12.3
		C57,8.8,54.1,6,50.5,6H14c-3.6,0-6.5,2.8-6.5,6.3v44.2c0,3.5,2.9,6.3,6.5,6.3h24.8c-2.1-2.7-3.2-6-3.3-9.5
		C35.5,49.8,36.7,46.5,38.7,43.9z M17.2,18.6c0-1.2,1-2.1,2.1-2.1h25.8c1.2,0,2.1,0.9,2.1,2.1c0,1.2-1,2.1-2.1,2.1c0,0,0,0,0,0H19.3
		C18.2,20.7,17.2,19.8,17.2,18.6C17.2,18.6,17.2,18.6,17.2,18.6z M17.2,30.2c0-1.2,1-2.1,2.1-2.1h25.8c1.2,0,2.1,0.9,2.1,2.1
		c0,1.2-1,2.1-2.1,2.1c0,0,0,0,0,0H19.3C18.2,32.3,17.2,31.4,17.2,30.2C17.2,30.2,17.2,30.2,17.2,30.2z"/>
	<path d="M51.6,40.7L51.6,40.7c-7.1,0-12.9,5.7-12.9,12.6c0,7,5.8,12.6,12.9,12.6c7.1,0,12.9-5.7,12.9-12.6S58.7,40.7,51.6,40.7z
		 M59.2,51.2C59.2,51.2,59.2,51.2,59.2,51.2L59.2,51.2l-7.7,7.5c-0.8,0.8-2.2,0.8-3,0L44,54.2c-0.8-0.8-0.8-2.1,0-2.9c0,0,0,0,0,0
		c0.8-0.8,2.2-0.8,3,0l3,3l6.1-6c0.8-0.8,2.2-0.8,3,0C60,49.1,60,50.4,59.2,51.2z"/>
</g>
</svg>
