<?xml version="1.0" encoding="utf-8"?>
<!-- Generator: Adobe Illustrator 26.0.0, SVG Export Plug-In . SVG Version: 6.00 Build 0)  -->
<svg version="1.1" id="圖層_1" xmlns="http://www.w3.org/2000/svg" xmlns:xlink="http://www.w3.org/1999/xlink" x="0px" y="0px"
	 viewBox="0 0 72 72" style="enable-background:new 0 0 72 72;" xml:space="preserve">
<path d="M57.3,31.7L57.3,31.7h-2.1v-6.4C55.1,14.6,46.6,6,36,6s-19.1,8.6-19.1,19.3v6.4h-2.1c-2.3,0-4.2,1.9-4.2,4.3v25.7
	c0,2.4,1.9,4.3,4.2,4.3h42.5c2.3,0,4.3-1.9,4.3-4.3V36C61.5,33.6,59.6,31.7,57.3,31.7z M38.1,50.5L38.1,50.5v3.7
	c0,1.2-0.9,2.1-2.1,2.1c-1.2,0-2.1-1-2.1-2.1v-3.7c-1.6-0.8-2.7-2.5-2.7-4.3c0-2.7,2.1-4.8,4.8-4.8c2.6,0,4.8,2.2,4.8,4.8
	C40.8,48.1,39.7,49.7,38.1,50.5z M48.7,31.7H23.2v-6.4c0-7.1,5.7-12.9,12.8-12.9s12.7,5.8,12.7,12.9V31.7z"/>
</svg>
