<?xml version="1.0" encoding="utf-8"?>
<!-- Generator: Adobe Illustrator 26.0.0, SVG Export Plug-In . SVG Version: 6.00 Build 0)  -->
<svg version="1.1" id="圖層_1" xmlns="http://www.w3.org/2000/svg" xmlns:xlink="http://www.w3.org/1999/xlink" x="0px" y="0px"
	 viewBox="0 0 72 72" style="enable-background:new 0 0 72 72;" xml:space="preserve">
<style type="text/css">
	.st0{fill-rule:evenodd;clip-rule:evenodd;}
</style>
<path class="st0" d="M59.9,27L40.3,38.1L36,40.6l-4.3-2.4L12.1,27c-1-0.6-1.4-1.8-0.8-2.8c0,0,0,0,0,0c0.6-1,1.9-1.3,2.9-0.8
	L36,35.7l21.8-12.3c1-0.6,2.3-0.2,2.9,0.8C61.2,25.2,60.9,26.4,59.9,27C59.9,27,59.9,27,59.9,27 M59.6,15H12.4C8.9,15,6,17.8,6,21.3
	v29.4c0,3.5,2.9,6.3,6.4,6.3h47.1c3.6,0,6.4-2.8,6.4-6.3V21.3C66,17.8,63.1,15,59.6,15"/>
</svg>
