<?xml version="1.0" encoding="utf-8"?>
<!-- Generator: Adobe Illustrator 26.0.0, SVG Export Plug-In . SVG Version: 6.00 Build 0)  -->
<svg version="1.1" id="圖層_1" xmlns="http://www.w3.org/2000/svg" xmlns:xlink="http://www.w3.org/1999/xlink" x="0px" y="0px"
	 viewBox="0 0 72 72" style="enable-background:new 0 0 72 72;" xml:space="preserve">
<path d="M36,6C19.4,6,6,19.4,6,36s13.4,30,30,30s30-13.4,30-30S52.6,6,36,6z M45.4,45.4c-1.3,2.1-3.4,3.5-6.3,4.2
	c-0.5,0.1-0.6,0.3-0.6,0.6c0,1.1,0,2.1,0,3.2V54h-5.2v-0.9c0-1,0-1.9,0-2.9c0-0.3-0.1-0.4-0.5-0.5c-4-1.1-6.5-3.3-7.2-6.5
	c-0.2-1,0-2.1,0-3.1h5.1c0,0.7,0,1.4,0,2.1c0.1,2,2.1,3.7,4.7,3.9c3.2,0.3,6.3-2.2,5.6-4.6c-0.2-0.8-0.8-1.4-1.7-1.8
	c-1.3-0.7-2.7-1.3-4.1-1.9c-2-0.8-3.9-1.6-5.6-2.8c-4.2-3.1-4.2-8.2,0.2-11c0.8-0.5,1.9-0.9,2.9-1.3c0.4-0.1,0.5-0.3,0.5-0.6
	c0-1.2,0-2.3,0-3.5V18h5.2h0c0,1,0.1,1.9,0,2.9c-0.1,1.1,0.2,1.6,1.7,2.1c3.2,1.1,4.9,3.2,5,5.9c0,0.7,0,1.4,0,2.2H40
	c0-0.7,0-1.4,0-2.1c-0.1-1.4-1.4-2.5-3.1-2.8c-1.7-0.3-3.4,0.2-4.3,1.3c-0.9,1-0.9,2.6,0.1,3.7c0.5,0.6,1.2,1,1.9,1.4
	c1.6,0.8,3.3,1.4,4.8,2.1c1.2,0.6,2.5,1.1,3.6,1.8C46.5,38.8,47.5,42.2,45.4,45.4z"/>
</svg>
