<?xml version="1.0" encoding="utf-8"?>
<!-- Generator: Adobe Illustrator 25.0.1, SVG Export Plug-In . SVG Version: 6.00 Build 0)  -->
<svg version="1.1" id="圖層_1" xmlns="http://www.w3.org/2000/svg" xmlns:xlink="http://www.w3.org/1999/xlink" x="0px" y="0px"
	 viewBox="0 0 72 72" style="enable-background:new 0 0 72 72;" xml:space="preserve">
<style type="text/css">
	.st0{fill-rule:evenodd;clip-rule:evenodd;}
</style>
<g>
	<path class="st0" d="M20.6,51.4l0.1,0c-0.1-0.9-0.1-1.7-0.1-2.6c0-1.8,0.2-3.5,0.5-5.2c-0.2,0-0.3,0-0.5,0c-6.7,0-12.7-2-16.4-5.1
		c-1.8-1.5-3.1-3.2-3.7-5.1H0V36c0,0.9,0.1,4.3,0.4,5.1C2.3,47,10.6,51.4,20.6,51.4"/>
	<path class="st0" d="M20.6,56.6c-6.7,0-12.7-2-16.4-5.1c-1.8-1.5-3.1-3.2-3.7-5.1H0v2.6c0,0.9,0.1,4.3,0.4,5.1
		c1.9,5.9,10.2,10.3,20.2,10.3c1.5,0,3-0.1,4.4-0.3c-1.5-2.3-2.6-4.8-3.3-7.5C21.3,56.5,20.9,56.6,20.6,56.6"/>
	<path class="st0" d="M20.6,38.6c0.7,0,1.3,0,2-0.1c1.2-3.1,3-6,5.2-8.5c-2.3,0.5-4.8,0.8-7.2,0.8c-6.7,0-12.7-2-16.4-5.1
		c-1.8-1.5-3.1-3.2-3.7-5.1H0v2.6c0,0.9,0.1,4.3,0.4,5.1C2.3,34.2,10.6,38.6,20.6,38.6"/>
	<path class="st0" d="M20.6,25.7c11.4,0,20.6-5.8,20.6-12.9S31.9,0,20.6,0S0,5.8,0,12.9S9.2,25.7,20.6,25.7"/>
	<path d="M48.9,25.7c-12.8,0-23.1,10.4-23.1,23.1S36.1,72,48.9,72C61.6,72,72,61.6,72,48.9S61.6,25.7,48.9,25.7z M50.8,42.9
		c-0.4-0.4-0.9-0.6-1.6-0.6c-0.7,0-1.2,0.2-1.5,0.5c-0.3,0.3-0.5,0.8-0.5,1.4c0,0.5,0.1,0.9,0.5,1.3v0c0.3,0.3,0.9,0.7,2.3,1.2
		c1.3,0.5,2.3,0.9,3.1,1.3c0.8,0.4,1.5,0.9,2.2,1.5c0.6,0.6,1.1,1.2,1.4,1.9c0.3,0.7,0.5,1.6,0.5,2.5c0,1.8-0.6,3.3-1.9,4.4
		c-1.1,1-2.6,1.6-4.4,1.9v2.2c0,0.4-0.3,0.6-0.6,0.6h-2.5c-0.4,0-0.6-0.3-0.6-0.6c0,0,0,0,0,0v-2.2c-2-0.3-3.6-1-4.8-2.2
		c-1.3-1.3-2-3-2-5.1c0-0.4,0.3-0.6,0.6-0.6h4.5c0.4,0,0.6,0.3,0.6,0.6c0,1,0.2,1.7,0.7,2.1c0.5,0.5,1.1,0.7,2.1,0.7
		c0.8,0,1.4-0.2,1.8-0.5c0.4-0.3,0.6-0.8,0.6-1.3c0-0.6-0.2-1.1-0.5-1.4c-0.3-0.3-0.9-0.7-2.2-1.1c-1-0.3-2-0.7-3-1.2
		c-0.9-0.4-1.6-0.9-2.3-1.4c-0.6-0.5-1.2-1.2-1.5-2c-0.4-0.8-0.6-1.8-0.6-2.7c0-1.8,0.6-3.3,1.9-4.4c1.1-1,2.5-1.6,4.3-1.9v-2.5
		c0-0.4,0.3-0.6,0.6-0.6h2.5c0.4,0,0.6,0.3,0.6,0.6v2.5c1.7,0.3,3.1,1.1,4.2,2.2c1.1,1.3,1.7,2.9,1.7,4.9c0,0.4-0.3,0.6-0.6,0.6
		c0,0,0,0,0,0h-4.5c-0.4,0-0.6-0.3-0.6-0.6c0,0,0,0,0,0C51.4,44.1,51.2,43.4,50.8,42.9z"/>
</g>
</svg>
