<?xml version="1.0" encoding="utf-8"?>
<!-- Generator: Adobe Illustrator 26.0.0, SVG Export Plug-In . SVG Version: 6.00 Build 0)  -->
<svg version="1.1" id="圖層_1" xmlns="http://www.w3.org/2000/svg" xmlns:xlink="http://www.w3.org/1999/xlink" x="0px" y="0px"
	 viewBox="0 0 72 72" style="enable-background:new 0 0 72 72;" xml:space="preserve">
<style type="text/css">
	.st0{fill-rule:evenodd;clip-rule:evenodd;}
</style>
<g>
	<path class="st0" d="M58.2,23.3L69,32.4l-2.6,3l-5.7-4.8c1.9,6.4,1.5,12.6-1.4,18.5c-2.9,5.9-7.5,10.2-13.7,12.7
		c-5.4,2.1-11,2.4-16.6,0.8c-3.7-1-6.9-2.8-9.8-5.2l2.6-3c4.3,3.5,9.3,5.3,15,5.1c5.7-0.2,10.6-2.2,14.6-6.2
		c7.3-7.1,7.5-16.6,5.2-22.1l-4.5,5.1L49,33.9C49,33.9,58.2,23.3,58.2,23.3z"/>
	<path class="st0" d="M38,17.4c0,1,0.1,1.9,0,2.9c-0.1,1.1,0.2,1.6,1.3,2.1c2.5,1.1,3.8,3.2,3.9,5.9c0,0.7,0,1.4,0,2.2h-4
		c0-0.7,0-1.4,0-2.1C39,27,38,25.9,36.7,25.7c-1.3-0.3-2.6,0.2-3.3,1.3c-0.7,1-0.7,2.6,0.1,3.7c0.4,0.5,0.9,1,1.4,1.4
		c1.2,0.8,2.5,1.4,3.7,2.1c1,0.6,1.9,1.1,2.8,1.8c2.8,2.2,3.5,5.6,1.9,8.8c-1,2.1-2.6,3.5-4.8,4.2C38.1,49,38,49.1,38,49.5
		c0,1.1,0,2.1,0,3.2v0.6h-4v-0.9c0-1,0-1.9,0-2.9c0-0.3-0.1-0.4-0.4-0.5c-3.1-1.1-5-3.3-5.6-6.5c-0.2-1,0-2.1,0-3.1h4
		c0,0.7,0,1.4,0,2.1c0.1,2,1.6,3.6,3.7,3.9c2.5,0.3,4.9-2.2,4.3-4.6c-0.2-0.8-0.6-1.4-1.3-1.8c-1-0.7-2.1-1.3-3.2-1.9
		c-1.5-0.8-3-1.6-4.3-2.8c-3.2-3.1-3.2-8.1,0.1-10.9c0.6-0.5,1.5-0.9,2.2-1.3c0.3-0.1,0.4-0.3,0.4-0.6c0-1.1,0-2.3,0-3.4v-0.6
		C33.9,17.4,38,17.4,38,17.4z"/>
	<path class="st0" d="M20.3,13.6c8.1-6.3,20.1-7,28.9-1.7c0.8,0.5,1.6,1,2.5,1.6l1.2,1l-2.6,3c-8.8-7.3-21.6-6.7-29.5,1
		c-7.2,7-7.7,16.5-5.4,22.2l4.5-5.1c1,0.9,2,1.7,3,2.6l-9.2,10.5L3,39.6l2.6-3l2.8,2.3l2.8,2.4c-0.1-0.2-0.1-0.3-0.1-0.4
		C8.2,30.6,11.7,20.2,20.3,13.6L20.3,13.6z"/>
</g>
</svg>
