<?xml version="1.0" encoding="utf-8"?>
<!-- Generator: Adobe Illustrator 25.0.1, SVG Export Plug-In . SVG Version: 6.00 Build 0)  -->
<svg version="1.1" id="圖層_1" xmlns="http://www.w3.org/2000/svg" xmlns:xlink="http://www.w3.org/1999/xlink" x="0px" y="0px"
	 viewBox="0 0 72 72" style="enable-background:new 0 0 72 72;" xml:space="preserve">
<style type="text/css">
	.st0{fill-rule:evenodd;clip-rule:evenodd;}
</style>
<path class="st0" d="M56.6,55.3H15.4v-9c0-4.3,3.5-7.7,7.7-7.7h25.7c4.3,0,7.7,3.5,7.7,7.7V55.3z M36,14.1c5.7,0,10.3,4.6,10.3,10.3
	S41.7,34.7,36,34.7s-10.3-4.6-10.3-10.3S30.3,14.1,36,14.1z M36,0C16.1,0,0,16.1,0,36s16.1,36,36,36s36-16.1,36-36S55.9,0,36,0z"/>
</svg>
