<?xml version="1.0" encoding="utf-8"?>
<!-- Generator: Adobe Illustrator 26.0.0, SVG Export Plug-In . SVG Version: 6.00 Build 0)  -->
<svg version="1.1" id="圖層_1" xmlns="http://www.w3.org/2000/svg" xmlns:xlink="http://www.w3.org/1999/xlink" x="0px" y="0px"
	 viewBox="0 0 72 72" style="enable-background:new 0 0 72 72;" xml:space="preserve">
<style type="text/css">
	.st0{fill-rule:evenodd;clip-rule:evenodd;}
</style>
<path class="st0" d="M65.9,52.5c-0.2-0.5-1.2-1.3-3.2-2.3c-0.5-0.3-1.3-0.7-2.3-1.3c-0.9-0.5-1.8-1-2.7-1.5
	c-0.8-0.5-1.6-0.9-2.3-1.3c-0.4-0.3-0.7-0.5-1.1-0.7c-0.6-0.4-1.1-0.7-1.5-0.9c-0.4-0.2-0.8-0.3-1.2-0.3c-0.6,0-1.3,0.4-2.1,1.2
	c-0.9,0.8-1.6,1.7-2.3,2.6c-0.7,1-1.5,1.8-2.3,2.6c-0.8,0.8-1.4,1.2-2,1.2c-0.3,0-0.7-0.1-1-0.2c-0.3-0.1-0.6-0.2-0.9-0.4
	c-0.2-0.1-0.5-0.3-1-0.6c-0.3-0.2-0.5-0.3-0.8-0.5c-3.9-2.2-7.2-4.6-10-7.4c-2.8-2.8-5.3-6.1-7.4-10c-0.2-0.3-0.3-0.5-0.5-0.8
	c-0.2-0.3-0.4-0.7-0.6-1c-0.1-0.3-0.3-0.6-0.4-0.9c-0.1-0.3-0.2-0.6-0.2-1c0-0.5,0.4-1.2,1.2-2c0.8-0.8,1.7-1.5,2.6-2.3
	c1-0.7,1.8-1.5,2.6-2.3c0.8-0.9,1.2-1.6,1.2-2.1c0-0.4-0.1-0.8-0.3-1.2c-0.3-0.5-0.6-1-0.9-1.5c-0.4-0.6-0.7-1-0.7-1.1
	c-0.5-0.8-0.9-1.5-1.3-2.3c-0.5-0.9-1-1.8-1.5-2.7c-0.5-1-1-1.8-1.3-2.3c-1-2-1.7-3.1-2.3-3.2C19.2,6,18.9,6,18.6,6
	c-0.8,0-1.8,0.1-3,0.4c-1,0.2-2,0.5-2.9,0.9c-1.4,0.6-2.9,2.3-4.5,5.2C6.7,15.2,6,17.8,6,20.4C6,21.2,6,22,6.1,22.7
	c0.1,0.7,0.3,1.5,0.5,2.4c0.3,0.9,0.5,1.6,0.6,2c0.2,0.4,0.5,1.2,0.9,2.4c0.4,1.1,0.7,1.8,0.8,2.1c1,2.8,2.2,5.3,3.5,7.5
	c2.2,3.6,5.3,7.4,9.2,11.3c3.9,3.9,7.6,6.9,11.3,9.2c2.2,1.4,4.7,2.5,7.5,3.5c0.3,0.1,1,0.3,2.1,0.8c1.1,0.4,1.9,0.7,2.4,0.9
	c0.4,0.2,1.1,0.4,2,0.6c0.9,0.3,1.7,0.4,2.5,0.5C50,66,50.8,66,51.6,66c2.6,0,5.3-0.7,7.9-2.2c2.9-1.6,4.6-3.1,5.2-4.5
	c0.3-0.7,0.6-1.7,0.9-2.9c0.3-1.2,0.4-2.2,0.4-3C66,53.1,66,52.8,65.9,52.5z"/>
</svg>
