<?xml version="1.0" encoding="utf-8"?>
<!-- Generator: Adobe Illustrator 26.0.0, SVG Export Plug-In . SVG Version: 6.00 Build 0)  -->
<svg version="1.1" id="圖層_1" xmlns="http://www.w3.org/2000/svg" xmlns:xlink="http://www.w3.org/1999/xlink" x="0px" y="0px"
	 viewBox="0 0 72 72" style="enable-background:new 0 0 72 72;" xml:space="preserve">
<style type="text/css">
	.st0{fill-rule:evenodd;clip-rule:evenodd;}
</style>
<g>
	<path class="st0" d="M27.3,40.3c0.6,0,1.1,0.2,1.5,0.6c0.4,0.4,0.7,0.9,0.6,1.5c0,0.6-0.2,1.1-0.6,1.5l-4.6,4.6
		c1.6,1.5,3.4,2.6,5.4,3.5c2,0.8,4.2,1.2,6.3,1.2c3,0,5.8-0.7,8.5-2.2c2.6-1.5,4.7-3.5,6.3-6.1c0.2-0.4,0.8-1.7,1.8-4
		c0.2-0.5,0.5-0.8,1-0.8h6.5c0.3,0,0.6,0.1,0.8,0.3c0.3,0.3,0.4,0.6,0.3,1c-1.4,6-4.5,11-9.1,14.7C47.4,60.1,42,62,35.9,62
		c-6.6,0-13-2.6-17.8-7.2l-4.4,4.4c-0.4,0.4-1,0.6-1.5,0.6c-0.6,0-1.1-0.2-1.5-0.7c-0.4-0.4-0.6-0.9-0.6-1.5V42.5
		c0-0.6,0.2-1.1,0.6-1.5c0.4-0.4,0.9-0.7,1.5-0.7L27.3,40.3z"/>
	<path class="st0" d="M36,10c3.3,0,6.5,0.6,9.6,1.9c3.1,1.3,5.9,3,8.3,5.3l4.4-4.4c0.4-0.4,1-0.6,1.5-0.6c0.6,0,1.1,0.2,1.5,0.6
		c0.4,0.4,0.6,0.9,0.6,1.5v15.2c0,0.6-0.2,1.1-0.6,1.5c-0.4,0.4-0.9,0.7-1.5,0.6H44.7c-0.6,0-1.1-0.2-1.5-0.6
		c-0.4-0.4-0.6-0.9-0.6-1.5c0-0.6,0.2-1.1,0.6-1.5l4.7-4.7c-3.2-3-7.4-4.7-11.8-4.6c-3,0-5.8,0.7-8.5,2.2c-2.6,1.4-4.8,3.5-6.3,6.1
		c-0.2,0.4-0.8,1.7-1.8,4c-0.2,0.5-0.5,0.8-1,0.8h-6.7c-0.3,0-0.6-0.1-0.8-0.3c-0.2-0.2-0.3-0.5-0.3-0.8v-0.2c1.5-6,4.5-11,9.1-14.7
		C24.4,11.9,29.8,10,36,10z"/>
</g>
</svg>
