<?xml version="1.0" encoding="utf-8"?>
<!-- Generator: Adobe Illustrator 25.0.1, SVG Export Plug-In . SVG Version: 6.00 Build 0)  -->
<svg version="1.1" id="圖層_1" xmlns="http://www.w3.org/2000/svg" xmlns:xlink="http://www.w3.org/1999/xlink" x="0px" y="0px"
	 viewBox="0 0 72 72" style="enable-background:new 0 0 72 72;" xml:space="preserve">
<style type="text/css">
	.st0{fill-rule:evenodd;clip-rule:evenodd;fill:#FFFFFF;}
</style>
<path class="st0" d="M33,6c14.9,0,27,12.1,27,27c0,6.1-2.1,12.1-5.9,16.9l11,11c1.2,1.2,1.2,3.1,0,4.2c-1.1,1.1-2.8,1.2-4,0.3
	l-0.3-0.3l-11-11c-11.6,9.3-28.6,7.4-37.9-4.2s-7.4-28.6,4.2-37.9C20.9,8.1,26.9,6,33,6L33,6z M33,12c-11.6,0-21,9.4-21,21
	s9.4,21,21,21c5.5,0,10.7-2.1,14.7-6c0.1-0.1,0.1-0.2,0.2-0.2l0.2-0.2c8.1-8.3,7.9-21.6-0.4-29.7C43.7,14.1,38.5,12,33,12z"/>
</svg>
