<?xml version="1.0" encoding="utf-8"?>
<!-- Generator: Adobe Illustrator 26.0.0, SVG Export Plug-In . SVG Version: 6.00 Build 0)  -->
<svg version="1.1" id="圖層_1" xmlns="http://www.w3.org/2000/svg" xmlns:xlink="http://www.w3.org/1999/xlink" x="0px" y="0px"
	 viewBox="0 0 72 72" style="enable-background:new 0 0 72 72;" xml:space="preserve">
<style type="text/css">
	.st0{fill:#15ACE5;}
	.st1{fill:#FFFFFF;}
</style>
<circle class="st0" cx="36" cy="36" r="30"/>
<path class="st1" d="M56,39.9c2-10.4-4.8-20.6-15.2-22.6c-2.4-0.5-5-0.5-7.4,0c-5.3-3.1-12.1-1.3-15.2,4c-2,3.5-2,7.7,0,11.2
	c-2,10.4,4.8,20.6,15.2,22.6c2.4,0.5,5,0.5,7.4,0c5.3,3.1,12.1,1.3,15.2-4C58,47.6,58,43.3,56,39.9z M37.5,49.4
	c-6.8,0-10.3-2.6-11.3-5.8c-1.1-3.2,1.3-4.1,2-4.2s2.3,0.1,2.7,1.4c0.5,1.4,2,4.1,5.3,4.5c3.3,0.3,5.5-1.2,6.1-2.8
	c0.7-1.6-0.5-3.8-5.6-4.5c-5.1-0.7-10.3-3-10.3-8s5.8-7.1,11.3-7.1c5.5,0,8.3,3.1,9,4.3c0.8,1.5,0.5,4-1.3,4.5
	c-1.9,0.5-2.9-0.6-4.3-3.2c-1.4-2.7-6.5-2-8.2-0.5c-1.7,1.5-1.3,3.7,5.9,5.1c7.1,1.4,9.7,3.9,9.7,8C48.3,45.2,44.3,49.4,37.5,49.4z"
	/>
</svg>
