<?xml version="1.0" encoding="utf-8"?>
<!-- Generator: Adobe Illustrator 25.0.1, SVG Export Plug-In . SVG Version: 6.00 Build 0)  -->
<svg version="1.1" id="圖層_1" xmlns="http://www.w3.org/2000/svg" xmlns:xlink="http://www.w3.org/1999/xlink" x="0px" y="0px"
	 viewBox="0 0 72 72" style="enable-background:new 0 0 72 72;" xml:space="preserve">
<g>
	<path d="M66.9,28.3H51.4c-2.8,0-5.1,2.3-5.1,5.1v5.1c0,2.8,2.3,5.1,5.1,5.1h15.4c2.8,0,5.1-2.3,5.1-5.1v-5.1
		C72,30.6,69.7,28.3,66.9,28.3z M54,38.6c-1.4,0-2.6-1.2-2.6-2.6s1.2-2.6,2.6-2.6s2.6,1.2,2.6,2.6S55.4,38.6,54,38.6z"/>
	<path d="M41.1,41.1V30.9c0-4.3,3.5-7.7,7.7-7.7h18v-7.7c0-4.3-3.5-7.7-7.7-7.7H7.7C3.5,7.7,0,11.2,0,15.4v41.1
		c0,4.3,3.5,7.7,7.7,7.7h51.4c4.3,0,7.7-3.5,7.7-7.7v-7.7h-18C44.6,48.9,41.1,45.4,41.1,41.1z"/>
</g>
</svg>
