<?xml version="1.0" encoding="utf-8"?>
<!-- Generator: Adobe Illustrator 26.0.0, SVG Export Plug-In . SVG Version: 6.00 Build 0)  -->
<svg version="1.1" id="圖層_1" xmlns="http://www.w3.org/2000/svg" xmlns:xlink="http://www.w3.org/1999/xlink" x="0px" y="0px"
	 viewBox="0 0 72 72" style="enable-background:new 0 0 72 72;" xml:space="preserve">
<path d="M63,29.2H49.5c-2.5,0-4.5,2-4.5,4.5v4.5c0,2.5,2,4.5,4.5,4.5H63c2.5,0,4.5-2,4.5-4.5v-4.5C67.5,31.3,65.5,29.2,63,29.2z
	 M51.8,38.2c-1.2,0-2.2-1-2.2-2.2s1-2.2,2.2-2.2s2.2,1,2.2,2.2S53,38.2,51.8,38.2z"/>
<path d="M40.5,40.5v-9c0-3.7,3-6.8,6.8-6.8H63V18c0-3.7-3-6.8-6.8-6.8h-45c-3.7,0-6.8,3-6.8,6.8v36c0,3.7,3,6.8,6.8,6.8h45
	c3.7,0,6.8-3,6.8-6.8v-6.8H47.2C43.5,47.2,40.5,44.2,40.5,40.5z"/>
</svg>
