<?xml version="1.0" encoding="utf-8"?>
<!-- Generator: Adobe Illustrator 26.0.0, SVG Export Plug-In . SVG Version: 6.00 Build 0)  -->
<svg version="1.1" id="圖層_1" xmlns="http://www.w3.org/2000/svg" xmlns:xlink="http://www.w3.org/1999/xlink" x="0px" y="0px"
	 viewBox="0 0 72 72" style="enable-background:new 0 0 72 72;" xml:space="preserve">
<path d="M36,9C21.1,9,9,21.1,9,36s12.1,27,27,27s27-12.1,27-27S50.9,9,36,9z M49.5,43.7H27.2l4.9,4.9c0.8,0.8,0.8,2,0,2.7
	c-0.8,0.8-2,0.8-2.7,0l-8.2-8.2C21,43.1,21,43,20.9,42.9c0,0-0.1-0.1-0.1-0.1c0-0.1-0.1-0.1-0.1-0.2c0-0.1,0-0.1-0.1-0.2
	c0-0.1,0-0.1-0.1-0.2c0-0.2,0-0.5,0-0.8c0-0.1,0-0.1,0.1-0.2c0-0.1,0-0.1,0.1-0.2c0-0.1,0.1-0.1,0.1-0.2c0,0,0-0.1,0.1-0.1
	c0.1-0.2,0.3-0.4,0.5-0.5c0,0,0.1-0.1,0.1-0.1c0.1,0,0.1-0.1,0.2-0.1c0.1,0,0.1,0,0.2-0.1c0.1,0,0.1,0,0.2,0c0.1,0,0.3,0,0.4,0h27
	c1.1,0,1.9,0.9,1.9,2C51.3,42.9,50.5,43.7,49.5,43.7z M51.4,30.6c0,0.1,0,0.1-0.1,0.2c0,0.1,0,0.1-0.1,0.2c0,0.1-0.1,0.1-0.1,0.2
	c0,0.1,0,0.1-0.1,0.1c-0.1,0.2-0.3,0.4-0.5,0.5c0,0-0.1,0.1-0.1,0.1c-0.1,0-0.1,0.1-0.2,0.1c-0.1,0-0.1,0-0.2,0.1
	c-0.1,0-0.1,0-0.2,0c-0.1,0-0.3,0-0.4,0h-27c-1.1,0-1.9-0.9-1.9-2c0-1,0.9-1.8,1.9-1.9h22.3L40,23.4c-0.8-0.8-0.8-2,0-2.7
	c0.8-0.8,2-0.8,2.7,0l8.2,8.2c0.1,0.1,0.2,0.2,0.2,0.3c0,0,0.1,0.1,0.1,0.1c0,0.1,0.1,0.1,0.1,0.2c0,0.1,0,0.1,0.1,0.2
	c0,0.1,0,0.1,0.1,0.2C51.4,30.1,51.4,30.3,51.4,30.6z"/>
</svg>
