<svg xmlns="http://www.w3.org/2000/svg" viewBox="0 0 72 144" style="enable-background:new 0 0 72 144" xml:space="preserve"><path d="M24 66.14h6V72h-6zm18 0h6V72h-6zm-9-3.78h6v5.85h-6zm27-20.68v-5.86h-6v-5.86h-6V12.4h-3V6.54h-3V3.28h-3V0h-6v3.28h-3v3.27h-3v5.86h-3v17.57h-6v5.85h-6v5.86H6v5.86h9.18v-5.86h9v17.74h6V56.5H42v2.93h6V41.69h9v5.85h9v-5.86h-6zM42 29.97h-3v-2.93h-6v2.93h-3V18.26h3V12.4h6v5.86h3v11.71z" style="fill:#8486a1"/><path d="M24 138.14h6V144h-6zm18 0h6V144h-6zm-9-3.78h6v5.85h-6zm27-20.68v-5.86h-6v-5.86h-6V84.4h-3v-5.86h-3v-3.26h-3V72h-6v3.28h-3v3.27h-3v5.86h-3v17.57h-6v5.85h-6v5.86H6v5.86h9.18v-5.86h9v17.74h6v-2.93H42v2.93h6v-17.74h9v5.85h9v-5.86h-6zm-18-11.71h-3v-2.93h-6v2.93h-3V90.26h3V84.4h6v5.86h3v11.71z" style="fill:#ffbd2e"/></svg>