<svg xmlns="http://www.w3.org/2000/svg" viewBox="0 0 72 144" style="enable-background:new 0 0 72 144" xml:space="preserve"><path d="M24.71 71.91c.75.37 1.54-.44 1.08-1.11-2.49-3.64-4.85-9.76-1.09-17.64C30.97 40.01 34.79 33.2 34.79 33.2s2.03 7.95 7.53 15.01c5.3 6.8 8.2 15.35 3.52 22.47-.44.67.33 1.45 1.08 1.1 5.78-2.77 12.27-8.34 13-19.41.27-3.38-.14-8.12-2.16-14.1-2.6-7.58-5.8-11.11-7.65-12.63-.55-.45-1.41-.05-1.37.64.54 8.18-2.74 10.25-4.61 5.57-.75-1.86-1.18-5.1-1.18-9.03 0-6.55-2.03-13.29-6.49-18.77A22.111 22.111 0 0 0 32.38.16c-.56-.41-1.38 0-1.33.67.34 4.44.03 17.17-11.88 32.37-10.79 14.1-6.61 24.93-5.13 27.86 2.84 5.62 6.8 8.92 10.67 10.85z" style="fill-rule:evenodd;clip-rule:evenodd;fill:#8486a1"/><path d="M24.71 143.91c.75.37 1.54-.44 1.08-1.11-2.49-3.64-4.85-9.76-1.09-17.64 6.27-13.15 10.09-19.96 10.09-19.96s2.03 7.95 7.53 15.01c5.3 6.8 8.2 15.35 3.52 22.47-.44.67.33 1.45 1.08 1.1 5.78-2.77 12.27-8.34 13-19.41.27-3.38-.14-8.12-2.16-14.1-2.6-7.58-5.8-11.11-7.65-12.63-.55-.45-1.41-.05-1.37.64.54 8.18-2.74 10.25-4.61 5.57-.75-1.86-1.18-5.1-1.18-9.03 0-6.55-2.03-13.29-6.49-18.77a22.111 22.111 0 0 0-4.08-3.89c-.56-.41-1.38 0-1.33.67.34 4.44.03 17.17-11.88 32.37-10.79 14.1-6.61 24.93-5.13 27.86 2.84 5.62 6.8 8.92 10.67 10.85z" style="fill-rule:evenodd;clip-rule:evenodd;fill:#ffbd2e"/></svg>