<svg version="1.1" id="圖層_1" xmlns="http://www.w3.org/2000/svg" x="0" y="0" viewBox="0 0 72 144" style="enable-background:new 0 0 72 144" xml:space="preserve"><style>.st0{fill:#8486a1}.st1{fill:#ffbd2e}</style><path class="st0" d="M61.42 31.75c-2.08-2.04-4.49-3.78-7.06-5.35-.64-.32-1.28-.79-1.92-1.1-4.4-2.19-9.2-3.49-14.1-3.81l3.52-8H29.99l3.52 8c-5.29.36-10.43 1.87-15.07 4.43-.64.32-1.28.63-1.92 1.1C6.42 33.33.16 44.18 0 55.98v2.36h3.05v-2.2c.16-10.86 5.77-20.77 15.08-26.59.48-.32 1.12-.79 1.76-1.1 4.58-2.51 9.68-3.92 14.9-4.13l.01.04.59 1.73h.05c-5.17.04-10.25 1.39-14.75 3.93-.64.31-1.28.78-1.92 1.1C10.1 36.63 4.81 45.91 4.65 55.98v1.42h17.64v-1.42c.16-3.77 2.25-7.39 5.45-9.59.64-.48 1.28-.79 1.93-1.11 3.37-1.57 7.37-1.57 10.9 0 .64.32 1.29.63 1.93 1.11 3.21 2.2 5.29 5.82 5.45 9.59v1.42H67.2v-1.26C66.87 45.6 61.26 36 51.96 30.49c-.64-.31-1.28-.78-1.93-1.1l-1.15-.54a31.929 31.929 0 0 0-11.2-2.74l-1.21-.03.73-1.73.02-.05c4.84.15 9.6 1.35 13.93 3.51.64.31 1.29.78 1.93 1.1 9.78 5.82 15.88 16.05 16.03 27.22v2.36H72v-2.52c-.16-9.12-4.01-17.77-10.58-24.22zM19.24 51.42l-1.92-1.26.8-1.1-3.69-2.36-.48.94c0 .16-.16.16-.16.32l-1.76-1.26.16-.16c.32-.47.64-.94.64-1.57.16-.46.16-.96 0-1.41l.81-1.26 6.41 4.25.8-1.1 1.92 1.26-3.53 4.71zm30.63-5.19c.16-.94.8-1.74 1.61-2.2l1.44 2.04-.16.16.32.47c-.8.47-.96 1.1-.48 1.73.16.16.32.32.48.32.32 0 .64 0 .8-.16.32-.16.64-.48.64-.94-.04-.24-.15-.46-.32-.63h.16c0-.16-.16-.31-.16-.47l1.28-.79c.16.32.48.48.8.63.3.16.66.16.96 0 .16 0 .16-.16.32-.16 0-.16 0-.48-.16-.63l-.07-.07c.02-.03.05-.06.07-.09.16 0 0-.31-.17-.63-.33-.45-.91-.64-1.44-.47h-.16l-.96-1.89c.73-.44 1.63-.5 2.4-.16.91.42 1.65 1.14 2.09 2.04.48.79.8 1.73.8 2.67-.16.79-.48 1.42-1.12 1.89l-.32.32c-.35.18-.73.29-1.12.32-.27 0-.53-.1-.75-.27.13.07.28.11.42.11.48 0 .8 0 1.12-.32l.1-.03c.03-.02.05-.04.06-.07l.04-.06-.12.11c-.22.13-.54.17-.86.06-.48 0-.96-.31-1.29-.47 0 .15.16.31.16.47.13.06.23.12.32.16 0 .32 0 .78-.16 1.1-.13.41-.42.75-.8.94h-.16l-.16.16c-.32.32-.8.32-1.28.32-.32 0-.8-.16-1.12-.32a5.018 5.018 0 0 1-2.24-2.2c-.65-.95-.97-1.89-.81-2.99zm-.96-14.79-7.86 13.21c-3.69-1.73-8.02-1.73-11.87 0L21.8 31.91c8.35-4.56 18.45-4.72 27.11-.47zM13.63 42.29zm22.61-11.64z"/><path class="st0" d="M32.39 33.8h2.56c0-.95.32-1.41 1.12-1.41.32 0 .48.15.8.31.2.21.32.49.32.79-.01.29-.12.57-.32.78-.5.51-1.04.99-1.61 1.42-.48.31-.96.63-1.28 1.1-.96.94-1.44 2.2-1.44 3.46v.31h7.86v-2.99h-2.09v.78h-3.2c.16-.31.48-.63.64-.78.48-.31 1.12-.63 1.76-.94.8-.31 1.61-.94 2.08-1.57.32-.47.64-.95.64-1.57 0-.79-.32-1.57-1.12-2.05-.8-.47-1.76-.78-2.89-.78-.96 0-1.92.16-2.73.63-.78.62-1.26 1.56-1.1 2.51z"/><path class="st1" d="M61.42 103.75c-2.08-2.04-4.49-3.78-7.06-5.35-.64-.32-1.28-.79-1.92-1.1-4.4-2.19-9.2-3.49-14.1-3.81l3.52-8H29.99l3.52 8c-5.29.36-10.43 1.87-15.07 4.43-.64.32-1.28.63-1.92 1.1C6.42 105.33.16 116.18 0 127.98v2.36h3.05v-2.2c.16-10.86 5.77-20.77 15.08-26.59.48-.32 1.12-.79 1.76-1.1 4.58-2.51 9.68-3.92 14.9-4.13l.01.04.59 1.73h.05c-5.17.04-10.25 1.39-14.75 3.93-.64.31-1.28.78-1.92 1.1-8.67 5.51-13.96 14.79-14.12 24.86v1.42h17.64v-1.42c.16-3.77 2.25-7.39 5.45-9.59.64-.48 1.28-.79 1.93-1.11 3.37-1.57 7.37-1.57 10.9 0 .64.32 1.29.63 1.93 1.11 3.21 2.2 5.29 5.82 5.45 9.59v1.42H67.2v-1.26c-.33-10.54-5.94-20.14-15.24-25.65-.64-.31-1.28-.78-1.93-1.1l-1.15-.54a31.929 31.929 0 0 0-11.2-2.74l-1.21-.03.73-1.73.02-.05c4.84.15 9.6 1.35 13.93 3.51.64.31 1.29.78 1.93 1.1 9.78 5.82 15.88 16.05 16.03 27.22v2.36H72v-2.52c-.16-9.12-4.01-17.77-10.58-24.22zm-42.18 19.67-1.92-1.26.8-1.1-3.69-2.36-.48.94c0 .16-.16.16-.16.32l-1.76-1.26.16-.16c.32-.47.64-.94.64-1.57.16-.46.16-.96 0-1.41l.81-1.26 6.41 4.25.8-1.1 1.92 1.26-3.53 4.71zm30.63-5.19c.16-.94.8-1.74 1.61-2.2l1.44 2.04-.16.16.32.47c-.8.47-.96 1.1-.48 1.73.16.16.32.32.48.32.32 0 .64 0 .8-.16.32-.16.64-.48.64-.94-.04-.24-.15-.46-.32-.63h.16c0-.16-.16-.31-.16-.47l1.28-.79c.16.32.48.48.8.63.3.16.66.16.96 0 .16 0 .16-.16.32-.16 0-.16 0-.48-.16-.63l-.07-.07c.02-.03.05-.06.07-.09.16 0 0-.31-.17-.63-.33-.45-.91-.64-1.44-.47h-.16l-.96-1.89c.73-.44 1.63-.5 2.4-.16.91.42 1.65 1.14 2.09 2.04.48.79.8 1.73.8 2.67-.16.79-.48 1.42-1.12 1.89l-.32.32c-.35.18-.73.29-1.12.32-.27 0-.53-.1-.75-.27.13.07.28.11.42.11.48 0 .8 0 1.12-.32l.1-.03c.03-.02.05-.04.06-.07l.04-.06-.12.11c-.22.13-.54.17-.86.06-.48 0-.96-.31-1.29-.47 0 .15.16.31.16.47.13.06.23.12.32.16 0 .32 0 .78-.16 1.1-.13.41-.42.75-.8.94h-.16l-.16.16c-.32.32-.8.32-1.28.32-.32 0-.8-.16-1.12-.32a5.018 5.018 0 0 1-2.24-2.2c-.65-.95-.97-1.89-.81-2.99zm-.96-14.79-7.86 13.21c-3.69-1.73-8.02-1.73-11.87 0l-7.38-12.74c8.35-4.56 18.45-4.72 27.11-.47zm-35.28 10.85zm22.61-11.64z"/><path class="st1" d="M32.39 105.8h2.56c0-.95.32-1.41 1.12-1.41.32 0 .48.15.8.31.2.21.32.49.32.79-.01.29-.12.57-.32.78-.5.51-1.04.99-1.61 1.42-.48.31-.96.63-1.28 1.1-.96.94-1.44 2.2-1.44 3.46v.31h7.86v-2.99h-2.09v.78h-3.2c.16-.31.48-.63.64-.78.48-.31 1.12-.63 1.76-.94.8-.31 1.61-.94 2.08-1.57.32-.47.64-.95.64-1.57 0-.79-.32-1.57-1.12-2.05-.8-.47-1.76-.78-2.89-.78-.96 0-1.92.16-2.73.63-.78.62-1.26 1.56-1.1 2.51z"/></svg>