<svg version="1.1" id="圖層_1" xmlns="http://www.w3.org/2000/svg" x="0" y="0" viewBox="0 0 72 144" style="enable-background:new 0 0 72 144" xml:space="preserve"><style>.st0{fill:#8486a1}.st1{fill:#ffbd2e}</style><path class="st0" d="M69.42 22.72a9.85 9.85 0 0 1-1.31 1.52c-1.92 1.78-4.38 2.64-6.96 2.64-3.56 0-7.33-1.65-10.15-4.79-4.68-5.19-5.1-12.57-1.13-16.91C45.85 3.8 41.23 3 35.99 3c-5.08 0-9.56.77-13.48 2.1 4.05 4.33 3.65 11.77-1.04 16.99-2.83 3.15-6.6 4.79-10.16 4.79-2.57 0-5.04-.86-6.96-2.64a9.738 9.738 0 0 1-1.45-1.69c-3.92 8.38-3.71 18.7-.32 22.13 1.96 1.98 6.98 3.49 13.43 4.49v14.84c0 2.76 2.2 4.99 4.92 4.99h30.51c2.71 0 4.92-2.23 4.92-4.99v-14.8c6-.98 10.68-2.48 12.72-4.53 3.65-3.7 4.01-13.78.34-21.96zm-33.19-4.15c5.93 0 10.75 4.89 10.75 10.9 0 6.02-4.82 10.91-10.75 10.91s-10.75-4.89-10.75-10.9 4.82-10.91 10.75-10.91zm16.85 45.44c.01.91-.73 1.66-1.64 1.67H20.93c-.91-.01-1.65-.75-1.64-1.67V49.63c2.82.34 5.54.59 8.64.75v7.56c0 .73.89 1.34 1.62 1.34.73 0 1.72-.6 1.72-1.34V50.5c3.38.12 6.01.14 9.38.04v7.4c0 .74 1.01 1.34 1.73 1.34.73 0 1.61-.6 1.61-1.34v-7.5c3.28-.15 6.15-.41 9.09-.77v14.34z"/><path class="st0" d="M36.23 37.06c4.12 0 7.47-3.4 7.47-7.59 0-4.18-3.35-7.58-7.47-7.58s-7.47 3.4-7.47 7.58c-.01 4.19 3.34 7.59 7.47 7.59zM11.31 23.55c2.8 0 5.62-1.35 7.74-3.71 1.83-2.04 2.88-4.55 2.97-7.06.07-2.32-.71-4.36-2.2-5.74-.23-.21-.48-.4-.73-.58-5.9 2.7-10.86 7.06-14.28 12.56.37 1.07.94 2.02 1.75 2.76 1.58 1.47 3.46 1.77 4.75 1.77zm49.83 0c1.3 0 3.17-.31 4.75-1.77.75-.69 1.32-1.56 1.69-2.54-3.39-5.57-8.39-10-14.33-12.7-.22.16-.42.32-.62.5-1.49 1.38-2.27 3.42-2.2 5.74.08 2.51 1.13 5.02 2.97 7.06 2.13 2.36 4.95 3.71 7.74 3.71z"/><path class="st1" d="M69.42 94.72a9.85 9.85 0 0 1-1.31 1.52c-1.92 1.78-4.38 2.64-6.96 2.64-3.56 0-7.33-1.65-10.15-4.79-4.68-5.19-5.1-12.57-1.13-16.91C45.85 75.8 41.23 75 35.99 75c-5.08 0-9.56.77-13.48 2.1 4.05 4.33 3.65 11.77-1.04 16.99-2.83 3.15-6.6 4.79-10.16 4.79-2.57 0-5.04-.86-6.96-2.64a9.738 9.738 0 0 1-1.45-1.69c-3.92 8.38-3.71 18.7-.32 22.13 1.96 1.98 6.98 3.49 13.43 4.49v14.84c0 2.76 2.2 4.99 4.92 4.99h30.51c2.71 0 4.92-2.23 4.92-4.99v-14.8c6-.98 10.68-2.48 12.72-4.53 3.65-3.7 4.01-13.78.34-21.96zm-33.19-4.15c5.93 0 10.75 4.89 10.75 10.9 0 6.02-4.82 10.91-10.75 10.91s-10.75-4.89-10.75-10.9c0-6.01 4.82-10.91 10.75-10.91zm16.85 45.44c.01.91-.73 1.66-1.64 1.67H20.93c-.91-.01-1.65-.75-1.64-1.67v-14.38c2.82.34 5.54.59 8.64.75v7.56c0 .73.89 1.34 1.62 1.34.73 0 1.72-.6 1.72-1.34v-7.44c3.38.12 6.01.14 9.38.04v7.4c0 .74 1.01 1.34 1.73 1.34.73 0 1.61-.6 1.61-1.34v-7.5c3.28-.15 6.15-.41 9.09-.77v14.34z"/><path class="st1" d="M36.23 109.06c4.12 0 7.47-3.4 7.47-7.59 0-4.18-3.35-7.58-7.47-7.58s-7.47 3.4-7.47 7.58c-.01 4.19 3.34 7.59 7.47 7.59zM11.31 95.55c2.8 0 5.62-1.35 7.74-3.71 1.83-2.04 2.88-4.55 2.97-7.06.07-2.32-.71-4.36-2.2-5.74-.23-.21-.48-.4-.73-.58-5.9 2.7-10.86 7.06-14.28 12.56.37 1.07.94 2.02 1.75 2.76 1.58 1.47 3.46 1.77 4.75 1.77zm49.83 0c1.3 0 3.17-.31 4.75-1.77.75-.69 1.32-1.56 1.69-2.54-3.39-5.57-8.39-10-14.33-12.7-.22.16-.42.32-.62.5-1.49 1.38-2.27 3.42-2.2 5.74.08 2.51 1.13 5.02 2.97 7.06 2.13 2.36 4.95 3.71 7.74 3.71z"/></svg>