<svg version="1.1" id="圖層_1" xmlns="http://www.w3.org/2000/svg" x="0" y="0" viewBox="0 0 72 144" style="enable-background:new 0 0 72 144" xml:space="preserve"><style>.st0{fill:#8486a1}.st1{fill:#ffbd2e}</style><path class="st0" d="m63.07 27.91.24.36v-.01l-.24-.35zM41.63 55.93l-.16-1.51v-.5c-.17-1.34-.33-2.52-.66-3.86v-.67c-.17-.84-.49-1.68-.66-2.52-.49-1.34-.98-2.68-1.63-4.02-2.29-4.03-4.58-5.2-7.2-5.2-.82 0-1.63.17-2.46.33-.82.17-1.8.33-2.62.67-.82.34-1.64.5-2.62.67h-.65c-.49 0-.98.17-1.48.17H21c-.72-.03-1.43-.14-2.13-.33h-.66l-1.97-.5c-1.8-.5-3.6-.84-5.4-1.01-2.62 0-4.91 1.17-7.2 5.37-.98 2.02-1.8 4.36-2.46 6.54-.66 2.52-.98 5.2-1.14 7.72-.17 2.02 0 4.19.82 6.21.51 1.5 1.98 2.51 3.62 2.51.79-.01 1.57-.18 2.29-.5a24.01 24.01 0 0 0 6.71-4.86c2.19-1.69 4.93-2.53 7.69-2.35 2.76-.18 5.5.66 7.69 2.35 1.94 2 4.21 3.65 6.71 4.86.72.33 1.5.5 2.29.5.33 0 .66 0 .98-.17 1.15-.34 2.13-1.34 2.46-2.52.33-.67.49-1.18.49-1.85l.16-.67c-.26-1.08-.31-2.04-.32-2.99v-1.87zm-27.17-5.87h-2.62v2.52H9.23v-2.52H6.61v-2.69h2.62v-2.68h2.62v2.68h2.62l-.01 2.69zm16.04-6.71c.98-.01 1.82.71 1.96 1.68.17 1.01-.65 1.85-1.63 2.02h-.17c-.49 0-.98-.17-1.31-.5-.16-.17-.32-.33-.32-.67 0-.17-.17-.33-.17-.67-.16-1.02.66-1.86 1.64-1.86zm-2.94 6.71c-.33 0-.49 0-.82-.17-.17 0-.33-.17-.49-.34-.33-.33-.66-.84-.66-1.34 0-1 .82-1.84 1.8-1.84 1 .02 1.8.84 1.8 1.84.3.92-.35 1.69-1.33 1.83l-.3.02zm4.74 1.34c.01.44-.17.87-.49 1.17 0 .17-.17.17-.33.17-.16.17-.16.17-.32.17l-.33.17h-.33c-.82 0-1.47-.5-1.64-1.17 0-.17-.16-.33-.16-.5v-.33c.16-1.01.98-1.85 1.96-1.68.98.16 1.8.99 1.64 2zm2.79-2.51c0 .17 0 .17-.17.33 0 .17-.16.17-.16.33-.33.5-.82.67-1.47.67-.98 0-1.8-.84-1.8-1.85v-.67c0-.17 0-.17.16-.34.33-.5.98-1 1.64-.84 1 .02 1.8.84 1.8 1.85.16.18.16.35 0 .52z"/><path class="st0" d="M69.94 29.59c-1.96-4.36-5.24-8.05-9.16-10.57-.09-.09-.18-.13-.26-.18l.09.18C54.56 7.1 40.15 2.57 28.53 8.78c-9.66 5.2-14.57 16.44-12.11 27.35h.66c.98.34 2.13.5 3.11.67h1.48c.01.09.05.16.15.16a.736.736 0 0 1-.14-.17h.14c-3.44-10.07 1.64-20.97 11.29-24.5 6.5-2.34 13.76-.85 18.82 3.86l.49.34.33.33.49.67c1.17 1.32 2.16 2.79 2.95 4.36.16.33.32.5.49.84 4.09 9.73-.17 20.98-9.66 25.34-1.31.67-2.78 1-4.25 1.34v1.01c.16 1.18.49 2.35.65 3.52v.67c11.29-2.02 19.64-12.25 19.64-24 .26-.93.31-1.65.24-2.32-.08-.12-.16-.25-.24-.36l.24.35v.01c.73 1.09 1.44 2.29 1.89 3.5 4.09 9.23.16 20.31-8.84 24.5a17.762 17.762 0 0 1-12.44 1.01v.67c.49.17 1.14.33 1.64.33l-1.31 3.52-.49-.17c0 .17 0 .5-.16.67a22.33 22.33 0 0 0 14.73-1.51c11.72-5.48 16.88-19.35 11.62-31.18zm-49.26-4.36-3.44-2.02c.66-2.35 1.8-4.53 3.11-6.54l3.27 2.01c-1.3 2.02-2.3 4.23-2.94 6.55zM39.5 10.29c-1.14 0-2.29.17-3.6.33V6.77c2.33-.34 4.7-.34 7.04 0v3.82l.17.03c-1.15-.16-2.3-.33-3.61-.33zm17.02 36.08-3.44-2.02c1.69-1.71 3.08-3.69 4.09-5.87l3.27 2.01a19.71 19.71 0 0 1-3.92 5.88zm3.93-22.32-.66.33.07.05-1.38.79c-.33-.67-.49-1.51-.82-2.35-.16-.33-.33-.67-.33-.84-.49-1.17-1.14-2.18-1.8-3.36l1.48-.84.65-.5 1.15-.67c.22.34.44.67.66 1.06l.32.62c.17.17.33.5.49.67l.16.33c.66 1.22 1.16 2.51 1.48 3.86l-1.47.85zm-1.64 35.74-2.46-3.02.33-.17c1.97-1.01 3.77-2.18 5.4-3.86l2.29 2.85c-1.63 1.85-3.59 3.2-5.56 4.2zm8.84-18.29c.32-2.35.16-4.7-.49-7.05l3.6-.5c.49 2.35.66 4.7.49 7.05l-3.6.5z"/><path class="st0" d="M52.76 39.82s-1.15-7.89-7.37-11.41c-3.27 3.36-8.51 3.36-11.78 0-2.46 1.51-4.09 3.86-4.91 6.71.65-.17 1.31-.17 1.96-.17 3.93 0 7.04 2.01 9.49 6.54.82 1.49 1.48 3.07 1.97 4.7 4.09-.83 7.86-3.18 10.64-6.37z"/><path class="st0" d="M33.45 22.54c0 3.52 2.78 6.38 6.22 6.38 3.43 0 6.22-2.85 6.22-6.38 0-3.52-2.78-6.37-6.22-6.37-3.44-.01-6.22 2.85-6.22 6.37z"/><path class="st1" d="m63.08 99.91.24.36v-.01l-.24-.35zm-21.44 28.02-.16-1.51v-.5c-.17-1.34-.33-2.52-.66-3.86v-.67c-.17-.84-.49-1.68-.66-2.52-.49-1.34-.98-2.68-1.63-4.02-2.29-4.03-4.58-5.2-7.2-5.2-.82 0-1.63.17-2.46.33-.82.17-1.8.33-2.62.67-.82.34-1.64.5-2.62.67h-.65c-.49 0-.98.17-1.48.17h-.49c-.72-.03-1.43-.14-2.13-.33h-.66l-1.97-.5c-1.8-.5-3.6-.84-5.4-1.01-2.62 0-4.91 1.17-7.2 5.37-.98 2.02-1.8 4.36-2.46 6.54-.66 2.52-.98 5.2-1.14 7.72-.17 2.02 0 4.19.82 6.21.51 1.5 1.98 2.51 3.62 2.51.79-.01 1.57-.18 2.29-.5a24.01 24.01 0 0 0 6.71-4.86c2.19-1.69 4.93-2.53 7.69-2.35 2.76-.18 5.5.66 7.69 2.35 1.94 2 4.21 3.65 6.71 4.86.72.33 1.5.5 2.29.5.33 0 .66 0 .98-.17 1.15-.34 2.13-1.34 2.46-2.52.33-.67.49-1.18.49-1.85l.16-.67c-.26-1.08-.31-2.04-.32-2.99v-1.87zm-27.17-5.87h-2.62v2.52H9.24v-2.52H6.62v-2.69h2.62v-2.68h2.62v2.68h2.62l-.01 2.69zm16.04-6.71c.98-.01 1.82.71 1.96 1.68.17 1.01-.65 1.85-1.63 2.02h-.17c-.49 0-.98-.17-1.31-.5-.16-.17-.32-.33-.32-.67 0-.17-.17-.33-.17-.67-.16-1.02.66-1.86 1.64-1.86zm-2.94 6.71c-.33 0-.49 0-.82-.17-.17 0-.33-.17-.49-.34-.33-.33-.66-.84-.66-1.34 0-1 .82-1.84 1.8-1.84 1 .02 1.8.84 1.8 1.84.3.92-.35 1.69-1.33 1.83l-.3.02zm4.74 1.34c.01.44-.17.87-.49 1.17 0 .17-.17.17-.33.17-.16.17-.16.17-.32.17l-.33.17h-.33c-.82 0-1.47-.5-1.64-1.17 0-.17-.16-.33-.16-.5v-.33c.16-1.01.98-1.85 1.96-1.68.98.16 1.8.99 1.64 2zm2.79-2.51c0 .17 0 .17-.17.33 0 .17-.16.17-.16.33-.33.5-.82.67-1.47.67-.98 0-1.8-.84-1.8-1.85v-.67c0-.17 0-.17.16-.34.33-.5.98-1 1.64-.84 1 .02 1.8.84 1.8 1.85.16.18.16.35 0 .52z"/><path class="st1" d="M69.95 101.59c-1.96-4.36-5.24-8.05-9.16-10.57-.09-.09-.18-.13-.26-.18l.09.18C54.57 79.1 40.16 74.57 28.54 80.78c-9.66 5.2-14.57 16.44-12.11 27.35h.66c.98.34 2.13.5 3.11.67h1.48c.01.09.05.16.15.16a.736.736 0 0 1-.14-.17h.14c-3.44-10.07 1.64-20.97 11.29-24.5 6.5-2.34 13.76-.85 18.82 3.86l.49.34.33.33.49.67c1.17 1.32 2.16 2.79 2.95 4.36.16.33.32.5.49.84 4.09 9.73-.17 20.98-9.66 25.34-1.31.67-2.78 1-4.25 1.34v1.01c.16 1.18.49 2.35.65 3.52v.67c11.29-2.02 19.64-12.25 19.64-24 .26-.93.31-1.65.24-2.32-.08-.12-.16-.25-.24-.36l.24.35v.01c.73 1.09 1.44 2.29 1.89 3.5 4.09 9.23.16 20.31-8.84 24.5a17.762 17.762 0 0 1-12.44 1.01v.67c.49.17 1.14.33 1.64.33l-1.31 3.52-.49-.17c0 .17 0 .5-.16.67a22.33 22.33 0 0 0 14.73-1.51c11.72-5.48 16.88-19.35 11.62-31.18zm-49.26-4.36-3.44-2.02c.66-2.35 1.8-4.53 3.11-6.54l3.27 2.01c-1.3 2.02-2.3 4.23-2.94 6.55zm18.82-14.94c-1.14 0-2.29.17-3.6.33v-3.85c2.33-.34 4.7-.34 7.04 0v3.82l.17.03c-1.15-.16-2.3-.33-3.61-.33zm17.02 36.08-3.44-2.02c1.69-1.71 3.08-3.69 4.09-5.87l3.27 2.01a19.71 19.71 0 0 1-3.92 5.88zm3.93-22.32-.66.33.07.05-1.38.79c-.33-.67-.49-1.51-.82-2.35-.16-.33-.33-.67-.33-.84-.49-1.17-1.14-2.18-1.8-3.36l1.48-.84.65-.5 1.15-.67c.22.34.44.67.66 1.06l.32.62c.17.17.33.5.49.67l.16.33c.66 1.22 1.16 2.51 1.48 3.86l-1.47.85zm-1.64 35.74-2.46-3.02.33-.17c1.97-1.01 3.77-2.18 5.4-3.86l2.29 2.85c-1.63 1.85-3.59 3.2-5.56 4.2zm8.84-18.29c.32-2.35.16-4.7-.49-7.05l3.6-.5c.49 2.35.66 4.7.49 7.05l-3.6.5z"/><path class="st1" d="M52.77 111.82s-1.15-7.89-7.37-11.41c-3.27 3.36-8.51 3.36-11.78 0-2.46 1.51-4.09 3.86-4.91 6.71.65-.17 1.31-.17 1.96-.17 3.93 0 7.04 2.01 9.49 6.54.82 1.49 1.48 3.07 1.97 4.7 4.09-.83 7.86-3.18 10.64-6.37z"/><path class="st1" d="M33.46 94.54c0 3.52 2.78 6.38 6.22 6.38 3.43 0 6.22-2.85 6.22-6.38 0-3.52-2.78-6.37-6.22-6.37-3.44-.01-6.22 2.85-6.22 6.37z"/></svg>