<svg xmlns="http://www.w3.org/2000/svg" viewBox="0 0 72 144" style="enable-background:new 0 0 72 144" xml:space="preserve"><path d="M57.6 14c2.98 0 5.4 2.46 5.4 5.5v44c0 3.04-2.42 5.5-5.4 5.5H25.2c-2.98 0-5.4-2.46-5.4-5.5v-2.75h27c4.47 0 8.1-3.69 8.1-8.25V14h2.7z" style="fill-rule:evenodd;clip-rule:evenodd;fill:#8486a1"/><path d="M46.8 3H14.4C11.42 3 9 5.46 9 8.5v44c0 3.04 2.42 5.5 5.4 5.5h32.4c2.98 0 5.4-2.46 5.4-5.5v-44c0-3.04-2.42-5.5-5.4-5.5zm-6.74 35.59c-1.47.9-3.16 1.36-4.88 1.34-.63 0-1.26-.06-1.88-.17L36 47H25.2l2.7-7.23c-2.47.42-4.85.03-6.76-1.18-2.61-1.64-4.04-4.51-4.04-8.09 0-4.4 3.36-7.28 6.33-9.82 1.89-1.62 3.84-3.29 4.76-5.16A2.69 2.69 0 0 1 30.61 14c1.03.01 1.96.59 2.41 1.52.92 1.87 2.87 3.54 4.76 5.16 2.97 2.54 6.33 5.42 6.33 9.82-.01 3.58-1.45 6.45-4.05 8.09z" style="fill:#8486a1"/><path d="M57.6 86c2.98 0 5.4 2.46 5.4 5.5v44c0 3.04-2.42 5.5-5.4 5.5H25.2c-2.98 0-5.4-2.46-5.4-5.5v-2.75h27c4.47 0 8.1-3.69 8.1-8.25V86h2.7z" style="fill-rule:evenodd;clip-rule:evenodd;fill:#ffbd2e"/><path d="M46.8 75H14.4C11.42 75 9 77.46 9 80.5v44c0 3.04 2.42 5.5 5.4 5.5h32.4c2.98 0 5.4-2.46 5.4-5.5v-44c0-3.04-2.42-5.5-5.4-5.5zm-6.74 35.59c-1.47.9-3.16 1.36-4.88 1.34-.63 0-1.26-.06-1.88-.17L36 119H25.2l2.7-7.23c-2.47.42-4.85.03-6.76-1.18-2.61-1.64-4.04-4.51-4.04-8.09 0-4.4 3.36-7.28 6.33-9.82 1.89-1.62 3.84-3.29 4.76-5.16A2.69 2.69 0 0 1 30.61 86c1.03.01 1.96.59 2.41 1.52.92 1.87 2.87 3.54 4.76 5.16 2.97 2.54 6.33 5.42 6.33 9.82-.01 3.58-1.45 6.45-4.05 8.09z" style="fill:#ffbd2e"/></svg>