<svg xmlns="http://www.w3.org/2000/svg" viewBox="0 0 72 144" style="enable-background:new 0 0 72 144" xml:space="preserve"><path d="M64.8 15c3.98 0 7.2 3.22 7.2 7.2v27.6c0 3.98-3.22 7.2-7.2 7.2H7.2C3.22 57 0 53.78 0 49.8V22.2C0 18.22 3.22 15 7.2 15h57.6zm.98 12H49.67c-.17 0-.17.16-.17.16.17.82.34 1.64.34 2.62.17.98.17 1.96.17 3.11v1.14h.17c.51-.17 1.2-.17 1.71-.33s1.03-.33 1.03-.49c.17-.33.17-.49.17-.82 0-.32 0-.82-.17-1.14 0-.33-.17-.66-.17-.98-.17-.16 0-.49.17-.66.86-.66 2.05-.82 3.09-.82l5.65-.16a15.16 15.16 0 0 0-5.65 6.55c-1.2 2.69-1.9 5.57-2.06 8.51v.16h.17c1.71-.49 3.6-.82 5.48-.82 1.03 0 1.89 0 2.92.16.08-.32.15-.61.2-.86l.12-.63c.06-.35.11-.55.19-.63.17-.16 0-.32-.35-.32H62c-.34 0-.51.16-.85.16l-.35.16c-.17-.49-.17-.98-.17-1.63 0-2.29.51-4.42 1.37-6.55 1.03-2.46 2.23-4.09 3.77-4.58.17 0 .17 0 .17-.16v-.98c.01-.17.01-.17-.16-.17zm-21 0H28.67c-.17 0-.17.16-.17.16.17.82.17 1.64.34 2.62s.17 1.96.17 3.11v1.14h.17c.51-.17 1.2-.17 1.71-.33.68-.16 1.03-.33 1.03-.49.17-.33.17-.49.17-.82 0-.32 0-.82-.17-1.14 0-.33-.17-.66-.17-.98-.17-.16 0-.49.17-.66.86-.66 2.05-.82 3.08-.82l5.66-.16c-2.4 1.63-4.45 3.92-5.65 6.55-1.2 2.69-1.9 5.57-2.06 8.51v.16h.34c1.71-.49 3.6-.82 5.48-.82 1.03 0 1.89 0 2.92.16l.22-.86.16-.63c.08-.35.13-.55.13-.63 0-.16 0-.32-.34-.32h-.68c-.34 0-.51.16-.86.16l-.34.16c-.17-.49-.17-.98-.17-1.63 0-2.29.51-4.42 1.37-6.55 1.03-2.46 2.23-4.09 3.77-4.58.17 0 .17 0 .17-.16l-.17-.98c0-.17 0-.17-.17-.17zm-21 0H7.67c-.17 0-.17.16-.17.16.17.82.17 1.64.35 2.62.17.98.17 1.96.17 3.11v1.14c.51-.17 1.2-.17 1.71-.33.68-.16 1.2-.33 1.2-.49.17-.33.17-.49.17-.82v-.27c.01-.3-.05-.6-.17-.87 0-.33-.17-.66-.17-.98-.17-.16 0-.49.17-.66.86-.66 2.06-.82 3.09-.82l5.65-.16c-2.4 1.63-4.45 3.92-5.65 6.55-1.2 2.69-1.9 5.57-2.06 8.51v.16h.17c1.71-.49 3.6-.82 5.49-.82.86 0 1.88 0 2.91.16.34-1.31.34-1.96.51-2.12.17-.17 0-.33-.34-.33h-.68c-.34 0-.51.17-.86.17l-.34.16c-.17-.49-.17-.98-.17-1.63 0-2.29.51-4.42 1.37-6.55 1.03-2.46 2.23-4.09 3.77-4.58.17 0 .17 0 .17-.16v-.98c-.01-.17-.01-.17-.18-.17z" style="fill-rule:evenodd;clip-rule:evenodd;fill:#8486a1"/><path d="M64.8 87c3.98 0 7.2 3.22 7.2 7.2v27.6c0 3.98-3.22 7.2-7.2 7.2H7.2c-3.98 0-7.2-3.22-7.2-7.2V94.2C0 90.22 3.22 87 7.2 87h57.6zm.98 12H49.67c-.17 0-.17.16-.17.16.17.82.34 1.64.34 2.62.17.98.17 1.96.17 3.11v1.14h.17c.51-.17 1.2-.17 1.71-.33s1.03-.33 1.03-.49c.17-.33.17-.49.17-.82 0-.32 0-.82-.17-1.14 0-.33-.17-.66-.17-.98-.17-.16 0-.49.17-.66.86-.66 2.05-.82 3.09-.82l5.65-.16a15.16 15.16 0 0 0-5.65 6.55c-1.2 2.69-1.9 5.57-2.06 8.51v.16h.17c1.71-.49 3.6-.82 5.48-.82 1.03 0 1.89 0 2.92.16.08-.32.15-.61.2-.86l.12-.63c.06-.35.11-.55.19-.63.17-.16 0-.32-.35-.32H62c-.34 0-.51.16-.85.16l-.35.16c-.17-.49-.17-.98-.17-1.63 0-2.29.51-4.42 1.37-6.55 1.03-2.46 2.23-4.09 3.77-4.58.17 0 .17 0 .17-.16v-.98c.01-.17.01-.17-.16-.17zm-21 0H28.67c-.17 0-.17.16-.17.16.17.82.17 1.64.34 2.62s.17 1.96.17 3.11v1.14h.17c.51-.17 1.2-.17 1.71-.33.68-.16 1.03-.33 1.03-.49.17-.33.17-.49.17-.82 0-.32 0-.82-.17-1.14 0-.33-.17-.66-.17-.98-.17-.16 0-.49.17-.66.86-.66 2.05-.82 3.08-.82l5.66-.16c-2.4 1.63-4.45 3.92-5.65 6.55-1.2 2.69-1.9 5.57-2.06 8.51v.16h.34c1.71-.49 3.6-.82 5.48-.82 1.03 0 1.89 0 2.92.16l.22-.86.16-.63c.08-.35.13-.55.13-.63 0-.16 0-.32-.34-.32h-.68c-.34 0-.51.16-.86.16l-.34.16c-.17-.49-.17-.98-.17-1.63 0-2.29.51-4.42 1.37-6.55 1.03-2.46 2.23-4.09 3.77-4.58.17 0 .17 0 .17-.16l-.17-.98c0-.17 0-.17-.17-.17zm-21 0H7.67c-.17 0-.17.16-.17.16.17.82.17 1.64.35 2.62.17.98.17 1.96.17 3.11v1.14c.51-.17 1.2-.17 1.71-.33.68-.16 1.2-.33 1.2-.49.17-.33.17-.49.17-.82v-.27c.01-.3-.05-.6-.17-.87 0-.33-.17-.66-.17-.98-.17-.16 0-.49.17-.66.86-.66 2.06-.82 3.09-.82l5.65-.16c-2.4 1.63-4.45 3.92-5.65 6.55-1.2 2.69-1.9 5.57-2.06 8.51v.16h.17c1.71-.49 3.6-.82 5.49-.82.86 0 1.88 0 2.91.16.34-1.31.34-1.96.51-2.12.17-.17 0-.33-.34-.33h-.68c-.34 0-.51.17-.86.17l-.34.16c-.17-.49-.17-.98-.17-1.63 0-2.29.51-4.42 1.37-6.55 1.03-2.46 2.23-4.09 3.77-4.58.17 0 .17 0 .17-.16v-.98c-.01-.17-.01-.17-.18-.17z" style="fill-rule:evenodd;clip-rule:evenodd;fill:#ffbd2e"/></svg>