<svg xmlns="http://www.w3.org/2000/svg" viewBox="0 0 72 144" style="enable-background:new 0 0 72 144" xml:space="preserve"><path d="M40 9.44c3.34-2.93 4.39-1.67 4.39-1.67 6.69 2.17 2.14 13.06.05 17.33l-.32.65c-.35.68-.57 1.07-.57 1.07 5.29.21 10.6.21 15.89 0 11.5-.42 9.41 12.56 9.41 12.56s1.25 3.77-5.44 15.28a56.854 56.854 0 0 1-4.81 6.91c-1.67 1.88-3.76 2.93-6.27 2.93H30.18c-7.95 0-7.53-8.16-7.53-8.16V28.08c-.42-3.15 14-15.71 17.35-18.64zM16.59 27.65V62.2H3V27.65h13.59z" style="fill-rule:evenodd;clip-rule:evenodd;fill:#8486a1"/><path d="M40 81.44c3.34-2.93 4.39-1.67 4.39-1.67 6.69 2.17 2.14 13.06.05 17.33l-.32.65c-.35.68-.57 1.07-.57 1.07 5.29.21 10.6.21 15.89 0 11.5-.42 9.41 12.56 9.41 12.56s1.25 3.77-5.44 15.28a56.854 56.854 0 0 1-4.81 6.91c-1.67 1.88-3.76 2.93-6.27 2.93H30.18c-7.95 0-7.53-8.16-7.53-8.16v-28.26c-.42-3.15 14-15.71 17.35-18.64zM16.59 99.65v34.55H3V99.65h13.59z" style="fill-rule:evenodd;clip-rule:evenodd;fill:#ffbd2e"/></svg>