<svg version="1.1" id="圖層_1" xmlns="http://www.w3.org/2000/svg" x="0" y="0" viewBox="0 0 72 72" style="enable-background:new 0 0 72 72" xml:space="preserve"><style>.st1{fill:#fff}</style><circle cx="36" cy="36" r="36" style="fill-rule:evenodd;clip-rule:evenodd;fill:#e1306c"/><path class="st1" d="M56.9 27.3c-.3-7.4-4.3-11.8-12.2-12.2-3.9-.2-13.4-.2-17.3 0-3.4.2-6.4 1-8.8 3.4-3.1 3.1-3.5 7-3.5 12.1v5.3c0 8.2-.5 13.5 3.5 17.5 4 4.1 9.5 3.6 17.4 3.6h1.8c6.7 0 9.3-.1 11.9-1.1 3.9-1.5 6.8-5 7.1-11.2.2-3.9.2-13.5.1-17.4zm-6.1 23.5c-2.5 2.5-6 2.4-13.9 2.4h-4.4c-6.3 0-9.2-.2-11.4-2.4-2.9-2.9-2.4-7.6-2.4-14.8 0-9.7-1-16.6 8.7-17.1h8.4l.1.1c9.3 0 16.6-1 17.1 8.7v1.6c0 1.6.1 3.2.1 4.9V38c.1 7.1.1 10.4-2.3 12.8z"/><path class="st1" d="M36 25.2c-6 0-10.8 4.8-10.8 10.8S30.1 46.8 36 46.8 46.8 41.9 46.8 36 42 25.2 36 25.2zM36 43c-3.9 0-7-3.1-7-7s3.1-7 7-7 7 3.1 7 7-3.1 7-7 7zm11.2-20.7c1.4 0 2.6 1 2.6 2.4s-1 2.6-2.4 2.6h-.2c-1.4 0-2.5-1.1-2.5-2.5s1.1-2.5 2.5-2.5z"/></svg>