<svg version="1.1" id="圖層_1" xmlns="http://www.w3.org/2000/svg" x="0" y="0" viewBox="0 0 72 72" style="enable-background:new 0 0 72 72" xml:space="preserve"><style>.st2{fill:#ff4b55}</style><path d="M45.3 49v23H72v-5.2zM0 66.8V72h26.7V49zM72 5.2V0H45.3v23zM11.6 45.5H0v7.7zM26.7 23V0H0v5.2zM0 18.8v7.7h11.6zm72 34.4v-7.7H60.4zm0-26.7v-7.7l-11.6 7.7z" style="fill:#4f57bf"/><path d="M0 5.2v6.2l23 15.1h-6.9L0 15.9v2.9l11.6 7.7H0v3.8h30.4V0h-3.7v23zm-18-3.3c0-.2 0-.3.1-.5-.1.2-.1.3-.1.5zm1.5 70.1c-.1 0-.1 0-.2-.1.1 0 .1.1.2.1zM72 30.3v-3.8H60.4L72 18.8v-5.4L52.2 26.5h-6.9L72 8.9V5.2L45.3 23V0h-3.7v30.3zm0 36.5v-5.6L48.2 45.5h6.9L72 56.7v-3.5l-11.6-7.7H72v-3.8H41.6V72h3.7V49zM0 41.7v3.8h11.6L0 53.2v5.3l19.7-13h6.9L0 63v3.8L26.7 49v23h3.7V41.7z" style="fill:#f5f5f5"/><path class="st2" d="M72 41.7V30.3H41.6V0H30.4v30.3H0v11.4h30.4V72h11.2V41.7zm-88.7 30.2h-.1.1zm.6.1h-.4.4z"/><path class="st2" d="M26.6 45.5h-6.9L0 58.5V63zm21.6 0L72 61.2v-4.5L55.1 45.5zM-17.9 1.4v-.1.1zM23 26.5 0 11.4v4.5l16.1 10.6zm22.3 0h6.9L72 13.4V8.9z"/></svg>