<svg xmlns="http://www.w3.org/2000/svg" viewBox="0 0 72 72" style="enable-background:new 0 0 72 72" xml:space="preserve"><path d="m50.9 19 2.6 3.8c.2.3.1.8-.2 1l-.6.4c-.3.2-.8.1-1-.2l-2.6-3.8c-.2-.3-.1-.8.2-1l.6-.4c.4-.2.8-.2 1 .2zm4 5.9 2.6 3.8c.2.3.1.8-.2 1l-.6.4c-.3.2-.8.1-1-.2l-2.6-3.8c-.2-.3-.1-.8.2-1l.6-.4c.3-.2.8-.1 1 .2zm-1.2-7.8 6.5 9.8c.2.3.1.8-.2 1l-.7.4c-.3.2-.8.1-1-.2l-6.5-9.8c-.2-.3-.1-.8.2-1l.7-.4c.3-.2.8-.1 1 .2zm2.7-1.8 2.6 3.9c.2.3.1.8-.2 1l-.6.4c-.3.2-.8.1-1-.2l-2.6-3.8c-.2-.3-.1-.8.2-1l.7-.4c.2-.3.7-.2.9.1zm3.9 6 2.6 3.8c.2.3.1.8-.2 1l-.7.4c-.3.2-.8.1-1-.2l-2.6-3.8c-.2-.3-.1-.8.2-1l.6-.4c.5-.3.9-.2 1.1.2zM16.4 42.1l6.5 9.8c.2.3.1.8-.2 1l-.7.3c-.3.2-.8.1-1-.2l-6.5-9.8c-.2-.3-.1-.8.2-1l.7-.4c.3-.2.8-.1 1 .3zm-2.7 1.8 2.5 3.8c.2.3.1.8-.2 1l-.6.4c-.3.2-.8.1-1-.2l-2.6-3.8c-.2-.3-.1-.8.2-1l.6-.4c.4-.2.9-.1 1.1.2zm3.9 5.9 2.6 3.8c.2.3.1.8-.2 1l-.6.4c-.3.2-.8.1-1-.2L15.8 51c-.2-.3-.1-.8.2-1l.7-.4c.3-.2.7-.1.9.2zm-6.7-4.1 6.5 9.8c.2.3.1.8-.2 1l-.6.4c-.3.2-.8.1-1-.2l-6.5-9.8c-.2-.3-.1-.8.2-1l.7-.4c.3-.2.7-.1.9.2zm3.7-17 6.5-9.8c.2-.3.7-.4 1-.2l.7.4c.3.2.4.7.2 1l-6.5 9.8c-.2.3-.6.4-1 .2l-.6-.4c-.5-.2-.5-.6-.3-1zm-2.8-1.8 6.5-9.8c.2-.3.7-.4 1-.2l.6.4c.3.2.4.7.2 1l-6.5 9.8c-.2.3-.7.4-1 .2l-.6-.4c-.3-.2-.4-.7-.2-1zm-2.7-1.8 6.5-9.8c.2-.3.7-.4 1-.2l.6.4c.3.2.4.7.2 1l-6.5 9.8c-.2.3-.7.4-1 .2l-.7-.4c-.2-.2-.3-.7-.1-1zm40 26.7 2.6-3.8c.2-.3.7-.4 1-.2l.6.4c.3.2.4.7.2 1L50.9 53c-.2.3-.7.4-1 .2l-.6-.4c-.3-.2-.4-.7-.2-1zm4-5.9 2.6-3.9c.2-.3.7-.4 1-.2l.7.4c.3.2.4.7.2 1L55 47c-.2.3-.6.4-1 .2l-.6-.4c-.5-.1-.6-.6-.3-.9zm-1.3 7.8 2.6-3.8c.2-.3.7-.4 1-.2l.7.4c.3.2.4.7.2 1l-2.6 3.8c-.2.3-.7.4-1 .2l-.7-.5c-.3-.2-.4-.6-.2-.9zm4-6 2.6-3.8c.2-.3.7-.4 1-.2l.7.4c.3.2.4.7.2 1l-2.6 3.8c-.2.3-.7.4-1 .2l-.7-.4c-.3-.2-.4-.7-.2-1zm-1.2 7.8 2.6-3.8c.2-.3.6-.4 1-.2l.6.4c.3.2.4.7.2 1l-2.6 3.8c-.2.3-.7.4-1 .2l-.7-.4c-.3-.3-.3-.7-.1-1zm3.9-5.9 2.6-3.8c.2-.3.7-.4 1-.2l.6.4c.3.2.4.7.2 1l-2.6 3.8c-.2.3-.6.4-1 .2l-.6-.4c-.3-.3-.4-.7-.2-1z" style="fill:#464655"/><path d="M43.8 24.3c-6.5-4.3-15.2-2.5-19.5 3.9-2.2 3.2-1.3 7.6 1.9 9.8s7.6 1.3 9.7-2c2.2-3.2 6.5-4.1 9.7-2 3.2 2.2 4.1 6.5 1.9 9.8 4.5-6.5 2.7-15.2-3.7-19.5" style="fill:#ff4b55"/><path d="M24.3 28.2c-2.2 3.2-1.3 7.6 1.9 9.8s7.6 1.3 9.7-2c2.2-3.2 6.5-4.1 9.7-2 3.2 2.2 4.1 6.5 1.9 9.8-4.3 6.5-13 8.2-19.5 3.9-6.2-4.3-8-13-3.7-19.5" style="fill:#41479b"/></svg>