<svg version="1.1" id="圖層_1" xmlns="http://www.w3.org/2000/svg" x="0" y="0" viewBox="0 0 72 72" style="enable-background:new 0 0 72 72" xml:space="preserve"><style>.st0{fill:#ff4b55}.st5{fill:#ffe15a}</style><path id="Rectangle_00000034809909755429949950000014585586687065609353_" class="st0" d="M0 0h72v3.9H0z"/><path id="Rectangle_00000130643062859435045860000005843460268519609487_" class="st0" d="M0 68.1h72V72H0z"/><path id="Rectangle_00000085241467246387103470000001588056693103180963_" class="st0" d="M0 56.8h72v3.9H0z"/><path id="Rectangle_00000063633583419567879290000000154201973243810715_" class="st0" d="M0 45.4h72v3.9H0z"/><path id="Rectangle_00000135689691679963358330000002794802957092924290_" class="st0" d="M0 34.1h72V38H0z"/><path id="Rectangle_00000061452667676034374300000006796840519929021339_" class="st0" d="M0 22.7h72v3.9H0z"/><path id="Rectangle_00000128457411592679557640000017699188610788489613_" class="st0" d="M0 11.4h72v3.9H0z"/><path style="fill:#41479b" d="M0 0h60v45.4H0z"/><defs><filter id="Adobe_OpacityMaskFilter" filterUnits="userSpaceOnUse" x="10.6" y="8.7" width="38.8" height="28"><feColorMatrix values="1 0 0 0 0 0 1 0 0 0 0 0 1 0 0 0 0 0 1 0"/></filter></defs><mask maskUnits="userSpaceOnUse" x="10.6" y="8.7" width="38.8" height="28" id="mask-2_00000023278624212010911400000011363013450941185700_"><g style="filter:url(#Adobe_OpacityMaskFilter)"><circle id="path-1_00000078044172477538690060000010724829916792696205_" cx="43.4" cy="41.1" r="45.4" style="fill-rule:evenodd;clip-rule:evenodd;fill:#fff"/></g></mask><g id="Group" style="mask:url(#mask-2_00000023278624212010911400000011363013450941185700_)"><g id="Path_00000062882731400583208930000006240931792166336927_"><path class="st5" d="M12 19.3C12 12.5 17.6 7 24.5 7c1.7 0 3.4.3 4.9 1 .2.1.3-.2.2-.3-2.5-1.7-5.5-2.6-8.8-2.4-7.2.4-13 6-13.5 13.1-.5 8.2 6.1 15 14.3 15 3 0 5.7-.9 8-2.4.2-.1 0-.4-.2-.3-1.5.6-3.1 1-4.9 1-6.9-.1-12.5-5.6-12.5-12.4" transform="translate(3.327 3.43)"/><path class="st5" d="m40.6 19.3 5.3-2c.3-.1.2-.5-.1-.5l-5.6.4 3.9-4.1c.2-.2-.1-.5-.3-.4l-4.9 2.8 1.7-5.3c.1-.3-.3-.4-.4-.2L37 14.6l-.8-5.5c0-.3-.4-.3-.5 0l-.5 3.5-.2 1.5-.1.5-3.2-4.6c-.2-.2-.5-.1-.4.2l1.7 5.3-5-2.7c-.2-.1-.5.2-.3.4l3.9 4.1-5.6-.4c-.3 0-.4.4-.1.5l5.3 2-5.3 2c-.3.1-.2.5.1.5l5.6-.4-3.9 4.1c-.2.2.1.5.3.4l4.9-2.8-1.7 5.3c-.1.3.3.4.4.2l3.2-4.6.1.6.2 1.5.5 3.5c0 .3.4.3.5 0l.8-5.5 3.2 4.6c.2.2.5.1.4-.2l-1.7-5.3 4.9 2.8c.2.1.5-.2.3-.4l-3.9-4.1 5.6.4c.3 0 .4-.4.1-.5l-5.2-2.2z" transform="translate(3.327 3.43)"/></g></g></svg>