<svg xmlns="http://www.w3.org/2000/svg" viewBox="0 0 72 72" style="enable-background:new 0 0 72 72" xml:space="preserve"><path style="fill-rule:evenodd;clip-rule:evenodd;fill:#ff4b55" d="M0 0h72v72H0z"/><path d="m21.4 20.9 1.7 5.4h5.5c.7 0 1 1 .4 1.4l-4.4 3.4 1.7 5.5c.2.7-.6 1.3-1.1.9l-4.5-3.3-4.5 3.3c-.6.4-1.4-.2-1.1-.9l1.7-5.5-4.4-3.4c-.6-.4-.3-1.4.4-1.4h5.5l1.7-5.4c.2-.7 1.2-.7 1.4 0zm20 1.3 1.2 1.8 2-.7c.3-.1.5.2.3.5l-1.2 1.8 1.2 1.8c.2.2-.1.5-.3.5l-2-.7-1.3 1.8c-.2.2-.5.1-.5-.2v-2.2l-2-.7c-.3-.1-.3-.5 0-.6l2-.7v-2.2c.1-.3.4-.4.6-.2zm-7.6-5.3 2.1.2.9-2c.1-.3.5-.2.5.1l.4 2.1 2.1.3c.3 0 .3.4.1.6l-1.8 1.1.4 2.2c.1.3-.3.5-.5.3l-1.6-1.5-1.8 1.1c-.2.1-.5-.1-.4-.4l.9-2-1.5-1.5c-.3-.3-.1-.6.2-.6zm3.3 21.3L35.8 40l-2-.7c-.3-.1-.5.2-.3.5l1.2 1.8-1.2 1.8c-.2.2.1.5.3.5l2-.7 1.3 1.8c.2.2.5.1.5-.2v-2.2l2-.7c.3-.1.3-.5 0-.6l-2-.7v-2.2c0-.3-.4-.4-.5-.2zm7.6-5-2.1.2-.9-2c-.1-.3-.5-.2-.5.1l-.4 2.1-2.2.4c-.3 0-.3.4-.1.6l1.8 1.1-.3 2.1c-.1.3.3.5.5.3l1.6-1.5 1.8 1.1c.2.1.5-.1.4-.4l-.9-2 1.5-1.5c.2-.2.1-.6-.2-.6z" style="fill:#ffe15a"/></svg>