<svg version="1.1" id="圖層_1" xmlns="http://www.w3.org/2000/svg" x="0" y="0" viewBox="0 0 160 32" style="enable-background:new 0 0 160 32" xml:space="preserve"><style>.st0{fill:#fff}</style><g id="PC"><g id="PC_1.0---Index" transform="translate(-80 -14)"><g id="Logo" transform="translate(80 14)"><g id="Dark-Theme" transform="translate(1.536 3.216)"><path id="D" class="st0" d="M-1.5 28.5V-3.2h6.7c2.6 0 4.6.7 5.9 2.1s2 3.4 2 6.1v14.8c0 3-.7 5.2-2.1 6.6-1.4 1.4-3.5 2.1-6.2 2.1h-6.3zM3 1.1v23.2h2c1.3 0 2.2-.3 2.7-1 .5-.6.8-1.6.8-3V5c0-1.2-.3-2.2-.8-2.9s-1.4-1-2.7-1H3z"/><path id="a" class="st0" d="M25.6 28.5v-2.3h-.1c-.6.8-1.2 1.5-1.8 1.9-.6.4-1.5.7-2.5.7-.5 0-1.1-.1-1.6-.2-.5-.2-1.1-.5-1.6-.9s-.9-1-1.2-1.8c-.3-.8-.5-1.8-.5-3.1s.1-2.4.3-3.4c.2-1 .6-1.8 1.1-2.4.5-.6 1.3-1.1 2.2-1.4.9-.3 2.1-.5 3.5-.5h2.2v-2.4c0-.8-.2-1.4-.5-1.9s-.9-.8-1.8-.8c-.6 0-1.1.2-1.6.6-.5.4-.8 1-1 1.7h-4.4c.1-2 .8-3.7 2-4.9.7-.4 1.4-.9 2.2-1.2.8-.3 1.8-.5 2.8-.5.9 0 1.8.1 2.7.4.8.3 1.5.7 2.2 1.3.6.6 1.1 1.3 1.4 2.2.4.9.5 1.9.5 3.1v15.7h-4.5zm0-9.7c-.5-.1-.9-.1-1.2-.1-1 0-1.8.2-2.5.7-.7.5-1 1.3-1 2.5 0 .9.2 1.6.6 2.1.4.5 1 .8 1.7.8.8 0 1.4-.3 1.8-.8.4-.5.6-1.2.6-2.1v-3.1z"/><path id="r" class="st0" d="M33.4 28.5V5.9h4.5v2.4c.9-.8 1.8-1.5 2.7-2s2-.7 3.3-.7v4.8c-.4-.2-.9-.3-1.4-.3s-1 .1-1.5.2c-.5.2-1 .4-1.5.8s-.9.9-1.1 1.5c-.3.6-.4 1.4-.4 2.3v13.4h-4.6z"/><path id="k" class="st0" d="M45.7 28.5V-3.2h4.5v19h.1l5.4-9.9h4.5l-5.4 9.2 6.5 13.4h-4.9l-4.1-9.7-2.1 3.4v6.3z"/><path id="T" class="st0" d="M74.3 28.5V1.1h-5.2v-4.3H84v4.3h-5.2v27.4z"/><path id="h" class="st0" d="M85.7 28.5V-3.2h4.5V8.1h.1c.5-.7 1-1.3 1.7-1.8s1.5-.7 2.5-.7c.6 0 1.1.1 1.7.3.6.2 1.1.5 1.5 1 .4.4.8 1 1.1 1.7.3.7.4 1.6.4 2.6v17.3h-4.5V12.9c0-.8-.2-1.5-.6-2-.4-.5-.9-.7-1.6-.7-.9 0-1.4.3-1.8.8s-.5 1.3-.5 2.3v15.2h-4.5z"/><path id="e" class="st0" d="M116 18.9h-9V22c0 .7.2 1.3.6 1.6.4.4.9.6 1.6.6.9 0 1.4-.3 1.7-.8.3-.5.4-1 .5-1.5h4.5c0 2-.6 3.6-1.8 4.8-.6.6-1.3 1.1-2.1 1.5-.8.4-1.8.5-2.8.5-1.4 0-2.6-.3-3.6-.9-1-.6-1.7-1.4-2.3-2.4-.3-.6-.5-1.3-.7-2.1-.1-.8-.2-1.6-.2-2.5v-7.4c0-.9.1-1.8.2-2.5.1-.8.3-1.5.7-2.1.5-1 1.3-1.8 2.3-2.4 1-.6 2.2-.9 3.6-.9 1 0 2 .2 2.8.5.8.4 1.6.8 2.1 1.5 1.2 1.3 1.8 3 1.8 5v6.4zm-9-3.5h4.4v-2.6c0-.9-.2-1.5-.6-1.9-.4-.4-.9-.6-1.6-.6-.7 0-1.2.2-1.6.6-.4.4-.6 1.1-.6 1.9v2.6z"/><path id="m" class="st0" d="M119.3 28.5V5.9h4.5v2.2h.1c.5-.7 1-1.3 1.7-1.8s1.5-.7 2.5-.7 1.8.2 2.4.7 1.2 1 1.6 1.6c.6-.6 1.2-1.2 1.9-1.6.7-.4 1.6-.7 2.8-.7.6 0 1.1.1 1.7.3.6.2 1.1.5 1.6 1 .5.4.9 1 1.1 1.7.3.7.4 1.6.4 2.6v17.3h-4.5V12.9c0-.8-.2-1.5-.6-2-.4-.5-.9-.7-1.6-.7-.9 0-1.4.3-1.8.8s-.5 1.3-.5 2.3v15.2h-4.5V12.9c0-.8-.2-1.5-.6-2-.4-.5-.9-.7-1.6-.7-.9 0-1.4.3-1.8.8-.3.5-.5 1.3-.5 2.3v15.2h-4.3z"/><path id="e_00000061451085364255993810000004245466305473749948_" class="st0" d="M158.5 18.9h-8.9V22c0 .7.2 1.3.6 1.6.4.4.9.6 1.6.6.9 0 1.4-.3 1.7-.8.3-.5.4-1 .5-1.5h4.5c0 2-.6 3.6-1.8 4.8-.6.6-1.3 1.1-2.1 1.5-.8.4-1.8.5-2.8.5-1.4 0-2.6-.3-3.6-.9-1-.6-1.7-1.4-2.3-2.4-.3-.6-.5-1.3-.7-2.1-.1-.8-.2-1.6-.2-2.5v-7.4c0-.9.1-1.8.2-2.5.1-.8.3-1.5.7-2.1.5-1 1.3-1.8 2.3-2.4s2.2-.9 3.6-.9c1 0 2 .2 2.8.5.8.4 1.6.8 2.1 1.5 1.2 1.3 1.8 3 1.8 5v6.4zm-9-3.5h4.4v-2.6c0-.9-.2-1.5-.6-1.9-.4-.4-.9-.6-1.6-.6s-1.2.2-1.6.6c-.4.4-.6 1.1-.6 1.9v2.6z"/></g></g></g></g></svg>