<svg xmlns="http://www.w3.org/2000/svg" viewBox="0 0 72 72" style="enable-background:new 0 0 72 72" xml:space="preserve"><path d="M5.4 46.7c.7.2 1.5.4 2.3.5l10.4 1.2c-1.3 3.6.4 7.7 2.3 11.2l.4.8c.5 1 .1 2.3-.9 2.8-.3.2-.6.2-1 .2H6.3c-1.2 0-2.1-.9-2.1-2.1 0-.7 0-1.5-.1-2.4-.1-3.3-.2-7.7 1.3-12.2zM53 8.6c1.2 0 2.1.9 2.1 2.1v46.4c0 1.2-.9 2.1-2.1 2.1s-2.1-.9-2.1-2.1v-3c-7.7-4.9-16.5-8-25.6-9.1V22.8c9.1-1.1 17.8-4.2 25.6-9.1v-3c0-1.2 1-2.1 2.1-2.1zM21.1 23.3v21.1L8.2 43C3.5 42.5 0 38.6 0 33.9c0-4.7 3.5-8.6 8.2-9.1l12.9-1.5zm44.1 20.1 6 4.2c.7.5 1 1.8.7 2.8-.4 1-1.3 1.5-2 .9l-6-4.2c-.7-.5-1-1.8-.7-2.8.3-1 1.2-1.4 2-.9zm5.3-11.6c.8 0 1.5.9 1.5 2.1 0 1.2-.7 2.1-1.5 2.1h-6c-.8 0-1.5-.9-1.5-2.1 0-1.2.7-2.1 1.5-2.1h6zm1.3-14.5c.4 1 .1 2.3-.7 2.8l-6 4.2c-.7.5-1.6.1-2-.9-.4-1-.1-2.3.7-2.8l6-4.2c.8-.6 1.7-.2 2 .9z" style="fill-rule:evenodd;clip-rule:evenodd;fill:#31c46e"/></svg>