<svg xmlns="http://www.w3.org/2000/svg" viewBox="0 0 72 72" style="enable-background:new 0 0 72 72" xml:space="preserve"><circle cx="36" cy="36" r="36" style="fill-rule:evenodd;clip-rule:evenodd;fill:#40bff5"/><path d="M52.7 29.2c1.7-1.2 3.2-2.6 4.3-4.3-1.6.7-3.2 1.1-5 1.3 1.8-1 3.1-2.7 3.8-4.6-1.7 1-3.5 1.7-5.5 2-1.7-1.7-3.9-2.6-6.3-2.6-4.8 0-8.6 3.7-8.6 8.3 0 .7.1 1.3.2 1.9-6.9-.3-13.3-3.5-17.7-8.7-.8 1.3-1.2 2.7-1.2 4.2 0 2.9 1.5 5.4 3.8 6.9-1.4 0-2.7-.4-3.9-1v.1c0 4.1 3 7.4 6.9 8.2-.7.2-1.5.3-2.3.3-.6 0-1.1 0-1.6-.1 1.1 3.3 4.3 5.7 8 5.8-3.1 2.3-6.8 3.6-10.7 3.5-.7 0-1.4 0-2.1-.1 4 2.5 8.5 3.8 13.2 3.7 15.4 0 25.3-12.3 24.7-24.8z" style="fill:#fff"/></svg>