<?xml version="1.0" encoding="utf-8"?>
<!-- Generator: Adobe Illustrator 26.0.0, SVG Export Plug-In . SVG Version: 6.00 Build 0)  -->
<svg version="1.1" id="圖層_1" xmlns="http://www.w3.org/2000/svg" xmlns:xlink="http://www.w3.org/1999/xlink" x="0px" y="0px"
	 viewBox="0 0 72 72" style="enable-background:new 0 0 72 72;" xml:space="preserve">
<style type="text/css">
	.st0{fill-rule:evenodd;clip-rule:evenodd;fill:#A4A5B3;}
	.st1{fill-rule:evenodd;clip-rule:evenodd;fill:#FFFFFF;}
</style>
<polygon id="Fill-1" class="st0" points="0,72 72,72 72,0 0,0 "/>
<path id="Fill-2" class="st1" d="M2.4,72c0,0,0.2-6.8,9.4-11c0,0,10-5.2,11-5.6c1-0.4,3.7-2.2,4-4.5c0,0,0.7-5.5,0.7-6.7
	c0,0-3.3-2-4.1-8.3c0,0-2.3,0-2.7-5.5c-0.3-3.5,0.7-3.6,1.3-3.4c0,0-0.6-6.6-0.1-8.1c0,0,0.2-8.5,7.6-11.3c2.8-1,8.6-2.7,11.3-0.4
	c0,0,1.7,1.3,1.8,2.6c0,0,4.5-0.3,6.3,4.6c1.8,4.8,0.5,12.6,0.5,12.6s2-0.5,1.5,4.1c-0.6,4.6-2.7,4.8-2.7,4.8s-0.7,5.9-3.7,8.1
	c0,0,0.2,4.5,0.4,5.6c0.1,1.1,0.4,3.6,3.6,5.4c3.2,1.8,12.1,6.4,12.7,6.8C62,62.1,68.7,65,69.6,72H2.4z"/>
</svg>
