<?xml version="1.0" encoding="utf-8"?>
<!-- Generator: Adobe Illustrator 26.0.0, SVG Export Plug-In . SVG Version: 6.00 Build 0)  -->
<svg version="1.1" id="圖層_1" xmlns="http://www.w3.org/2000/svg" xmlns:xlink="http://www.w3.org/1999/xlink" x="0px" y="0px"
	 viewBox="0 0 72 72" style="enable-background:new 0 0 72 72;" xml:space="preserve">
<style type="text/css">
	.st0{fill-rule:evenodd;clip-rule:evenodd;fill:#FFFFFF;}
</style>
<path class="st0" d="M36,0C16.2,0,0,16.2,0,36s16.2,36,36,36s36-16.2,36-36S55.8,0,36,0z M38.3,11.7l9.3-5c5.1,2,9.6,5.3,13,9.6
	l-2.2,10.2l-7.1,3.5l-13-9.5V11.7z M24.5,6.7l9.3,5v8.8l-13,9.5l-7.1-3.5l-2.2-10.2C14.9,12,19.4,8.7,24.5,6.7z M10,53.8
	c-3-4.4-4.9-9.4-5.4-14.7l7.6-8.3l6.9,3.4L24.5,49L20,54.3C20,54.3,10,53.8,10,53.8z M44,66.4c-2.6,0.7-5.3,1.1-8,1.1
	c-3.4,0-6.6-0.5-9.6-1.5l-2.8-8.8l4.5-5.4H44l4.4,5.2L44,66.4z M51.9,54.2L47.6,49l5.3-14.9l6.9-3.4l7.6,8.3
	c-0.5,4.6-1.9,9-4.3,12.9L51.9,54.2z"/>
</svg>
